<?xml version="1.0" encoding="utf-8"?>
<!-- Generator: Adobe Illustrator 26.0.2, SVG Export Plug-In . SVG Version: 6.00 Build 0)  -->
<svg version="1.1" id="Layer_1" xmlns="http://www.w3.org/2000/svg" xmlns:xlink="http://www.w3.org/1999/xlink" x="0px" y="0px"
	 viewBox="0 0 600 600" style="enable-background:new 0 0 600 600;" xml:space="preserve">
<style type="text/css">
	.st0{fill:#161616;}
	.st1{fill:#212121;}
	.st2{fill:#2B2B2B;}
	.st3{fill:#3A3A3A;}
	.st4{fill:#4F4F4F;}
	.st5{fill:#141414;}
	.st6{fill:#1A1A1A;}
	.st7{fill:#3B3B3B;}
	.st8{fill:#575757;}
	.st9{fill:#4E4E4E;}
	.st10{fill:#AA1700;}
	.st11{fill:#C91600;}
	.st12{fill:#E90D00;}
</style>
<path class="st0" d="M129.5,344.98c0.43-8.13,1.36-26.35,1.89-44.34c0.32-10.82,0.57-16.23,0.38-20.47
	c-0.2-4.46-0.24-9.24-0.06-14.3c0.13-3.48,0.35-6.81,0.64-9.99c0.97-19.04,1.94-38.09,2.92-57.13c-0.88-3.97-1.63-8.7-1.88-14.07
	c-0.19-4.06-0.05-7.76,0.23-11.02c-1.32-11.27-2.22-20.68-2.81-27.44c-3.63-41.35-1.74-51.49,2.75-60.44
	c1.76-3.51,1.39-1.79,9.92-14.61c8.97-13.48,15.69-24.87,20.06-32.58c9.91,0.84,17.95,1.06,23.4,1.1c5.87,0.05,9.26-0.1,19.36-0.25
	c9-0.13,16.28-0.17,20.91-0.17c3.75-0.69,9.68-1.63,17.01-2.1c16.74-1.08,26.27,1.23,43.74,2.34c18.35,1.16,16.7-0.81,30.49,0.23
	c36.36,2.77,39.74,15.91,61.92,12.9c19.59-2.66,21.75-13.57,41.51-13.13c9.31,0.2,15.74,2.77,26.58-0.3
	c4.48-1.27,8.37-3.13,13.53-1.81c6.39,1.63,10.2,6.98,11.13,8.28c2.72,3.82,1.83,5.04,5.46,14.95c1.82,4.99,2.16,4.99,5.69,13.82
	c1.92,4.79,3.39,8.73,4.33,11.29c-9.39,55.9-15.27,99.25-17.33,121.11c-0.59,6.21-1.42,16.52,0.57,29.67
	c1.97,13.03,5.85,23.22,8.68,29.55c-0.54,5.67-1.45,14.24-2.94,24.65c-2.12,14.79-2.97,16.29-4.98,30.08
	c-2.59,17.76-4.54,31.64-2.58,40.47c0.28,1.28,1.64,7.16,2.61,15.42c0.73,6.22,0.39,6.68,0.63,31.74c0,0,0.16,18.03-0.94,26.03
	c-0.45,3.31-0.54,5.02-0.7,8.44c-0.36,7.43,1.12,12.87,1.41,14.31c2.12,10.58-1.35,33.81-13.34,53.24
	c-4.91,7.97-14.39,23.33-24.43,21.81c-8.7-1.32-13.49-14.67-13.84-15.71c-4.46-13.37,2.89-21.45-2.11-27.21
	c-4.43-5.1-14.18-3.33-26.03-1.17c-12.93,2.35-23.65,6.6-31.9,10.79c-38.39,46.38-103.98,58.37-153.39,30.26
	c-54.36-30.94-76.19-103.06-45.73-162.3c-5.36-2.5-10.71-5.01-16.07-7.51c2.53,25.92,7.12,52.31,12.63,77.43
	c13.63,18.82,4.55,27.09,9.42,40.32c5.25,4.55,10.82,0.82,16.12,3.28c0.2,0.42,0.34,0.49,0.43,0.48c1.21-0.12,0.83-16.65,0.26-27.73
	c-0.55-10.73-1.13-13.91-0.05-14.26c2.94-0.95,10.76,21.3,20.35,31.33c0.73,0.76,2.85,3.24,4.97,6.95c1.12,1.97,2.1,4.65,2.65,8.95
	c2.01,5.79,14.8-1.71,19.3,2.69c2.9,2.94,2.59,5.98,6.04,8.22c10.77,2.89,65.85,17.59,113.69,25.59
	c33.59,5.62,41.73,4.27,48.55,1.88c8.48-2.98,16.6-8.17,28.01-6.05c6.1,1.13,15.34,4.77,16.32,10.74
	c1.23,7.5-11.17,15.07-18.53,19.47c-23.17,13.83-45.99,16.21-53.47,16.89c-35.42,3.19-32.98-4.45-80.43-4.16
	c-20.85,0.12-39.01,1.7-64.45-5.52c-7.16-2.03-12.92-4.2-16.75-5.75c-3.26-1.98-5.2,0.78-4.53,3.75c-5.2-0.22-10.35-1.21-15.58-0.91
	c-4.43-0.98-8.07,0.54-12.47-0.19c-4.22-5.36-13.46-2.68-17.81-6.55c-1.99-3.67-1.39-5.73-6.01-6.94
	c-3.71-4.29-6.83-8.48-9.46-12.37c-1-1.49-4.48-6.69-7.91-13.32c-2.26-4.37-7.43-14.99-11.37-30.7
	c-5.24-20.85-5.12-37.89-4.93-51.92c0.14-10.45,0.95-24.61,3.79-41.31"/>
<path class="st1" d="M204.18,228.59c10.34-1.78,0.85,11.17,14.47,15.6c2.89,2.11-1.38,5.3-2.53,6.91
	c-2.67,3.65,5.74,10.58,4.61,19.26c-0.15,1.01-1.66,13.05-0.29,11.84c16.37-8.98,4.89,5.55,14.64,9.32c2.02,0.29,2.45,2.94,3.4,4.67
	c8.76-2.62,3.12,3.46,8.52,4.18c4.8,4.56,3.04,5.64,8.95,0.15c3.88-2.44,9.39-0.82,12.6-1.61c2.75-4.48,11.56-7.78,16.44-9.96
	c10.28,5.24,8.5,2.11,18.61,2.18c12.02,2.65,21.41,1.52,33.14,1.26c21.89-3.78,13.96,20.03,12.04,32.21
	c3.44,18.31,0.43,34.25,6.57,47.22c-6.98-0.41-14.76-0.52-23.22-0.08c-8.32,0.43-15.94,1.32-22.76,2.43
	c-9.49-7.61-18.97-15.22-28.46-22.83c5.12,3.37,11.32,8.14,17.51,14.7c7.7,8.16,12.73,16.28,15.95,22.52
	c-9.18,5.26-10.64,8.36-10.29,10.21c0.3,1.54,1.83,2.12,3.72,5.12c1.59,2.53,2.28,4.94,2.6,6.47c-0.09,1.09-1,3.6-2.65,6.68
	c-1.16,2.17-2.75,3.85-5.23,3.74c-19.41-6.51,0.55-38.46-47.83-23.58c-21.96,9.47-29.84-16.04-30.55,1.06
	c-6.73,5.01-12,6.68-15.79,5.01c-9.2-4.05-9.75-27.76-1.64-71.11C209.03,298.69,208.31,260.52,204.18,228.59z"/>
<path class="st2" d="M424.66,550.44c-8.12,8.2-21.74,4.75-30.69,11.01c-0.25-1.39,0.83-11.65,3.3-8.02
	c6.56,10.9,16.72-23.21-8.79-15.83c-2.54-0.84-7.62-1.41-11.38-0.21c-10.35-6.2-19.21-10.39-25.51-13.11
	c-14-6.04-26.03-9.42-26.51-16.01c-0.1-1.45,0.37-2.67,0.77-3.45c1.05,0.56,7.79,3.99,15.13,1.01c4.06-1.64,6.43-4.49,7.48-5.94
	c2.19,5.19,6.83,13.84,15.64,16.89c1.72,0.6,2.99,0.76,14.07,0.63c20.31-0.26,24.02-0.92,26.14-1.36c3.77-0.78,9.14-2.22,15.39-5.05
	c-0.59-2.14-1.17-5.23-0.87-8.91c0.31-3.83,1.37-5.68,0.31-6.88c-1.31-1.48-4.42-0.36-9.07,0.63c-4.39,0.93-8.92,0.95-13.36,1.61
	c-12.34,1.84-32.48,0.02-34.68-0.09c-11.96-0.59-32.42-3.15-60.33-14.19c-13.18-2.73-41.05,17.42-42.41-1.5
	c-12.35,0.35-3.62-9.52-22.79-18.73c-19.3-3.97,7.5,14.21-19.41,7.44c-2.68-3.06-6.51-8.12-9.34-15.2c0,0-1.77-4.42-2.81-9.69
	c-3.29-16.54-0.92-52.41-0.74-55.02c0.5-0.45,1.32-1.12,2.19-0.93c4.84,1.05,1.41,28.27,19.97,2.19
	c20.84,17.22,57.38-16.45,67.02,17.67c1,12.56,15.21,15.1,17.04,0.96c-15.51-22.28-29.19-34.52-39.19-41.67
	c-8.74-6.25-15.65-14.83-24.4-21.08c-4.44-3.17-11.24-7.7-11.79-14.7c-0.24-3.01,0.75-5.58,1.65-7.3
	c3.42-7.64,7.79-12.13,10.76-11.37c0.92,0.23,1.77,0.96,2.49,2.34c25.06,19.21,46.65,32.57,62.42,41.5
	c13.07,7.4,26.36,14.15,32.35,9.24c3.15-2.58,2.87-7.23,2.81-16.89c-0.05-9.24,0.12-22.14,1.1-37.94
	c0.75-1.51,5.52-11.35,1.53-15.94c-1.39-1.6-3.48-2.15-13.42-2.56c-6.38-0.26-11.74-0.28-15.67-0.25c-3.8,0.14-7.74,0.2-11.82,0.18
	c-4.62-0.03-9.06-0.17-13.32-0.4c-9.17-3.57-14.01-2.4-16.73-0.69c-3.33,2.1-3.84,4.81-8.6,6.79c-3.14,1.31-3.47,0.3-9.38,1.88
	c-5.37,1.43-6.04,2.51-8.73,2.18c-2.86-0.36-3.46-1.75-6.98-2.64c-2.91-0.73-5.47-0.53-7.13-0.27c-2.13,0.03-3.01-0.58-3.43-1.15
	c-1.49-2.04,1.64-5.51,0.12-8.08c-0.65-1.09-1.74-1.35-3.3-1.92c-1.09-0.4-8.59-3.23-11.34-7.4c-1.64-2.48-0.37-3.58-1.01-10.48
	c-0.22-2.34-0.75-8.11-3.12-13.66c-2.79-6.54-5.65-6.98-9.15-13.51c-2.65-4.96-3.65-9.67-4.08-13.02c0.08-2.99,0.36-7.38,1.38-12.61
	c0.74-3.8,1.05-3.87,2.58-10.09c2.22-9.02,2.58-13.14,3.99-13.13c1.13,0,1.37,2.09,3.75,4.69c2.31,2.51,5.05,3.78,7.04,4.46
	c27.39,9.36,57.95,15.27,57.95,15.27c22.08,3.06,44.33,4.97,66.35,8.42c7.68,1.2,18.68,3.03,32.84,0.47
	c9.08-1.64,16.29-4.52,21.1-6.79c2.22-1.18,2.85-0.93,3.12-0.73c4.89,3.62-29.37,56.8-31.87,62.03
	c-10.45,25.23,19.26-4.31,22.79,14.25c9.44,2.99,7.63-2.78,5.78,11.07c-14.01,16.49-5.34,133.2-25,88.24
	c-2.3-14.02-21.37-14.38-35.4-19.23c-73.41-46.51-92.18-53.3-94.72-49.94c-3.82,5.05,27.02,35.8,45.55,52.23
	c16.78,14.88,32.12,25.7,43.26,32.94c21.92,5.67,10.7,22.05-8.5,14.34c-13.36,1.62-38.4-1.84-35.79-20.9
	c-8.52-25.5-59.82,8.55,10.4,51.97c26.44-5.23,23.59,13.36,44.87,19.87c36.99,2.74,18.24-1.22,22.98-15.4
	c1.18-4.61-2.52-9.72,0.83-13.41c3.64-5.68-5.74-4.26-5.69-8.06c1.51-14.43,16,6.14,22.77-17.14c0.32-25.26,4.01,35.81-0.4,46.85
	c4.2,11.27,0.09,5.94-3.16,8.61c0.97,3.71,10.57-0.78,11.77,5.03c2.82,2.83,3.42-5.19,6.5-1.22c-2.37-17.61-4.48-42.17-3.13-71.43
	c2.05-44.37,11.57-88.88,14.17-88.58c0.48,0.05,0.97,1.65,0.99,8.5c19.3,40,15.29,17.68,41.44,11.42
	c-4.86,10.28,0.66,19.49,0.08,27.35c-2.2-1.33-18.52-4.35-13.31,2.31c10.59,9.92-7.29,15.03-2.13,24.03
	c2.58,19.86,14.72,9.37-12.23,19.89c-6.01-4.79-10.88-0.83-6.45,5.36c2.21,3.5-6.87,3.1,0.5,8.06c5.26,4.07,1.32,7.33-0.27,4.45
	c0.1-5.12-8.07-2.15-3.66,0.99c5.56,3.16-0.21,6.52,2.71,9.99c6.63,6.66-1.05,8.5-1.06,17.19c-3.12,2.52,4.35,11.55,8.3,12.91
	c-1.45,8.34,4.55,16.8,1.02,24.62c-6.39,10.55,2.81,11.75-6.71,24.81C416.2,533.77,430.2,540.73,424.66,550.44z M377.83,330.5
	c-0.56-4.04-6.82-31.07-11.92-19.23c0.66,5.4-8,0.18-7.49,5.03c-3.82,18.44-0.44,33.93,7.64,50.88c-2.6,9.69,4.39,1.64,9.45,2.05
	C389.28,356.51,374.53,345.29,377.83,330.5z"/>
<path class="st1" d="M206.7,553.89c-0.07-0.83-0.11-2.22,0.34-3.8c2.47-8.72,16.35-11.85,18.97-12.44
	c7.58-1.71,8.93,0.11,13.72-2.32c6.82-3.46,9.6-9.95,9.92-10.73c2.24-5.44,1.41-10.66,0.83-15.55c-0.24-1.98-0.62-3.57-0.89-4.55
	c-3.75-5.49-11.03-4.96-14.47-10.52c-6.82-1.9-13.64-3.79-20.46-5.69c-0.82-1.13-1.89-2.85-2.65-5.14
	c-0.79-2.36-0.96-4.44-0.97-5.85c-2.18-2.57-4.59-5.99-6.57-10.32c-5.09-11.12-4.29-21.56-3.52-26.66
	c0.89-23.91,1.52-30.07,1.97-30.06c0.97,0.01-2.7,28.73,13.27,54.69c1.67,2.71,3.23,4.87,4.41,6.41c2.83-2.68,10.64,4.57,9.17-3.3
	c-3.13-5.34,2.44-7.1,6.74-5.13c1.6,0.74,3.22,1.17,10.18,7.2c3.73,3.23,4.41,3.98,6.79,5.83c2.59,2.02,4.83,3.51,6.33,4.46
	c0.79,0.83,1.95,2.16,3.05,3.99c1.57,2.61,1.59,3.83,2.71,4.81c1.09,0.95,3.23,1.68,7.87,0.26c21.54-11.17,47.13-3.25,69.67-5.91
	c4.98,0.45,7.69,11.66,14.56,9.37c1.28,0.74,3.17,2.09,4.36,4.4c0.59,1.14,1.38,3.23,0.5,9.73c-0.37,2.76-1.07,6.54-2.5,10.95
	c-1.98-1.36-1.98-1.36-5.94-4.07c3.96,2.71,3.96,2.71,5.94,4.07c-2.3-4.51-5.02-6.76-7.08-7.97c-1.96-1.16-2.7-2.32-4.29-3.05
	c-1.83-0.83-3.98-1.3-9.89-0.87c-6.65,0.48-9.97,0.72-10.32,1.88c-0.93,3.05,12.69,9.69,15.43,11.02c9.28,4.52,17.81,7.1,24.55,8.64
	c1.5,1.55,3.9,3.7,7.28,5.56c5.62,3.1,10.62,3.57,11.68,3.66c3.98,0.33,7.38-0.26,9.89-0.97c9.36,5.7,11.58,15.94,0.63,20.66
	c-1.32,1.62-2.63,3.24-3.95,4.86c-3.46,1.11-7.37,2.14-11.7,2.95c-6.58,1.23-12.53,1.63-17.57,1.64
	c-4.17,0.27-10.02,0.43-16.99-0.13c-6.92-0.55-8.78-1.31-20.18-2.73c-5.59-0.7-10.79-1.34-17.41-1.69
	c-7.33-0.4-13.43-0.28-17.69-0.1c-10.6,0.07-20.31,0.06-29.58,0.03c-6.07-0.02-11.27-0.06-17.91-1.7c-3.61-0.89-4.04-1.36-8.29-2.35
	c-4.27-0.99-8.33-0.75-16-2.14C214.69,554.17,209.77,553.93,206.7,553.89z"/>
<path class="st2" d="M440.3,97.86c-0.27-7.67-8.72-8.9-12.95-12.32c-7.57,0.73-8.99-1-10.85,7.2c-1.14,1.63,0.54,3.58,1.07,5.18
	c-0.1,2.63-2.66,4.62-0.87,7.51c0.47,4.9-2.2,8.55-3.13,13.1c-0.19,17.48-2.42,35.17,0.02,51.3c-5.16,5.83-0.61,11.19,3.4,14.48
	c1.8,20.68-0.61,27.65-25.19,24.99c-2.75-1.96-6.56,1.18-8.68-1.64c-6.17-11.35-9.68,9.19-17.36,0.2
	c-14.01,3.44-5.03-9.74-15.87-5.36c-2.36,1.88-3.56,5.65-6.43,6.45c-1.05,0.29-1.9,0.08-2.21,0.04c-2.97-0.44-11.58-0.81-31.71-0.89
	c-29.46,5.51-6.1-19.25-26.12-22.81c-16.36,6.34,8.12,21.54,5.77,24.06c-2.82-3.32-8.96,1.65-9.98-0.33
	c1.64-3.82-4.27-5.67-6.18-8.11c-3.13-2.45-7.01-0.34-9.86-2.32c-8.26-0.88-9.28-10.74-17.51-10.9
	c-6.65-2.78-30.01-3.05-22.15-13.75c4.02,15.63,15.8-11.53,11.01-17.63c-6.83-8.93,3.16-52.52-12.44-43.52
	c-1.58-9.4,4.09-17.02,3.65-25.84c-3.83-6.47-2.07-18,3.16-9.12c-2.91,4.72,4.39,4.54,6.3,7.35c26.52,9.2,13.2,0.85,25.42,20.33
	c4.14,1.83,0.16,8.6,5.8,8.15c2.92,0.41,3.51,2.88,3.32,5.45c-0.05,6.38,7.61,8.92,7.75,15.39c2.36,4.87,1.29,10.03,0.84,15.14
	c1.06,3.46,4.35-2.25,6.69,0.6c2.96,3.51,7.42-0.91,9.35,1.45c-3.03,11.39,10.65,4.51,16.6,7.22c10.19,2.82,17.99,12.34,28.4,13.78
	c7.96,5.07,18.14,3.84,23.07,14.54c3.33,18.07,24.97,8.82,33.25,20.29c14.85-8,22.39,6.47,17.73-21.02
	c-15.14-8.65-6.52-11.85-3.38-23.51c-2.2-7.95-3.3-17.33-7.42-25.28c-1.48-10.97,8.11-20.72,8.52-32.3
	c0.92-12.75,3.31-28.11,1.06-39.89c-8.01,10.72-30.54-0.63-43.92-0.1c-4.95,0.11-4.76-8.15-10.57-4.96
	c-7.38,2.99-15.95,2.47-23.29-0.17c-27.79-12.96,54.9,3.13,68.16,2.19c22.96,1.34-17.22-29.16,25.23-21.3
	C431.96,60.06,436.13,78.96,440.3,97.86z"/>
<path class="st1" d="M227.15,75.3c-8.93-3.16-0.35,9.52-1.26,14.49c-5.03,14.46-3.78,27.77-3.85,42.57
	c-3.7,1.74,4.55,1.58-2.15,8.68c8.27-0.36,0.76,2.86,2.18,6.67c0.25,7.41,2.02,17.6-8.55,11.93c-8.21,2.58,5.68,4.92,7.68,5.93
	c5.66,11.72-30.25-4.71-30.47-8.93c-6.72,6.59,2.8,6.32,5.29,11.65c5.13,1.81,9.6,5.46,15.17,8.23c12.89,1.09,6.32,5.8-0.85,7.53
	c-1.81,3.76,2.23,9.65-2.77,12.14c-1.31,0.66,0,1.82-0.44,2.54c-4.14,11.12-4.58,7.94-10.42,1.74c-7.98-2.38-16.06-10.89-23-4.23
	c-9.84,7.35,7.75,9.57,11.73,13.59c-1,1.83,2.02,4.53,4.01,5.09c17.38,11.17-16.2-5.31-21.65-7.69c-0.27-0.83,0.99-4.07-1.06-2.44
	c-3.12,2.11-0.3,5.91-1.63,7.98c-5.56-11.48-7.68,6.89-12.72,1.54c1.36-32.76,0.47-8.07,14-15.6c10.23-27.54,10.48-8.03,20.77-18.72
	c3.21-4.6,0.32-4.84-3.74-4.61c-1.05,2.47-1.83,5.24-4.18,5.81c-0.83-3.53,3.53-9.39-3.5-10.5c-16.06-2.02-8.49,24.98-24.45,5.88
	c-7.2-2.37-20.99-16.96-14.05-0.54c-1.76,9.95,4.02,19.99,0.37,29.55c0.11,6.14,3.68,6.63,0.65,14.79
	c3.51,11.72,3.2,22.78-2.39,33.82c-8.45,1.12-2.13-32.42-4.81-42.84c4.71-39.6-10.08-78.34-1.06-117.38
	c9.55,14.24-0.59,35.85,2.84,52.13c-0.49,9.15,14.47,10.78,8.59,1.64c-1.69-0.03-1.96-1.53-0.25-2.17c6.96-3.82,5.77,3.56,4.04,6.89
	c6.34,5.77,2.17,15.16,7.57,21.58c4.83,1.65,0.82-7.38,2.1-8.99c5.32-6.11,2.5-19.48,14.02-10.73
	c10.64,10.43,23.32,1.98,20.78-10.75c-0.66-17.13,4.11-34.18-0.74-51.03c1.79-19.64,2.84-17.93-15.63-9.12
	c8.98-12.6-13.62-8.04-15.97,0.43c0.11,5.65-2.14,9.51,2.49,12.91c0.47,3.82-6.21,5.8-2.48,10.16c1.62,2.75-2.52,2.96-3,3.46
	c0.14-9.89-0.07-20.57-1.11-30.69c3.56-9.09-0.09-32.67,6.57-35.72c-2.8,9.9,4.01,4.23,5.87,9.08c-3.36,10.8-11.08,16.26,5.6,10.69
	c5.93-2.57,20.75,5.78,19.76-5.24c0.71-8.61-2.02-21.5,9.69-19.22c27.21-2.93,18.6,1.29,25.14,23.2c24.66-9.33,52.03-3.6,77.01-8.28
	c17-2.13,29.19,8.14,45.39,7.81c4.5,2.48,9.2-3.79,13.89-1.62c6.22,5.3-3.23,4.73-6.96,4.04C345.23,62.15,209.12,61.62,227.15,75.3z
	 M206.31,39.44c0.57-0.24,0.77-0.59,0.14-0.89C205.64,38.34,205.37,39.24,206.31,39.44z"/>
<path class="st2" d="M444.31,93.97c-0.15-3.11-0.35-6.26-0.61-9.46c-1.28-15.79-3.75-30.44-6.89-43.83
	c8.54,2.52,15.12,2.4,19.63,1.77c4.03-0.56,7.69-1.69,11.64,0.09c3.55,1.6,5.61,4.77,6.8,7.21c5.82,10.98,14.67,30.19,16.62,55.66
	c1.47,19.22-0.86,38.85-6.14,58.09c-9.62,20.06,0.36,41.73-3.35,62.79c-1.1,6.77-1.97,14.41-2.33,22.8
	c-0.38,8.62-0.15,16.5,0.38,23.5c-1.6,7.76-3.19,15.52-4.79,23.28c-1.02-7.37-2.05-14.75-3.07-22.12
	c5.73-4.77-2.07-16.35-1.53-23.56c-1.46-12.54-7.79-24.32-4.05-35.52c-1.39-3.06-2.86-6.98-3.87-11.67
	c-0.79-3.69-1.13-7.04-1.24-9.88c-7.81-16.38-16.57-40.58-18.06-70.6C442.94,112.1,443.38,102.52,444.31,93.97z"/>
<path class="st3" d="M307.99,54.83c-2.1-0.14-19.28-5.62-11.81-6.75c5.45-0.34,13.67,0.76,17.81-1.8c-5.69-2.48-1.36-1.64,1.1-3.32
	c-6.57-1.81-14.92-2.1-21.78-1.84c-7.79,1.19-16.03-2.18-24.42-0.05c-12.08-2.13-24-2.71-36.52-2.16c7.34-2.6,16.76-1.24,24.81-2.57
	c47.53-2.57,107.8-6.46,150.46,5.78c0.84,2.13,1.91,5.21,2.74,9.03c1.19,5.47,1.88,8.67,1,10.61c-3.03,6.73-26.46,2.3-33.84,0.96
	C361.34,59.77,338.02,56.38,307.99,54.83z"/>
<path class="st0" d="M472.2,273.75c0.74,1.73,1.98,4.02,4.07,6.22c0.83,0.88,1.67,1.6,2.45,2.2c-0.24,1.56-0.69,4.65-1.15,8.55
	c-2.16,18.13-1.72,29.07-4.98,30.08c-0.24,0.07-0.7,0.13-1.43-0.29c-7.65-0.26-11.82-2.93-10.59,6.51
	c-6.7,9.11-1.72-14.59-4.41-18.41c-4.7-7-2.7-14.5-0.88-22.04C454.25,269.46,455.25,275.99,472.2,273.75z M474.56,285.44
	c-0.61-0.41-0.86-0.32-1.02,0.4C474.16,286.26,474.4,286.16,474.56,285.44z"/>
<path class="st3" d="M133.5,143.43c-3.58-12.49,1.43-23.38,0.17-35.7c1.7-8.3-5.94-13.89-1.01-20.52
	c11.72-11.18,15.98-26.14,23.13-39.98c2.81,14.29-4.54,28.83-1.87,43.38c-5.64-2.72-3.78,5.73-4.38,9.62
	c2.11,7.08,2.27,13.62-4.57,16.97C139.31,125.05,137.19,135.88,133.5,143.43z"/>
<path class="st4" d="M453.59,66.79c-3.95-0.96-1.26-9.77-5.48-10.96c-1.93-0.43-5.26,0.83-5.99-1.68
	c23.55-1.71,10.57-11.43-4.72-12.05c-3.61-4.94,10.12-3.41,14.52-5.13c8.96-4.19,18.22,2.12,22.01,10.28
	C462.82,62.53,489.56,84.7,453.59,66.79z"/>
<path class="st3" d="M192.26,39.72c-1.86,21.46,3.83,26.53-20.96,24.02c-16.61,1.02,1.55-11.27-0.55-20.66
	c-1.16-4.57-9.1-0.46-11.56,0.76C163.32,31.35,181.92,41.11,192.26,39.72z M174.04,45.27c-0.61-0.42-0.85-0.32-1.02,0.4
	C173.63,46.09,173.87,45.99,174.04,45.27z"/>
<path class="st3" d="M425.57,517.27c2.4,3.44,0.94,8.95,1.73,13.26c9.82,5.42,6.54,14.78-2.65,19.91
	C429.49,537.84,411.13,528.23,425.57,517.27z"/>
<path class="st4" d="M148.92,59.39c-0.54,9.95-7.39,17.95-14.2,24.47C137.95,75.32,144.01,67.14,148.92,59.39z"/>
<path class="st3" d="M435.73,39.6c4.75,5.49-22.39-1.68-28.06,1.67C408.09,34.93,428.57,40.16,435.73,39.6z"/>
<path class="st4" d="M153.1,51.55c-0.35,2.81-1.57,6.31-4.06,7.64C150.24,56.56,151.25,53.83,153.1,51.55z"/>
<path class="st4" d="M243.65,39.41c3.09,0.72,6.46-1.42,9.38-0.5C250.54,39.46,244.85,41.88,243.65,39.41z"/>
<path class="st3" d="M220.91,38.69c1.8,0.43-0.73,1.05-1.47,0.84C210.81,40.02,214.59,38.09,220.91,38.69z"/>
<path class="st4" d="M242.56,39.71c-8.42,0.13-8.27-1.41,0.06-0.91C243.66,39.03,243.91,39.93,242.56,39.71z"/>
<path class="st3" d="M235.02,38.74c0.38,1.29-2,0.99-2.49-0.01C233.37,38.46,234.2,38.5,235.02,38.74z"/>
<path class="st4" d="M133.57,85.77c0,0.67-0.26,1.18-0.91,1.44C132.6,86.51,132.93,86.04,133.57,85.77z"/>
<path class="st1" d="M132.07,263.53c0.7,0.66,0.57,1.21-0.22,1.67C131.68,264.62,131.78,264.06,132.07,263.53z"/>
<path class="st3" d="M141.31,516.42c0.74,0.55,0.81,1.26,0.49,2.07C141.16,517.91,141.05,517.21,141.31,516.42z"/>
<path class="st1" d="M131.72,265.87c0.1,0.39,0.02,0.73-0.32,0.98C131.14,266.4,131.31,266.1,131.72,265.87z"/>
<path class="st4" d="M134.37,84.78c-0.22,0.26-0.43,0.52-0.64,0.78C133.69,85.09,133.91,84.84,134.37,84.78z"/>
<path class="st3" d="M143.6,524.22c0.21,0.09,0.27,0.26,0.19,0.46C143.54,524.59,143.46,524.46,143.6,524.22z"/>
<path class="st3" d="M144.45,525.91c0.21,0.09,0.28,0.25,0.2,0.46C144.39,526.29,144.31,526.16,144.45,525.91z"/>
<path class="st3" d="M145.11,527.54c0.32,0.07,0.43,0.27,0.35,0.59C145.07,528.09,144.92,527.91,145.11,527.54z"/>
<path class="st2" d="M154.6,538.69c0.2,0.05,0.27,0.17,0.23,0.37C154.59,539.02,154.5,538.93,154.6,538.69z"/>
<path class="st2" d="M155.06,539.39c0.2,0.23,0.41,0.46,0.61,0.69C155.25,540.04,155.03,539.82,155.06,539.39z"/>
<path class="st2" d="M160.84,546.24c0.47,0.06,0.71,0.33,0.74,0.8C161.1,546.99,160.86,546.72,160.84,546.24z"/>
<path class="st2" d="M177.88,552.19c0.41,0,0.67,0.21,0.77,0.6C178.21,552.83,177.97,552.6,177.88,552.19z"/>
<path class="st3" d="M158.16,45.05c-0.08,0.36-0.32,0.5-0.68,0.46C157.56,45.13,157.78,44.96,158.16,45.05z"/>
<path class="st4" d="M474.2,47.98c-0.27-0.15-0.35-0.37-0.24-0.66C474.16,47.55,474.55,47.68,474.2,47.98z"/>
<path class="st1" d="M265.67,209.93c7.29-0.18,14.94-0.61,22.89-1.36c3.26-0.31,6.45-0.66,9.57-1.04c2.63,0.27,6.96,0.45,12.05-0.65
	c8.98-1.94,11.29-5.9,17.37-5.16c6.27,0.76,6.79,5.32,11.77,4.77c5.69-0.64,8.11-6.97,12.9-6.1c1.78,0.33,3.07,1.48,3.83,2.32
	c-0.02,0.27-0.43,3.84,2.3,5.25c1.94,1,4.68-1.04,7.4-0.1c2.03,2.8,4.74,1.88,7.32,1.9c6.17-11.38,6.85-2.37,12.94-0.87
	c12.23-0.4,29.69,5.75,31.5-11.38c2.67,1.82-3.06,13.7,0.26,18.64c2.03,2.91-2.09,2.51-2.08,4.93c3.72,1.1,7.31-4.35,9.82,3.24
	c-11.03,1.04-2.11,7.31-15.69,3.87c-2.02,25.6-1.03,51.94-6.96,77.29c-1.37,10.84,14.14-9.13,6.22,21.58
	c-4.35,10.03,2.38,10.25,5.74,18.2c0.3,1.23,0.48,2.82-0.39,3.77c-1.04,1.14-2.76,0.43-4.98,1.23c-1.34,0.48-2.78,1.49-4.09,3.51
	c-7.91,26.3-7.68,45.7-5.83,58.82c1,7.11,3.51,19.8,3.59,38.28c0.04,9.03-0.51,16.46-0.99,21.39c1.03,7.72,0.89,11.79-0.4,12.2
	c-0.28,0.09-0.61,0.01-1-0.24c-2,1.56-4.38,2.04-6.12,1.14c-0.39-0.2-0.92-0.57-1.42-1.24c-1.4-5.05-10.84-0.75-11.29-4.33
	c1.11-9.37,2.09-19.01,2.94-28.93c1.07-12.61,1.84-24.84,2.35-36.66c1.81-41.72,2.87-62.57,4.68-76.16
	c2.05-15.33,11.7-79.82,12.48-94.6c0.09-1.69-3.96-8.3-1.96-15.66c0.89-3.28,2.55-5.64,3.55-6.9c-2.75,2.42-6.6,5.39-11.58,8.13
	c-1.37,0.76-6.66,3.6-14.45,5.83c-5.61,1.61-14.31,3.4-25.3,2.95c-3.74-0.19-7.59-0.32-11.54-0.39c-4.42-0.08-8.72-0.07-12.88,0.01
	c-3.58,0.44-8.79,0.59-14.54-1.17c-4.73-1.45-7.1-3.36-10.98-5.35c-4.36-2.24-10.91-4.73-20.18-5.46c-7.17-3.37-8.45-4.64-8.28-5.18
	c0.27-0.84,4.12,0.06,13.41,0.74c3.74,0.27,3.05,0.12,12.1,0.6c3.54,0.19,8.2,0.45,13.69,0.81c3.99,0.63,7.97,1.25,11.96,1.88
	c5.74,0.85,11.85,1.57,18.29,2.11c6.15,0.51,12.03,0.81,17.59,0.94c2.94-0.25,7.43-0.64,12.9-1.17c5.2-0.51,10.01-1.02,11.26-1.17
	c5.21-0.62,14.54-2.69,29.67-10.41c-20.06,6.4-28.63,6.97-32.64,6.09c-0.67-0.15-3.37-0.81-7.07-0.84
	c-3.89-0.03-7.03,0.64-8.96,1.17c-1.62-0.34-4.15-0.74-7.27-0.7c-3.21,0.04-3.55,0.51-5.91,0.35c-4.25-0.29-4.69-1.91-8.63-2.23
	c-3.4-0.27-3.95,0.87-7.3,0.79c-3.26-0.08-6.09-1.24-8.42-2.67c-3.05-0.32-6.16-0.68-9.33-1.09c-2.48-0.32-4.92-0.66-7.32-1.02
	c-2.71,0.33-5.52,0.57-8.44,0.7C290.23,215.88,276.6,213.3,265.67,209.93z"/>
<path class="st3" d="M300.07,288.32c-1.38,0.61-4.29,1.66-7.88,1.12c-6.83-1.03-10.24-6.9-10.69-7.71
	c-4.94-2.98-12.17-8.19-18.39-16.68c-9.13-12.46-17.4-33.79-9.71-40.8c6.62-6.03,22.31,1.06,26.29,2.96
	c18.96,3.9,23.6,6.67,23.52,8.6c-0.12,2.53-7.29,3.52-7.25,5.48c0.04,2.11,8.51,4.63,39.4,7.19c5.09-1.55,8.77-0.96,10.95-0.31
	c10.45,3.11,17.8,17.07,17.1,34.69c-14.26,5.06-31.05,0.02-45.02,5.5C314.55,287.46,300.02,278.65,300.07,288.32z"/>
<path class="st3" d="M387.13,397.05c0.56,7.87,0.27,14.36-0.14,19.07c-0.4,4.55-0.94,7.68-2.41,11.13c-1.7,3.99-3.15,7.37-6.36,8.77
	c-4.81,2.09-8.67-2.39-12.39,0.03c-2.48,1.61-3.63,5.47-2.45,7.12c1.55,2.16,6.37-0.51,8.54,1.69c1.1,1.12,1.69,3.65-0.94,10.01
	c-1.23,5.83-2.46,11.66-3.69,17.49c0.76,3,1.52,6.01,2.29,9.01c-7.65,0.04-18.34-0.48-30.8-3.05c-8.37-1.72-17.56-5.34-35.96-12.51
	c-18.05-7.03-22.22-9.43-26.27-13.76c-6.23-6.65-8.85-14.28-10.08-19.45c-3.56-4.71-4.33-9.01-4.55-11.11
	c-0.36-3.56,0.47-6.54,2.12-12.5c1.51-5.45,2.75-7.31,3.43-8.23c1.16-1.56,2.99-4.05,5.94-5c4.88-1.58,10.5,1.74,13.55,5.14
	c5.32,5.94,2.34,11.92,5.26,17.28c2.87,5.28,11.38,9.87,35.3,7.92c8.36,3.56,15.38,2.99,17.28-0.24c0.93-1.58,0.7-3.9-0.25-5.56
	c-2.2-3.84-7.66-3.08-13.59-5.15c-3.69-1.29-8.61-4.04-13.5-10.56c-7.88-6.94-16.28-13.72-23.91-21.64
	c-7.53-7.81-15.04-15.81-23.84-22.77c-6.53-6.36-14.49-10.37-21.28-15.88c-7.24-7.39-8.61-15.43-5.73-18.46
	c2.32-2.44,7.23-1.45,8.82-1.07c5.97,4.15,12.52,8.38,19.67,12.58c6.9,4.05,13.56,7.6,19.88,10.71
	c11.03,7.29,20.42,12.75,27.24,16.53c6.66,3.69,9.99,5.53,13.82,7.16c11.89,5.07,16.9,4.56,26.65,9.31
	c3.41,1.66,8.43,4.47,14.03,9.14c0.91,1.41,2.27,3.73,3.49,6.81c1.64,4.16,1.83,6.12,3.13,6.57C380.66,404,382.87,403,387.13,397.05
	z"/>
<path class="st3" d="M377.83,330.5c0.67,4.51,1.43,9.14,2.31,13.89c0.81,4.43,1.68,8.73,2.58,12.9c-0.01,1.16-0.2,4.5-2.58,7.74
	c-2.21,3.01-5.06,4.21-6.18,4.61c-7.03,3.87-8.91,4.12-9.3,3.6c-0.31-0.41,0.35-1.26,0.47-3.28c0.07-1.22-0.1-2.21-0.23-2.81
	c-3.06-7.32-6.74-17.1-9.59-27.83c-2.13-8.02-2.38-11.21-0.88-13.92c1.11-2.01,4.02-5.3,4-9.09c0-0.48-0.07-1.08,0.33-1.58
	c1.56-1.95,7.72,1.12,7.16-3.46C371.01,299.35,377.26,326.55,377.83,330.5z"/>
<path class="st0" d="M455.36,358.94c2.24-12.57,8.84,13.7,11.07,17.86c-1.42,2.16-4.4,4.29-2.98,7.85
	c-0.01,6.74-7.38,12.75-6.46,20.41c-5.63,27.29-1.98,57.27-18.11,80.34c-2.69-15.88,9.8-43.16,9.87-61.75
	C452.96,403.83,451.61,380.22,455.36,358.94z"/>
<path class="st3" d="M443.43,410.83c-5.01,16.09-15.2,33.82-17.79,52.56c-2,3.53,4.13,5.35,0.97,8.58
	c-0.85,2.51,4.11,1.33,3.05,4.02c-1.42,2.67,1.62,4.72,0.54,7.27c1.3,9.58-0.85,19.36-3.85,28.9c-3.45-1.62-1.97-8.95,0.8-11.5
	c2.1-7.07,0.02-19.67-2.74-25.29c-2.38-2.39-9.78-9.11-6.59-12.24c0.05-6.33,7.13-12.17,1.06-17.18c-1.85-1.66-0.4-3.58-0.22-5.53
	c1.08-3.48-8.68-7.77-0.38-8.17c1.32,1.9,4.44,6.77,4.35,1.12c-1.22-2.4-4.41-3.49-5.42-5.78c4.17-5.39,1.7-3.52,0.77-9.25
	c0.73-6.91,3.95-2.53,8.06-1.24C431.38,416.34,437.33,412.01,443.43,410.83z"/>
<path class="st3" d="M405.93,220.91c0.54,0.88,1.34,2.29,2.13,4.1c6.21,14.23,0.13,27.09-3.67,48.74
	c-0.99,5.64-2.17,13.79-2.69,23.86c-0.84,0.59-2.34,1.43-4.27,1.45c-3.32,0.05-6.53-2.34-8.15-6.03c-2.01-0.73-4.8-1.39-7.97-0.94
	c-5.13,0.72-8.06,3.89-10.6,2.55c-1.35-0.71-1.88-2.31-2.11-3.32c1.12-5.26,3.11-12.04,6.78-19.4c4.4-8.84,9.65-15.35,13.76-19.7
	c2.92-5.16,5.85-10.47,8.76-15.91C400.68,231.11,403.36,225.97,405.93,220.91z"/>
<path class="st1" d="M204.15,427c-0.11,46.87-9.64-6.98-7.57-22.2C205.38,408.87,203.65,418.84,204.15,427z"/>
<path class="st3" d="M418.73,344.58c21.35,11.99,32.18-13.76,34.89,0.85c-6.58-3.28-11.29,6.72-17.83,9
	C426.3,364.44,423.54,351.08,418.73,344.58z"/>
<path class="st3" d="M270.53,433.02c14.59,5.08,27.99,16.33,41.75,23.79c-4.55-1.31-11.6,3.75-14.37,0.27
	c-0.21-5.89-8.64-6.64-12.36-10.35C281.32,441.19,275.17,437.58,270.53,433.02z"/>
<path class="st3" d="M415.22,293.29c10.23,8.72,2.46,14.21-0.86,23.36c1.07,3.37-0.08,6.98-1.69,9.87
	c-1.32-0.96-0.27-3.45-2.47-3.41C411.52,313.1,413.18,302.97,415.22,293.29z"/>
<path class="st3" d="M321.59,461.14c11.73,1.49,17.76,14.98,28.99,17.83C341.62,480.66,326.8,468.68,321.59,461.14z"/>
<path class="st3" d="M452.7,369.85c0.12,7.66-5.59,4.41-8.73,9.36C433.8,368.4,440.99,365.49,452.7,369.85z"/>
<path class="st3" d="M455.36,358.94c-1.88,17.03-6.73-8.43-1.74-13.68C455.43,348.75,450.33,357.43,455.36,358.94z"/>
<path class="st3" d="M204.19,390.46c-1.46-3.5-1.8-8.84,0.64-11.81C204.35,382.42,206.29,387.38,204.19,390.46z"/>
<path class="st3" d="M315.65,458.55c1.87,0.1,2.98,1.48,4.28,2.54C318.37,463.03,315.13,460.71,315.65,458.55z"/>
<path class="st3" d="M267.11,431.34c1.27-0.11,2.11,0.48,2.6,1.63C268.49,432.99,267.27,433.01,267.11,431.34z"/>
<path class="st1" d="M182.06,385.45c0.52,1.97,1.12,4.34,1.76,7.03c0.86,3.59,1.42,6.2,1.6,6.99c3.29,14.99,8.15,22.25,5.7,32.36
	c-0.31,1.27-0.95,3.49-2.37,6.15c0.13,1.6,0.17,3.41,0,5.39c-0.41,4.93-1.88,8.89-3.2,11.61c1.36,2.63,5.24,10.67,3.9,17.94
	c-0.36,1.94-1.14,6.16-3.95,7.25c-0.5,0.2-0.93,0.23-1.15,0.25c-4.87,0.41-11.74,0.98-15.54-0.71c-6.1-2.7-9.78-13.6-7.51-26.03
	c-1.92-5.26-4.63-13.35-7.04-23.45c-4.68-19.64-2.92-24.75-6.86-51.96c-3.38-23.33-5.72-26.87-4.4-38.34
	c1.48-12.75,6.05-22.8,9.71-29.33c-1.88-4.63-3.19-12.94-4.24-23.45c-0.77-7.71,0.01-15.21,5.08-22.18
	c0.11-11.2-15.85-2.3-4.96-21.18c2.19-7.5,10.82-2.45,16.66-3.23c5.36,4.45,4.4,2.75,8.21-1.36c2.77,7.71,5.87,5.85,5.92-1.62
	c2-4.18,9.36-10.36,14.26-9.07c2.42-1.95,3.04-3.96,7.97-1.45c1.81,1.49-7.41,3.36-6.04,8.34c-6.26,4.46-4.14-11.92-13.89,6.51
	c-9.89,19.9-7.61,42.58-10.74,64.98c-1.14,1.44-1.5,4.1-0.05,5.65c2.76-0.33,6.38-8.74,8.54-4.1C185,333,171.3,363.78,182.06,385.45
	z"/>
<path class="st1" d="M222.02,177.44c2.96,12.31,25.82,4.29,31.81,15.13c3.65,7.26,12.83,5.37,19.18,8.34
	c22.74,5.61,33.98,9.2,33.71,10.74c-0.28,1.59-12.74,1.03-37.37-1.68c-4.81,0.11-11.44-0.32-18.88-2.66
	c-3.89-1.22-7.22-2.73-9.96-4.2C227.89,204.37,214.7,189.49,222.02,177.44z"/>
<path class="st3" d="M222.02,177.44c-8.22,5.5-0.69-6.16-0.43-9.41c1.38-7.94-0.41-16.66,2.12-23.75c0.5-4.7-5-30.37,0.59-32.54
	c1.26-0.49,2.68,0.38,3.26,0.72c4.6,2.72,3.08,10.11,5.2,21.88c0.76,4.22,1.79,7.9,2.81,10.95c3.21,10,1.71,17.36,0.63,20.95
	c-1.54,5.11-5.42,13.09-8.9,12.65c-1.79-0.23-3.02-2.64-3.82-4.93C221.56,174.07,222.2,176.16,222.02,177.44z"/>
<path class="st2" d="M208.32,287.38c-4.85-3.02-3.83-73.47-12.7-42.03c-3.36-3.85-5.34,1.28-9.73,0.28
	c-5.3-0.99-4.41,6.05-7.83,8.87c-6.27,9.41,4.66-16.27,8.54-20.28c5.76-5.64,6.94,11.11,10.73-3.46
	C212.7,224.06,205.85,274.88,208.32,287.38z"/>
<path class="st2" d="M195.64,219.21c-1.71-4.72-11.23-3.82-10.2-9.37C188.09,210.08,201.27,215.72,195.64,219.21z"/>
<path class="st4" d="M203.42,206.47c2.55-3.02,2.96-7.08,4.16-10.27C212.39,197.98,202.94,214.81,203.42,206.47z"/>
<path class="st4" d="M210.13,191.91c0.69-2.9-2.13-7.91,1.79-9.06C215.46,183.75,212.81,191.33,210.13,191.91z"/>
<path class="st1" d="M196.5,219.16c0.64-2.48,2.96-3.64,4.32-5.46C202.16,217.07,193.96,229.88,196.5,219.16z"/>
<path class="st1" d="M192.24,213.26c-1.1-0.02-1.67-0.58-1.72-1.67C191.64,211.58,192.21,212.15,192.24,213.26z"/>
<path class="st1" d="M208.42,197.02c-0.28-0.27-0.55-0.53-0.83-0.8C207.87,196.49,208.14,196.75,208.42,197.02z"/>
<path class="st3" d="M187.34,392.22c0.33,0.1,0.49,0.3,0.39,0.65C187.41,392.76,187.25,392.57,187.34,392.22z"/>
<path class="st3" d="M189.06,394.71c0.15,0.23,0.29,0.46,0.44,0.69C189.16,395.28,188.99,395.07,189.06,394.71z"/>
<path class="st1" d="M195.7,403.36c0.41,0,0.61,0.19,0.58,0.6C196.09,403.76,195.89,403.56,195.7,403.36z"/>
<path class="st3" d="M182.98,385.48c0.19,0.21,0.47,0.43,0.06,0.56C182.9,385.87,182.88,385.68,182.98,385.48z"/>
<path class="st3" d="M412.72,73.62c-0.14,2.12-0.26,4.26-0.37,6.42c-0.34,6.83-0.5,13.47-0.51,19.93
	c-2.47,7.65-3.84,14.51-4.64,20.06c-1.25,8.75-1.25,15.64-1.2,18.67c0.12,7.12,0.89,13.34,1.8,18.38c3.51,5.05,2.4,10.68-2.08,14.75
	c-6.2,13.36,17.75,11.46,6.53,33.4c-7.76-2.2-10.88-0.26-16.6,2.29c-3.46-6.27-12.28-5.92-18.62-7.89c-4.41-0.3-7.07-1.31-8.91-2.8
	c-4.85-3.92-5.99-8.79-8.17-12.53c-2.71-4.63-9.23-9.78-26.5-10.89c-2.21-1.49-5.47-3.74-9.38-6.57c-6.94-5.02-6.11-4.78-7.37-5.41
	c-7.44-3.68-11.91,0.91-20.39-3.3c-2.87-1.42-3.26-2.24-6.81-3.73c-6.3-2.64-9.88-2.09-11.21-4.78c-0.76-1.54,0.04-2.48,0.25-6.05
	c0.22-3.89-0.49-7.07-1.09-9.08c-3.52-6.18-6.64-11.33-9.04-15.19c-5.74-9.23-9.44-14.45-13.45-19.39
	c-3.96-4.89-6.07-6.85-8.13-8.44c-4.4-3.42-8.71-5.27-11.67-6.3c-3.6-0.35-6.47-2.82-7.06-5.82c-0.76-3.89,2.37-8.34,7.31-8.91
	c9.45-2.19,16.76-2.5,21.81-2.35c2.76,0.09,6.89,0.37,12.9,0c4.37-0.27,7.94-0.78,10.32-1.17c1.53-0.48,3.43-0.94,5.63-1.17
	c3.09-0.33,5.75-0.1,7.74,0.23c3.2,0.43,6.82,0.71,10.79,0.7c6.14-0.01,11.53-0.74,15.95-1.64c14.21,0.32,29.34,1.12,45.27,2.58
	C382.47,69.16,398.13,71.23,412.72,73.62z"/>
<path class="st5" d="M413.04,137.04c-0.73-9.84-1.03-23.47,0.79-39.92c0.82-5.8,1.55-15.03-0.3-25.99
	c-2.81-16.64-9.42-24.49-5.87-29.85c2.15-3.24,8.35-6.11,28.06-1.67c3.17,13.46,5.86,29.8,6.56,48.45c0.45,12.09,0,23.17-0.92,33.01
	c-0.75,6.68-0.89,16.69,2.81,27.81c1.26,3.77,2.76,7.09,4.29,9.94c-0.27,2.7,0.21,4.73,3.46,4.2c3.23,13.35-24.22,9.86-29.82,17.89
	c-1.85-5.11-4-11.88-5.77-20C415.8,158.46,413.98,149.79,413.04,137.04z M441.04,129.5c0.41-0.61,0.32-0.86-0.41-1.02
	C440.22,129.1,440.31,129.34,441.04,129.5z M421.46,176.34c0.41-0.62,0.32-0.86-0.41-1.03
	C420.63,175.93,420.73,176.18,421.46,176.34z"/>
<path class="st0" d="M412.72,73.62c-33.32-1.71-70.51-8.05-105.26-5.65c-24.22,0.39-38.1,1.94-46.47,3.42
	c-2.08,0.37-9.53,1.74-19.73,2.81c-5.94,0.62-10.84,0.93-14.11,1.09c-1.06-0.88-1.53-1.69-1.47-2.45
	c0.91-12.45,141.89-10.63,152.98-6.09c9.12-0.01,27.82,7.97,32.45-0.23C413.98,62.76,414.23,71.95,412.72,73.62z"/>
<path class="st0" d="M414.43,163.87c3.7-9.99,4.33,11.78,5.21,15.14c2.25,3.35,6.86,2.59,9.44,6.29
	c10.54,5.88-6.58,24.08,8.41,26.21c31.85-7.64,30.92-4.59,1.48,6.33c-1.95,0.99-1.54-1.71-0.63-2.45c-1.63-1.36-4.54,1.33-5.86-1.32
	c-0.38,2.05,8.9,25.33,0.61,17.97c-3.95-3.34-5.64-6.67-9.39-10.46c-0.74-4.91-11.4,3.73-6.65-2.41
	c-0.35-9.79,2.49-23.38,1.38-34.14C412.46,179.99,413.6,171.12,414.43,163.87z M428,193.66c3.98,0.36,2.74-4.39,0.93-6.14
	C424.77,184.55,422.83,194.24,428,193.66z"/>
<path class="st3" d="M445.02,129.78c1.24-6.62-2.58-38.76,1.76-33.67c8.96,7.02,13.35,19.86,23.04,27.69
	c4.97,4.73,6.45,24.7,1.64,9.97c-4.97-12.28-21.12-30.18-18.71-3.8c-1.29,1.67-3.01,4.37-3.76,7.99c-0.94,4.51,0.1,8.19,0.56,9.9
	c1.85,6.82,4.09,17.16,6.91,30.69c-7.31-14.47-9.8-26.69-10.73-34.94C445.54,141.9,443.53,137.73,445.02,129.78z"/>
<path class="st3" d="M438.25,42.97c16.63-1.41,25.37,10.68,3.88,11.18c7.24,3.59,8.6,0.55,9.75,11.8
	C437.38,69.59,440.72,52.65,438.25,42.97z"/>
<path class="st3" d="M453.59,66.79c7.95,3.77,24.01,5.91,19.1,15.52C466.63,79.34,452.7,75.9,453.59,66.79z"/>
<path class="st3" d="M307.99,54.83c-0.69-3.99,6.19-5.63,8.8-3.3C334.38,53.58,316.07,55.86,307.99,54.83z"/>
<path class="st1" d="M413.58,169.83c1.82,2.68-1.83,6.8,1.37,9.71C417.23,188.21,406.87,173.79,413.58,169.83z"/>
<path class="st1" d="M416.98,184.31c4.03,1.06,1.16,6.46,1.68,9.38C416.3,192.84,415.79,186.25,416.98,184.31z"/>
<path class="st3" d="M411.9,96.59c-1.34-2.3-1.36-6.23,0.03-8.51C413.21,90.68,413.23,94.24,411.9,96.59z"/>
<path class="st3" d="M408.46,62.52c0.37-2.46-0.87-5.65,0.84-7.65C410.59,56.86,411.21,62.02,408.46,62.52z"/>
<path class="st3" d="M156.3,110.15c4.39-6.18-4.06,0.26,3.54-13.39c-4.59-3.37-2.41-7.3-2.48-12.91
	c0.71-5.79,19.05-13.15,18.22-4.41c-0.86,0.91-4.56,4.85-1.11,3.72c2.22-3.27,19.51-9.62,14.65-2.27
	c1.64,22.09,2.57,46.24-0.33,69.35c-5.59,12.36-15.72,2.51-24.37-1.78C154.25,139.59,162.88,121.69,156.3,110.15z"/>
<path class="st3" d="M221.9,39.71c31.42-1.39,62.76,1.18,92.77,2.62c2.56,1.85-6.82,1.25-2.55,3.12c5.35,3.03-12.67,2.55-15.94,2.62
	c-6.43,0.62,3.77,4.55,6.08,4.66c2.02,3.56-24.06,4.29-27.97,3.1c-13.94,1.12-28.2,1.45-41.93,4.08
	C219.05,67.84,224.97,47.13,221.9,39.71z"/>
<path class="st2" d="M158.03,108.69c1.07,3.11,2.32,7.83,2.35,13.6c0.04,7.86-2.22,10.5-0.59,16c1.56,5.25,5.3,8.53,8.09,10.97
	c4.71,4.12,9.55,6,12.45,6.88c5.53-2.5,6.99-2.6,7.25-2.19c0.36,0.57-1.43,2.47-3.12,3.55c-4.51,2.89-10.28,1.17-12.36,0.44
	c-2.15-1.73-4.29-3.45-6.44-5.18c-8.67-5.83-5.9,8.79-10.76,12.29c-1.35,2.22,2.81,9.14-1.79,9.29c-5.88-6.26-1.42-16.05-7.88-21.87
	c6.72-12.03-9.25-7.1-3.8-4.71c6.41,12.1-13.02,4.53-7.92-4.32c3.7-7.55,5.81-18.38,11.48-26.22c4.78-2.92,7.49-6.94,5.26-13.27
	c-1-8.45-0.63-12.98,1.11-13.59c0.7-0.25,1.62,0.14,2.76,1.15C155.42,97.23,156.72,102.96,158.03,108.69z"/>
<path class="st0" d="M220.39,170.73c-3.16,12.41-22.86-6.08-30.62-7.73C194.52,155.35,211.84,170.55,220.39,170.73z"/>
<path class="st2" d="M159.83,43.97c14.95-10.65,12.18,8.79,4.32,15.16C169.2,44.65,156.86,56.83,159.83,43.97z"/>
<path class="st2" d="M199.91,168.97c5.64,1.46,15.24,4.7,17.87,8.53C211.76,176.92,203.05,174.01,199.91,168.97z"/>
<path class="st2" d="M222.88,159.61c2.75,10.56-18.19,2.14-9.36,0.04C217.09,161.44,219.32,161.65,222.88,159.61z"/>
<path class="st2" d="M162.4,61.69c1.78,0.66,4.36,0.51,5.15,2.59C165.42,68.29,155.77,65.16,162.4,61.69z"/>
<path class="st2" d="M185.41,156.18c0.14-1.88,3.26-8.38,4.76-4.85C189.13,153.41,187.91,155.47,185.41,156.18z"/>
<path class="st3" d="M191.35,159.59c-1.02,0.91-1.55,2.04-1.58,3.41C184.87,163.33,192.45,152.21,191.35,159.59z"/>
<path class="st2" d="M222.86,137.47c2.69,2.4-0.53,4.89-2.97,3.58C219.76,139.48,221.65,138.26,222.86,137.47z"/>
<path class="st2" d="M194.8,166.39c2.11,0.07,3.96,0.64,5.12,2.59C198.04,169.08,194.98,168.81,194.8,166.39z"/>
<path class="st2" d="M223.71,144.27c0.02,1.42,0.28,3.36-1.64,3.45C221.08,145.22,221.13,145.11,223.71,144.27z"/>
<path class="st2" d="M222.86,118.72c-0.08,1.19,0.43,2.52-0.82,3.42C220.75,120.12,220.87,119.61,222.86,118.72z"/>
<path class="st2" d="M222.04,132.36c0.5,1.49-1.02,2.51-1.3,0.66C220.84,132.46,221.52,132.42,222.04,132.36z"/>
<path class="st3" d="M226.96,39.44c-0.94-0.19-0.66-1.1,0.14-0.89C227.73,38.84,227.53,39.2,226.96,39.44z"/>
<path class="st3" d="M155.84,110.17c-0.36,0.03-0.71,0.05-1.07,0.08C155.07,109.52,155.44,109.66,155.84,110.17z"/>
<path class="st6" d="M472.2,273.75c-15.62-1.03-26.33,10.38-28.58-11.07c-1.77-1.18-2.04,1.84-1.96,2.97
	c-1.19,5.09-4.43-4.64-2.91-6.45c6.54-1.66,6.92-6.8,12.57-8.84c2.8-3.37,6.38,0.76,9.54-1.15c3.06-1.39,5.14-4.71,8.89-4.44
	C469.56,253.66,477.68,267.34,472.2,273.75z"/>
<path class="st6" d="M437.42,216.67c4.08,1.77,20.45-6.65,26.49-9.46c10.85,15.53-9.43,12.76-16.61,20
	c3.97,4.12,11.09-5.15,13.92-0.42c-0.81,7.99-10.13,17-16.66,20.16c-7.52-4.66-11.07-8.79-8.16-17.2c-2.66-3.02,1.27-7.37-2.23-9.63
	C431.16,217.56,435.29,217.13,437.42,216.67z"/>
<path class="st7" d="M453.4,207.52c-10.66,1.71-26.02,11.36-22.19-8.99c9.69-7.13-13.76-19.41-0.12-17.31
	c6.38,3.16,18.48-6.32,19.11,3.38c0.75,8.19,11.93,7.63,10.21,16.85C460.6,204.94,458.53,205.86,453.4,207.52z"/>
<path class="st3" d="M441.71,274.53c6.14-8.97,3.8,10.05,11.23,5.96c0.29,8.01-6.77,14.98-2.87,24.23c0.54,5.02,8.02,2.15,6.86,7.36
	c-11.6-0.75-10.75-13.11-11.89-21.35C439.08,283.29,431.64,281.39,441.71,274.53z"/>
<path class="st0" d="M472.35,470.42c0.92,2.93-2.93,2.73-0.92,5.13c0.09,1.47-1.74,1.93-1.66,3.4c-3.89,2.35-1.41,7.95-6.13,9.25
	c-0.41,0.76,5.03,8.07-0.69,3.99c-0.33-1.32-1.37-1.19-2.22-0.36c-5.47,5.57-6.92-5.61-11.4-6.08c-0.56-10.71,3.3-23.82,9.16-32.61
	c4.52-3.23,4.42,7.83,9.61,8.63C471,463.64,473.13,466.5,472.35,470.42z"/>
<path class="st2" d="M174.04,45.27c-0.17,0.72-0.41,0.82-1.02,0.4C173.18,44.95,173.43,44.85,174.04,45.27z"/>
<path class="st2" d="M425.52,224.31c4.54,2.34,4.28,4.71-0.54,2.67c-14.19,12.36-4.72,64.07-13.09,85.06
	c-4.14-6.21-3.2-2.73-8.76-2.97c-0.03-11.05,3.99-23.23,4.28-34.84c1.01-15.26,1.22-30.87,2.41-46.05
	C417.16,231.7,419.01,224.93,425.52,224.31z"/>
<path class="st3" d="M439.12,254.08c-12.52,4.92-19.3-19.41-6.04-22.04C433.5,237.89,432.74,246.44,439.12,254.08z"/>
<path class="st2" d="M175.95,260.98c0.14,0.95,0.27,1.89-0.69,2.54C174.05,261.98,174.14,261.66,175.95,260.98z"/>
<path class="st3" d="M171.83,299.22c0.87,1.14,0.82,1.28-0.66,1.81C170.96,300.26,171.15,299.65,171.83,299.22z"/>
<path class="st2" d="M450.15,181.77c-5.73-4.31-12.1,2.09-19.06-0.54c-17.58,0.59-4.87-2.62,3.25-5.81
	C445.15,171.64,456.22,164.98,450.15,181.77z"/>
<path class="st2" d="M445.02,129.78c0.51,1.49-0.9,2.58-1.25,0.7C443.86,129.93,444.51,129.86,445.02,129.78z"/>
<path class="st8" d="M428,193.66c-5.17,0.58-3.23-9.11,0.93-6.14C430.74,189.27,431.97,194.02,428,193.66z"/>
<path class="st2" d="M455.23,183.5c1.26,1.15,1.74,2.59,1.6,4.27C452.37,189.16,449.3,182.13,455.23,183.5z"/>
<path class="st3" d="M456.97,187.79c0.57-0.02,1.15-0.05,1.72-0.07C458.16,188.62,457.58,188.61,456.97,187.79z"/>
<path class="st3" d="M455.23,183.5c-2.37,0.07-4.01,0.31-3.13-2.57C453.45,179.17,454.8,182.41,455.23,183.5z"/>
<path class="st9" d="M189.92,260.67"/>
<path class="st1" d="M220.88,233.93"/>
<path class="st2" d="M390.38,513.66"/>
<path class="st7" d="M112.06,116.89"/>
<path class="st10" d="M204.63,375.3c-4.24,10.87,1.8,23.77-1.71,34.96c-4.3-3.55-9.82-8.87-14.94-16.31
	c-4.78-6.94-7.69-13.51-9.49-18.55c0-0.18-0.01-1.75,1.29-2.78c1.08-0.86,2.3-0.74,2.54-0.71c0.26-0.07,0.64-0.13,1.03,0.01
	c1.02,0.37,1.06,1.75,1.71,1.87c0.66,0.11,1.39-1.19,1.5-1.37c1.78-3.1,9.8-7.67,14.17-5.46
	C204.05,368.64,204.54,373.88,204.63,375.3z"/>
<path class="st11" d="M171.66,296.12c-1.4-6.58,7.21-65.09,11.87-38.79c-5.19,2.09-7.26,3.59,0.06,4.68
	c3.45-0.88,3.01,4.19,6.43,3.39c3.48-4.65,6.83-1.76,8.83-5.17c-5.41-2.67,1.59-8,0.6-12.52c0.3-2.44-2.33-2.77-4.23-2.99
	c0.23-2.82,0.34-7.61,3.82-8.11c9.1,28.59,8.81,63.21,7.29,94.92c-1.07,13.31,1.35,33.13-2.25,43.18
	c-2.28-21.34-13.83,6.67-21.76-2.79c-4.77-0.84-0.91,2.72-1.7,4.91c-2.52,3.03,3.25,6.27,1.04,8c-10.76-21.67,2.94-52.45-2.61-76.99
	c-5.58-3.2-2.54-2.12,2.25-5.82C223.52,280.43,177.21,255.48,171.66,296.12z M189.02,266.3c-10.75-0.31-3.1,6.38,3.37,5.01
	C196.94,269.75,192.5,264.98,189.02,266.3z"/>
<path class="st12" d="M171.79,293.12c0.41-5.09,0.66-7.25,1.07-11.75c0.33-3.61,0.8-7.09,1.92-11.03c-0.25-2.57-0.25-5.95,0.66-9.74
	c0.49-2.06,1.38-5.58,4.08-9.24c1.7-2.31,3.4-4.61,6.38-5.75c4.23-1.61,6.5,0.84,9.32-0.91c3.62-2.24,2.75-8.08,3.82-8.11
	c1.5-0.04,3.62,11.59,3.72,24.41c0.02,2.59-0.05,4.74-0.11,6.23c-0.26,6.05-0.65,11.83-3.47,17.97c-1.49,3.24-3.13,5.4-4.6,7.29
	c-4.28,5.53-8.94,9.03-12.16,11.08c-7.74,8.94-10.41,9.56-11.5,8.97C169.38,311.73,170.58,308.27,171.79,293.12z"/>
<path class="st3" d="M278.11,181.86c-0.37,2.2-0.71,5.74,0.12,9.94c0.49,2.5,1.4,7.13,5.16,11.15c2.11,2.25,7.26,6.6,10.19,5.22
	c4.98-2.35,0.76-19.89,0.48-20.99"/>
<path class="st3" d="M389.44,161.54"/>
<polygon class="st5" points="189.33,155.12 208,166.09 217.23,169.62 220.88,169.62 223.13,141.41 223.74,87.21 223.13,53.48 
	222.99,39.41 197.22,39.07 192.26,39.72 191.46,46.8 190.68,64.32 190.52,141.41 "/>
<path class="st2" d="M267.16,373.56c-15.74,7.92-31.48,15.84-47.22,23.77"/>
<path class="st2" d="M360.04,506.78"/>
<path class="st1" d="M309.07,491.45"/>
<path class="st3" d="M397.26,58.65"/>
<path class="st1" d="M277.6,76.71"/>
<path class="st1" d="M284.04,214.94"/>
<path class="st2" d="M258.64,67.41"/>
<path class="st2" d="M108.07,125.1"/>
<path class="st1" d="M473.63,307.11"/>
</svg>
