<?xml version="1.0" encoding="utf-8"?>
<!-- Generator: Adobe Illustrator 26.0.2, SVG Export Plug-In . SVG Version: 6.00 Build 0)  -->
<svg version="1.1" id="Layer_1" xmlns="http://www.w3.org/2000/svg" xmlns:xlink="http://www.w3.org/1999/xlink" x="0px" y="0px"
	 viewBox="0 0 600 600" style="enable-background:new 0 0 600 600;" xml:space="preserve">
<style type="text/css">
	.st0{fill:#161616;}
	.st1{fill:#212121;}
	.st2{fill:#141414;}
	.st3{fill:#2B2B2B;}
	.st4{fill:#3A3A3A;}
	.st5{fill:#4F4F4F;}
	.st6{fill:#1A1A1A;}
	.st7{fill:#3B3B3B;}
	.st8{fill:#575757;}
	.st9{fill:#4E4E4E;}
	.st10{fill:#C91600;}
	.st11{fill:#E90D00;}
</style>
<path class="st0" d="M136.02,359.44c2.54,25.94,7.12,52.35,12.64,77.49c13.64,18.83,4.55,27.11,9.43,40.35
	c5.25,4.56,10.83,0.82,16.13,3.28c0.2,0.42,0.34,0.49,0.43,0.48c1.22-0.12,0.83-16.67,0.26-27.75c-0.55-10.73-1.13-13.92-0.05-14.27
	c2.94-0.95,10.77,21.32,20.36,31.35c0.73,0.76,2.86,3.24,4.97,6.96c1.12,1.97,2.1,4.65,2.66,8.96c2.01,5.79,14.81-1.71,19.31,2.69
	c2.91,2.95,2.59,5.98,6.04,8.22c10.78,2.9,65.9,17.6,113.77,25.61c33.62,5.62,41.75,4.28,48.58,1.88
	c8.48-2.98,16.61-8.18,28.03-6.05c6.1,1.13,15.35,4.77,16.33,10.75c1.23,7.51-11.17,15.08-18.54,19.48
	c-23.18,13.84-46.02,16.22-53.51,16.9c-1.13,0.1-4.38,0.43-10.03,0.67c-29.37,1.27-41.24-2.88-70.46-4.84
	c-31.54-2.11-40.82,1.2-64.49-5.52c-7.16-2.03-12.93-4.2-16.76-5.75c-3.26-1.98-5.21,0.78-4.53,3.76
	c-10.35-3.11-18.42-7.11-24.07-10.38c-6.42-3.71-19.42-11.39-30.28-26.05c-4.72-6.37-7.03-11.37-8.92-15.49
	c-3.84-8.4-4.83-13.88-4.5-19.09c0-0.08,0.01-0.14,0.01-0.15c0.77-11.45,1.2-28.65,0-55.16c0-53.98,0-107.96,0-161.95
	c0-2.19,0.01-4.38,0-6.57c-0.01-1.77,0-3.24,0-4.22c0-6.49,0-12.99,0-19.48c0-5.79,0-11.58,0-17.37c0-6.26,0-12.52,0-18.78
	c0-4.46,0-8.92,0-13.38c0-3.99,0-7.98,0-11.97c0-8.45,0-16.9,0-25.35c0-22.77,0-22.77,0-22.77c-0.18-9.78-0.45-12.74,0-19.01
	c0.22-3.04,0.5-5.21,0.5-9.15c0.01-6.41-0.71-6.52-0.33-10.58c0.41-4.42,1.63-8.25,2.66-11.49c0,0,0.75-2.36,1.66-4.69
	c2.19-5.6,9.29-17.63,20.08-32.6c9.92,0.84,17.96,1.06,23.41,1.11c5.88,0.05,9.26-0.1,19.38-0.25c9.01-0.13,16.29-0.17,20.92-0.17
	c3.75-0.69,9.69-1.63,17.02-2.1c16.75-1.08,26.29,1.23,43.77,2.34c18.36,1.17,16.71-0.82,30.51,0.23
	c36.38,2.77,39.77,15.92,61.96,12.91c19.61-2.66,21.77-13.58,41.54-13.14c9.31,0.2,15.75,2.78,26.6-0.3
	c4.48-1.27,8.37-3.13,13.54-1.81c6.4,1.64,10.21,6.99,11.14,8.29c2.73,3.83,1.84,5.04,5.46,14.97c2.38,6.5,3.79,9.25,5.69,13.83
	c2.71,6.51,5.84,16.45,7.24,30.99c-0.35,143.23-0.46,199.42-0.46,214.98c0,4.12,0,8.24,0,12.36c0,14.19,0,28.37,0,42.56
	c0,25.97-0.03,51.95,0,77.92c0,3.59,0.01,5.17,0,7.98c-0.03,10.36-0.18,13.93-0.11,21.6c0.06,6.8,0.19,6.25,0.15,8.44
	c0,0-0.29,12.87-5.63,24.88c-5.13,11.53-17.99,17.45-42.25,27.23c-35.66,14.36-58.1,23.32-59.92,19.76
	c-2.13-4.19,29.29-15.99,38.09-46.28c0.96-3.32,4.94-19.11-2.11-27.23c-4.44-5.11-14.19-3.33-26.05-1.17
	c-12.94,2.35-23.66,6.61-31.92,10.8c-38.42,46.41-104.05,58.41-153.5,30.28c-54.4-30.96-76.24-103.13-45.77-162.42
	C146.73,364.45,141.37,361.94,136.02,359.44z"/>
<path class="st1" d="M418.31,214.87l0.73,60.78l1.09,74.53v56.91v62.92c0,0-0.21,1.23,5.06,4.05c5.27,2.82,16.91,4.47,27.05,11.47
	c10.14,7,12.02,6.94,17.96,4.46c5.95-2.48,7.2-2.1,6.88-10.74c-0.31-8.64,0.04-56.52,0.04-56.52V197.96c0,0,1.52-5.35-4.43-4.35
	c-5.95,0.99-10.83,0.97-14.78,7.25s-14.58,9.85-25,11.5S418.31,214.87,418.31,214.87z"/>
<path class="st2" d="M423.32,219.59c0.85-2.22,5.46-1.08,12.3-2.44c10.96-2.17,14.32-8.13,18.24-6.17c3.15,1.57,1.18,5.52,4.45,12.4
	c0,0,2.03,4.28,17.85,17.31l0,0l0,0l1.66,29.74c0,0,2.26,5.99,1.02,6.68c-0.34,0.19-0.82-0.08-1.02-0.19
	c-21.24-12.11-28.27-19.11-28.27-19.11c-7.51-7.48-13.07-13.01-16.59-20.03c-1.66-3.32-2.47-6.16-5.63-10.95
	C424.56,222.66,422.73,221.13,423.32,219.59z"/>
<path class="st1" d="M194.05,228.54c10.34-1.78,0.86,11.18,14.48,15.61c2.89,2.11-1.38,5.3-2.53,6.91
	c-2.67,3.65,5.75,10.59,4.61,19.28c-0.15,1.01-1.66,13.06-0.29,11.85c16.38-8.98,4.89,5.55,14.65,9.33c2.02,0.29,2.45,2.94,3.4,4.68
	c8.77-2.62,3.12,3.46,8.53,4.19c4.8,4.57,3.05,5.64,8.96,0.15c3.88-2.45,9.39-0.82,12.61-1.61c2.75-4.48,11.57-7.78,16.46-9.97
	c10.29,5.24,8.5,2.11,18.63,2.18c12.03,2.66,21.43,1.52,33.17,1.26c21.9-3.78,13.97,20.04,12.05,32.23
	c3.44,18.33,0.43,34.27,6.58,47.25c-6.98-0.41-14.77-0.52-23.23-0.08c-8.33,0.43-15.96,1.32-22.77,2.43
	c-9.49-7.61-18.99-15.23-28.48-22.84c5.13,3.38,11.33,8.14,17.52,14.71c7.71,8.17,12.74,16.29,15.96,22.53
	c-9.19,5.27-10.65,8.36-10.29,10.21c0.3,1.54,1.83,2.12,3.72,5.12c1.59,2.53,2.28,4.94,2.61,6.47c-0.09,1.09-1.01,3.61-2.65,6.68
	c-1.16,2.17-2.75,3.85-5.23,3.74c-19.42-6.52,0.55-38.49-47.86-23.6c-21.97,9.47-29.86-16.05-30.57,1.06
	c-6.74,5.01-12.01,6.68-15.8,5.01c-9.21-4.06-9.75-27.78-1.64-71.16C198.91,298.69,198.19,260.49,194.05,228.54z"/>
<path class="st3" d="M414.69,550.62c-8.13,8.21-21.75,4.75-30.71,11.02c-0.25-1.39,0.83-11.66,3.31-8.03
	c6.57,10.91,16.74-23.23-8.79-15.84c-2.54-0.84-7.63-1.41-11.39-0.21c-10.36-6.21-19.22-10.4-25.53-13.12
	c-14.01-6.04-26.05-9.42-26.53-16.02c-0.1-1.45,0.37-2.67,0.78-3.45c1.05,0.56,7.8,3.99,15.14,1.01c4.06-1.65,6.44-4.49,7.48-5.95
	c2.19,5.19,6.83,13.85,15.65,16.9c1.73,0.6,3,0.77,14.08,0.63c20.33-0.26,24.03-0.92,26.15-1.36c3.77-0.78,9.15-2.22,15.4-5.05
	c-0.59-2.14-1.17-5.24-0.87-8.91c0.31-3.84,1.37-5.68,0.31-6.88c-1.31-1.49-4.42-0.36-9.08,0.63c-4.39,0.93-8.93,0.95-13.37,1.62
	c-12.01,1.79-31.58,0.16-34.71-0.09c-30.76-2.47-70.03-0.63-77.11-0.27c-15.07,0.76-27.43,1.98-40.37-3.76
	c-2.09-0.93-4.94-2.36-17.21-8.14c-7.23-3.4-13.18-6.17-17.15-8.01c-1.89-4.18-4.34-10.66-5.54-18.98c-0.37-2.58-0.43-3.96-0.6-5.63
	c-1.3-12.9-6.89-17.89-8.78-25.9c-3.18-13.45,8.28-17.54,8.8-36.29c0.27-9.94-2.76-15.78-5.2-23.49
	c-11.71-36.89,8.27-58.95,5.01-122.99c-0.28-5.53-0.67-9.99-0.91-12.58c0.08-2.99,0.36-7.38,1.38-12.61
	c0.74-3.8,1.05-3.88,2.58-10.09c2.22-9.02,2.58-13.15,3.99-13.14c1.22,0,1.98,2.25,3.76,4.69c3.6,4.98,8.9,6.85,14.32,8.68
	c22.22,7.53,49.52,9.39,49.52,9.39c9.19,0.63,29.36,1.92,57.72,2.64c0,0,16.4,0.42,38.98-1.5c1.89-0.16,10.47-0.94,21.12-4.19
	c12.92-3.94,16.2-7.65,17.37-9.15c5.25-6.73,3.78-14.48,5-14.51c1.76-0.06,4.7,16.21,5.8,40.8c0.77,17.21,0.25,29.86,0,36.93
	c-0.52,14.97-0.35,34.39,0,73.23c0.43,47.38,1.61,47.29,0.94,70.41c-0.17,5.9-0.61,18.42-0.31,35.68
	c0.2,11.56,0.66,21.08,1.04,27.45c-1.46,8.35,4.56,16.81,1.02,24.64c-6.39,10.56,2.81,11.76-6.71,24.83
	C406.23,533.93,420.23,540.89,414.69,550.62z M367.83,330.52c-0.56-4.05-6.83-31.09-11.93-19.24c0.67,5.4-8,0.18-7.5,5.04
	c-3.83,18.46-0.44,33.95,7.64,50.91c-2.6,9.7,4.4,1.64,9.45,2.05C379.29,356.55,364.53,345.32,367.83,330.52z"/>
<path class="st1" d="M196.58,554.06c-0.03-1.4,0.1-2.67,0.34-3.81c2.29-10.92,15.17-16.04,17.77-17.02
	c15.24-5.57,25.78-14.7,25.69-24.04c-0.01-1.38-0.26-2.9-0.89-4.55c-3.75-5.5-11.04-4.96-14.48-10.52
	c-6.83-1.9-13.65-3.79-20.48-5.69c-3.34-10.5-6.97-23.36-4.72-24.38c2.03-0.92,6.98,8.62,14.08,15.65
	c8.12,8.03,22.87,16.58,51.95,16.27c12.01-0.88,24.32-1.62,36.93-2.19c15.33-0.69,30.25-1.09,44.75-1.25
	c14.72-2.09,26.48-3.5,34.1-4.37c17.8-2.03,21.83-2.08,27.23-5.65c12.61-8.33,15.66-24.58,17.72-23.83c0.97,0.35,0.48,4-0.2,9.12
	c-1.02,7.7-1.53,11.54-3.68,15.14c-3.33,5.6-8.45,8.15-13.22,10.52c-5.8,2.88-10.75,3.76-14.4,4.38c-4.06,0.69-9.8,0.64-21.28,0.55
	c-9.02-0.07-13.54-0.11-15.08-0.46c-3.1-0.7-5.49-1.66-6.7-0.45c-1.52,1.52,1,4.33,0.5,9.74c-0.44,4.77-2.74,6.29-1.7,8.23
	c0.69,1.28,2.3,1.72,9.84,2.14c8.35,0.46,12.53,0.69,16.27,0.27c6.75-0.76,9.25-2.16,10.31-0.87c0.92,1.11,0.61,4.05-5.62,12.45
	c0.73,1.98,1.46,3.96,2.19,5.95c30.14,1.91,45.38,5.02,45.73,9.32c0.41,5.18-20.75,12.08-63.49,20.72c-9.39,0.34-19,0.56-28.8,0.64
	c-16.76,0.13-32.97-0.16-48.56-0.79c-16.62-0.63-29.28-2.31-37.89-3.76c-4.05-0.68-12.2-2.16-24.25-3.96
	c-5.86-0.88-10.69-1.18-16.01-2.14C204.57,554.34,199.64,554.11,196.58,554.06z"/>
<path class="st4" d="M403.59,118.4c-0.19,17.5-2.42,35.2,0.02,51.34c0.26,4.05,0.52,8.1,0.77,12.16c0.2,2.58,0.32,8.82-3.5,14.9
	c-7.26,11.55-21.83,11.52-22.77,11.5c-11.13,1.47-23.13,2.63-35.91,3.29c-16.39,0.84-31.64,0.71-45.53,0
	c-8.48-0.88-17.61-2.21-27.27-4.17c-16.15-3.28-30.44-7.64-42.67-12.18c-5.06-3.87-10.52-9.23-14.85-16.57
	c-16.74-28.36-2.05-61.42,0.06-66c-1.58-9.4,4.09-17.03,3.65-25.86c-1.13-3.28-2.06-7.83-0.43-12.33
	c1.89-5.24,10.5-19.4,103.54-18.39c21.59,0.24,50.65,1.32,85.14,4.9C403.76,80.12,403.68,99.26,403.59,118.4z"/>
<path class="st1" d="M217.04,75.13c-8.94-3.16-0.35,9.52-1.26,14.5c-5.03,14.47-3.79,27.79-3.85,42.6
	c-3.71,1.74,4.55,1.58-2.15,8.69c8.27-0.36,0.76,2.87,2.18,6.68c0.25,7.41,2.02,17.61-8.55,11.94c-8.22,2.58,5.68,4.92,7.68,5.93
	c5.67,11.73-30.28-4.72-30.49-8.93c-6.73,6.59,2.8,6.33,5.3,11.66c5.13,1.81,9.61,5.46,15.18,8.23c12.9,1.09,6.32,5.81-0.85,7.53
	c-1.81,3.76,2.23,9.66-2.77,12.15c-1.31,0.66,0,1.82-0.44,2.54c-4.14,11.13-4.58,7.95-10.43,1.75c-7.99-2.38-16.08-10.9-23.02-4.23
	c-9.84,7.36,7.76,9.58,11.74,13.6c-1,1.83,2.03,4.53,4.01,5.1c3.76,2.42,5.08,3.51,4.94,3.78c-0.68,1.28-35.87-14.09-34.49-18.62
	c0.29-0.96,2.18-1.3,4.34-1.37c3.15-1.65,8.57-5.04,13.17-11.25c3.39-4.59,5.11-9.05,6-12.1c-35.05,0.96-43.6-2.58-44.45-6.2
	c-0.11-0.46-0.02-0.63,0-9.39c0.01-3.44,0-6.46,0-7.51c-0.06-13.38-1.52-18.71-0.04-19.25c1.37-0.5,2.68,4.12,8.76,9.7
	c5.35,4.91,11.13,7.56,14.07,8.88c2.86,1.28,5.34,2.13,7.15,2.68c10.65,10.44,23.34,1.99,20.8-10.76
	c-0.66-17.14,4.12-34.2-0.74-51.06c1.79-19.65,2.84-17.94-15.64-9.13c8.99-12.61-13.63-8.05-15.98,0.43
	c0.11,5.66-2.14,9.52,2.49,12.92c0.47,3.83-6.22,5.8-2.49,10.17c1.62,2.75-2.52,2.96-3,3.46c0.14-9.89-0.07-20.59-1.11-30.71
	c3.57-9.1-0.09-32.69,6.57-35.75c-2.8,9.9,4.01,4.23,5.88,9.09c-3.36,10.81-11.09,16.27,5.61,10.69c5.94-2.57,20.77,5.79,19.77-5.24
	c0.71-8.61-2.02-21.52,9.69-19.24c27.23-2.93,18.61,1.29,25.15,23.21c24.68-9.34,52.06-3.6,77.06-8.29
	c17.01-2.13,29.21,8.15,45.42,7.81c4.5,2.49,9.21-3.79,13.9-1.63c1.73,1.48,2.25,2.5,2.01,3.19c-0.66,1.94-7.78,0.99-8.98,0.85
	C338.08,63.45,307.41,65.4,217.04,75.13z M196.18,39.25c0.57-0.24,0.77-0.59,0.14-0.89C195.52,38.15,195.25,39.05,196.18,39.25z"/>
<path class="st4" d="M297.94,54.65c-1.46-0.44-6.45-3.1-13.68-5.89c-10.2-3.94-19.04-6.36-25.44-7.87
	c-12.09-2.13-24.02-2.71-36.55-2.16c7.34-2.61,16.77-1.24,24.83-2.57c47.57-2.57,107.88-6.47,150.57,5.78
	c0.84,2.13,1.92,5.21,2.74,9.03c0.74,3.42,1.69,8.29,1,10.62C397.49,74.96,321.91,61.86,297.94,54.65z"/>
<path class="st0" d="M464.63,285.42c-0.61-0.41-0.86-0.32-1.02,0.4C464.23,286.24,464.47,286.15,464.63,285.42z"/>
<path class="st4" d="M128.82,125.91c-0.73-0.26-0.26-2.93,0-7.75c0.18-3.43-0.02-2.79,0-11.27c0.01-3.94,0.06-9.57,0.27-16.66
	c0.59-6.51,2.2-16.04,6.83-26.66c4.57-10.48,10.36-18.09,14.67-22.93c-2.38,7.77-4.6,17.19-5.85,28.02
	c-0.92,8.01-1.14,15.35-0.99,21.8c-5.64-2.73-3.78,5.74-4.38,9.63c2.11,7.09,2.27,13.63-4.57,16.98
	C130.91,124.68,129.43,126.13,128.82,125.91z"/>
<path class="st5" d="M443.64,66.62c-3.95-0.96-1.26-9.77-5.48-10.97c-1.93-0.43-5.27,0.83-5.99-1.68
	c23.57-1.71,10.58-11.44-4.72-12.06c-3.61-4.94,10.13-3.41,14.53-5.13c8.97-4.19,18.23,2.12,22.02,10.28
	C452.88,62.36,479.64,84.54,443.64,66.62z"/>
<path class="st4" d="M182.13,39.53c-1.86,21.48,3.83,26.55-20.98,24.03c-16.62,1.02,1.56-11.28-0.55-20.68
	c-1.17-4.57-9.11-0.46-11.57,0.76C153.17,31.15,171.78,40.92,182.13,39.53z M163.89,45.08c-0.61-0.42-0.85-0.32-1.02,0.4
	C163.49,45.91,163.73,45.8,163.89,45.08z"/>
<path class="st4" d="M415.6,517.42c2.4,3.45,0.94,8.95,1.73,13.27c9.82,5.42,6.54,14.79-2.65,19.92
	C419.53,538,401.16,528.38,415.6,517.42z"/>
<path class="st5" d="M139.89,55.97c-2.06,5.06-4.07,10.66-5.89,16.77c-2.4,8.08-4.05,15.63-5.17,22.42
	c0.09-5.71,0.82-13.5,3.55-22.3C134.54,65.9,137.36,60.24,139.89,55.97z"/>
<path class="st4" d="M425.77,39.41c4.75,5.5-22.4-1.68-28.08,1.67C398.11,34.74,418.61,39.97,425.77,39.41z"/>
<path class="st5" d="M142.94,51.37c-0.35,2.81-1.58,6.31-4.06,7.65C140.08,56.39,141.09,53.65,142.94,51.37z"/>
<path class="st5" d="M212.88,39.22c3.09,0.72,6.47-1.42,9.38-0.5C219.78,39.27,214.09,41.69,212.88,39.22z"/>
<path class="st4" d="M190.13,38.5c1.8,0.43-0.73,1.06-1.47,0.85C180.03,39.83,183.8,37.9,190.13,38.5z"/>
<path class="st5" d="M211.79,39.52c-8.42,0.13-8.27-1.42,0.06-0.91C212.89,38.84,213.14,39.74,211.79,39.52z"/>
<path class="st4" d="M204.25,38.55c0.38,1.29-2,0.99-2.49-0.01C202.59,38.27,203.42,38.31,204.25,38.55z"/>
<path class="st4" d="M148.01,44.86c-0.08,0.36-0.32,0.5-0.68,0.46C147.4,44.94,147.62,44.78,148.01,44.86z"/>
<path class="st5" d="M464.27,47.8c-0.27-0.15-0.35-0.37-0.24-0.66C464.23,47.37,464.62,47.5,464.27,47.8z"/>
<path class="st4" d="M290.01,288.3c-1.38,0.61-4.29,1.66-7.89,1.12c-6.83-1.03-10.25-6.91-10.7-7.72
	c-4.94-2.98-12.18-8.2-18.4-16.69c-9.13-12.46-17.42-33.81-9.72-40.83c6.62-6.04,22.33,1.06,26.31,2.96
	c18.98,3.9,23.62,6.67,23.53,8.6c-0.12,2.54-7.29,3.53-7.26,5.48c0.04,2.11,8.51,4.63,39.43,7.2c5.09-1.55,8.78-0.96,10.95-0.31
	c10.46,3.11,17.81,17.08,17.11,34.71c-14.27,5.06-31.07,0.02-45.05,5.5C304.51,287.45,289.96,278.63,290.01,288.3z"/>
<path class="st4" d="M377.14,397.11c0.56,7.87,0.27,14.37-0.14,19.08c-0.4,4.55-0.94,7.69-2.41,11.14
	c-1.71,3.99-3.15,7.38-6.36,8.78c-4.81,2.09-8.67-2.39-12.4,0.03c-2.49,1.61-3.63,5.48-2.45,7.13c1.55,2.16,6.38-0.51,8.55,1.69
	c1.1,1.12,1.69,3.65-0.94,10.01c-1.23,5.83-2.46,11.67-3.7,17.5c0.76,3.01,1.53,6.01,2.29,9.02c-7.66,0.04-18.36-0.48-30.82-3.05
	c-8.37-1.73-17.57-5.35-35.99-12.52c-18.06-7.03-22.23-9.44-26.29-13.77c-6.24-6.66-8.86-14.29-10.08-19.46
	c-3.56-4.72-4.34-9.02-4.55-11.12c-0.36-3.56,0.47-6.54,2.13-12.51c1.52-5.45,2.75-7.31,3.43-8.23c1.16-1.57,2.99-4.05,5.95-5.01
	c4.88-1.58,10.51,1.74,13.56,5.14c5.32,5.94,2.34,11.93,5.26,17.29c2.87,5.28,11.38,9.88,35.32,7.92
	c8.37,3.56,15.39,2.99,17.29-0.24c0.93-1.58,0.7-3.9-0.25-5.56c-2.2-3.85-7.67-3.08-13.6-5.15c-3.7-1.29-8.62-4.04-13.51-10.57
	c-7.88-6.95-16.29-13.73-23.92-21.65c-7.53-7.82-15.05-15.82-23.86-22.79c-6.53-6.37-14.5-10.38-21.29-15.89
	c-7.24-7.4-8.62-15.44-5.73-18.47c2.32-2.44,7.23-1.45,8.83-1.07c5.97,4.15,12.53,8.39,19.68,12.59c6.9,4.05,13.57,7.6,19.89,10.72
	c11.03,7.3,20.43,12.76,27.26,16.54c6.66,3.69,10,5.53,13.83,7.17c11.9,5.08,16.91,4.56,26.67,9.31c3.41,1.66,8.43,4.47,14.04,9.14
	c0.91,1.41,2.27,3.74,3.49,6.81c1.64,4.16,1.83,6.13,3.13,6.57C370.66,404.07,372.87,403.07,377.14,397.11z"/>
<path class="st4" d="M367.83,330.52c0.67,4.51,1.43,9.15,2.31,13.9c0.81,4.43,1.68,8.74,2.58,12.91c-0.01,1.16-0.2,4.51-2.58,7.75
	c-2.22,3.01-5.07,4.21-6.18,4.61c-7.04,3.88-8.91,4.12-9.31,3.6c-0.31-0.41,0.35-1.26,0.47-3.29c0.07-1.22-0.1-2.21-0.23-2.82
	c-3.06-7.32-6.74-17.11-9.6-27.85c-2.13-8.02-2.38-11.22-0.88-13.93c1.11-2.01,4.03-5.3,4.01-9.1c0-0.48-0.07-1.08,0.33-1.58
	c1.56-1.95,7.73,1.12,7.16-3.46C361.01,299.35,367.26,326.56,367.83,330.52z"/>
<path class="st4" d="M395.95,220.85c0.54,0.88,1.34,2.29,2.13,4.1c6.21,14.24,0.13,27.11-3.68,48.78
	c-0.99,5.64-2.17,13.8-2.69,23.87c-0.84,0.59-2.34,1.43-4.27,1.45c-3.33,0.05-6.53-2.34-8.15-6.03c-2.02-0.73-4.8-1.39-7.98-0.94
	c-5.14,0.72-8.07,3.89-10.61,2.55c-1.35-0.71-1.88-2.31-2.11-3.32c1.12-5.27,3.11-12.05,6.78-19.42
	c4.41-8.85,9.66-15.36,13.77-19.72c2.92-5.17,5.85-10.47,8.77-15.92C390.69,231.06,393.37,225.92,395.95,220.85z"/>
<path class="st1" d="M194.03,427.09c-0.11,46.9-9.65-6.99-7.57-22.22C195.26,408.95,193.52,418.92,194.03,427.09z"/>
<path class="st4" d="M260.45,433.11c14.6,5.08,28.01,16.34,41.78,23.8c-4.55-1.31-11.61,3.75-14.38,0.27
	c-0.21-5.89-8.65-6.65-12.37-10.36C271.25,441.28,265.09,437.67,260.45,433.11z"/>
<path class="st4" d="M405.25,293.28c10.24,8.73,2.46,14.22-0.86,23.38c1.07,3.37-0.08,6.99-1.69,9.88
	c-1.32-0.96-0.28-3.46-2.47-3.41C401.54,313.11,403.2,302.97,405.25,293.28z"/>
<path class="st4" d="M311.55,461.25c11.74,1.49,17.78,14.99,29.01,17.84C331.6,480.79,316.77,468.8,311.55,461.25z"/>
<path class="st4" d="M445.41,358.98c-1.88,17.04-6.73-8.44-1.74-13.69C445.49,348.78,440.38,357.46,445.41,358.98z"/>
<path class="st4" d="M305.61,458.66c1.87,0.1,2.98,1.48,4.28,2.55C308.32,463.14,305.08,460.81,305.61,458.66z"/>
<path class="st4" d="M257.03,431.43c1.27-0.11,2.11,0.48,2.6,1.63C258.41,433.08,257.19,433.1,257.03,431.43z"/>
<path class="st1" d="M187.92,394.26c0,1.01-0.06,6.98,0.31,15.11c0.22,4.8,0.59,10.45,1.25,16.81c2.19,21.06,6.26,38.02,9.39,49.13
	c-4.55-1.65-11.49-3.42-19.56-2.27c-3.38,0.48-6.41,2.82-20.5,7.9c-14.37,5.18-16.59,10.33-20.34,8.76
	c-7.25-3.02-3.57-24.09-2.19-52.57c0.9-18.55-0.55-37.13-0.63-55.7c-0.36-90.4,0.23-123.29-0.63-138.63
	c-0.37-6.67,0.06-13.36-0.31-20.03c-0.44-8.01-1.02-11.32,0.63-12.2c3.11-1.68,8.68,8.34,21.28,13.77
	c5.87,2.53,11.29,3.21,14.99,3.39c6.63-0.23,13.25-0.47,19.88-0.7c0.06,0.09,0.14,0.21,0.23,0.36c3.26,5.18,4.55,12.9,2.14,16.67
	c-2.98,4.66-10.21,1.08-15.33,3.76C157.39,258.82,188,367.61,187.92,394.26z"/>
<path class="st1" d="M211.91,177.35c4.06,4.36,9.64,9.47,17.01,14.13c13.26,8.38,26.04,11.35,34.11,12.52
	c9.69,0.98,24.09,2.32,41.62,3.44c35.57,2.28,57.28,1.98,57.29,2.7c0,0.81-27.57,2.24-58.86,1.72c-18.41-0.31-33.57-1.21-43.8-1.96
	c-4.52-0.28-11.11-0.95-18.9-2.66c-13.59-3-22.27-4.91-26.7-12.05C212.4,193.13,209.5,187.46,211.91,177.35z"/>
<path class="st4" d="M211.91,177.35c-8.23,5.5-0.69-6.16-0.43-9.42c1.38-7.95-0.41-16.67,2.12-23.77c0.5-4.7-5-30.4,0.59-32.57
	c1.26-0.49,2.68,0.38,3.26,0.72c4.6,2.73,3.08,10.12,5.21,21.9c0.76,4.23,1.79,7.9,2.82,10.95c3.21,10.01,1.71,17.37,0.63,20.97
	c-1.54,5.12-5.42,13.1-8.9,12.66c-1.79-0.23-3.02-2.64-3.82-4.93C211.44,173.98,212.08,176.06,211.91,177.35z"/>
<path class="st3" d="M198.2,287.37c-4.86-3.02-3.83-73.52-12.71-42.06c-3.36-3.85-5.34,1.28-9.74,0.28
	c-5.31-0.99-4.42,6.05-7.83,8.88c-6.27,9.41,4.66-16.28,8.55-20.29c5.77-5.64,6.95,11.12,10.73-3.46
	C202.58,224,195.73,274.86,198.2,287.37z"/>
<path class="st3" d="M185.51,219.15c-1.71-4.72-11.24-3.82-10.21-9.37C177.95,210.01,191.15,215.65,185.51,219.15z"/>
<path class="st5" d="M193.29,206.39c2.55-3.03,2.97-7.09,4.16-10.27C202.27,197.9,192.81,214.75,193.29,206.39z"/>
<path class="st5" d="M200.01,191.83c0.69-2.9-2.13-7.92,1.79-9.07C205.34,183.66,202.69,191.25,200.01,191.83z"/>
<path class="st1" d="M186.37,219.1c0.64-2.48,2.96-3.64,4.33-5.46C192.03,217.01,183.83,229.83,186.37,219.1z"/>
<path class="st1" d="M182.11,213.2c-1.1-0.02-1.67-0.58-1.72-1.67C181.51,211.51,182.07,212.08,182.11,213.2z"/>
<path class="st1" d="M198.29,196.94c-0.28-0.27-0.55-0.53-0.83-0.8C197.74,196.41,198.02,196.68,198.29,196.94z"/>
<path class="st4" d="M177.2,392.28c0.33,0.1,0.49,0.3,0.39,0.65C177.28,392.82,177.11,392.63,177.2,392.28z"/>
<path class="st4" d="M178.92,394.77c0.15,0.23,0.29,0.46,0.44,0.69C179.03,395.34,178.86,395.13,178.92,394.77z"/>
<path class="st1" d="M185.57,403.43c0.41,0,0.61,0.19,0.58,0.6C185.96,403.83,185.76,403.63,185.57,403.43z"/>
<path class="st4" d="M172.84,385.53c0.19,0.21,0.47,0.43,0.06,0.57C172.76,385.92,172.74,385.74,172.84,385.53z"/>
<path class="st2" d="M403.06,136.92c-0.73-9.85-1.03-23.49,0.79-39.95c0.82-5.8,1.55-15.04-0.3-26.01
	c-2.81-16.66-9.43-24.51-5.87-29.87c2.15-3.24,8.36-6.11,28.08-1.67c3.17,13.47,5.86,29.82,6.56,48.48c0.45,12.1,0,23.18-0.92,33.04
	c-0.75,6.69-0.89,16.7,2.81,27.83c1.26,3.78,2.76,7.09,4.3,9.94c-0.27,2.7,0.21,4.73,3.46,4.2c3.23,13.36-24.24,9.87-29.84,17.9
	c-1.85-5.11-4-11.89-5.77-20.01C405.83,158.35,404,149.68,403.06,136.92z M431.08,129.37c0.41-0.61,0.32-0.86-0.41-1.02
	C430.26,128.97,430.36,129.21,431.08,129.37z M411.49,176.25c0.41-0.62,0.32-0.86-0.41-1.03
	C410.66,175.84,410.76,176.08,411.49,176.25z"/>
<path class="st0" d="M402.75,73.46c-33.34-1.71-70.56-8.06-105.34-5.66c-24.24,0.39-38.13,1.94-46.51,3.42
	c-2.08,0.37-9.54,1.74-19.75,2.81c-5.94,0.62-10.84,0.93-14.12,1.1c-1.06-0.88-1.53-1.69-1.48-2.46
	c0.91-12.46,141.99-10.64,153.09-6.09c9.13-0.01,27.84,7.97,32.48-0.23C404.01,62.59,404.26,71.78,402.75,73.46z"/>
<path class="st0" d="M404.45,163.77c3.7-10,4.33,11.79,5.21,15.15c2.25,3.35,6.86,2.6,9.45,6.29c10.55,5.88-6.59,24.09,8.41,26.22
	c31.87-7.64,30.94-4.6,1.48,6.34c-1.96,0.99-1.54-1.71-0.63-2.45c-1.63-1.36-4.54,1.33-5.87-1.32c-0.32,1.7,6.01,18,3.46,19.33
	c-0.17,0.09-0.91,0.37-2.85-1.34c-7.4-6.54-5.02-18.1-9.25-33.32c-0.88-3.17-2.47-8.01-5.42-13.72
	C402.48,179.9,403.62,171.02,404.45,163.77z M418.03,193.58c3.98,0.36,2.74-4.39,0.93-6.14
	C414.8,184.46,412.86,194.16,418.03,193.58z"/>
<path class="st4" d="M435.06,129.65c1.24-6.62-2.59-38.79,1.77-33.7c8.97,7.02,13.36,19.87,23.06,27.71
	c4.98,4.73,6.46,24.71,1.64,9.98c-4.97-12.29-21.13-30.2-18.72-3.8c-1.29,1.68-3.01,4.38-3.76,7.99c-0.94,4.51,0.1,8.19,0.56,9.91
	c1.85,6.82,4.09,17.17,6.91,30.71c-7.31-14.48-9.8-26.71-10.74-34.96C435.59,141.78,433.58,137.61,435.06,129.65z"/>
<path class="st4" d="M428.29,42.78c16.64-1.41,25.38,10.69,3.88,11.19c7.25,3.59,8.61,0.55,9.76,11.81
	C427.42,69.42,430.76,52.47,428.29,42.78z"/>
<path class="st4" d="M443.64,66.62c7.95,3.78,24.03,5.92,19.11,15.53C456.69,79.18,442.75,75.74,443.64,66.62z"/>
<path class="st1" d="M403.6,169.73c1.82,2.68-1.83,6.8,1.37,9.71C407.26,188.12,396.89,173.69,403.6,169.73z"/>
<path class="st1" d="M407.01,184.22c4.03,1.06,1.16,6.46,1.69,9.39C406.32,192.76,405.81,186.17,407.01,184.22z"/>
<path class="st4" d="M401.93,96.44c-1.34-2.3-1.36-6.24,0.03-8.52C403.23,90.53,403.25,94.08,401.93,96.44z"/>
<path class="st4" d="M398.48,62.35c0.37-2.46-0.87-5.65,0.84-7.66C400.61,56.68,401.23,61.84,398.48,62.35z"/>
<path class="st4" d="M146.14,110.01c4.39-6.18-4.06,0.26,3.55-13.4c-4.6-3.37-2.41-7.31-2.49-12.92
	c0.71-5.79,19.06-13.16,18.24-4.41c-0.86,0.91-4.57,4.85-1.11,3.73c2.22-3.28,19.52-9.63,14.66-2.27
	c1.65,22.11,2.57,46.27-0.33,69.4c-5.6,12.37-15.73,2.51-24.38-1.78C144.09,139.48,152.73,121.56,146.14,110.01z"/>
<path class="st4" d="M211.79,39.52c31.44-1.39,62.8,1.18,92.83,2.62c2.57,1.85-6.82,1.25-2.55,3.13c5.35,3.03-12.68,2.55-15.95,2.62
	c-6.43,0.62,3.78,4.55,6.08,4.66c2.02,3.56-24.08,4.3-27.99,3.1c-13.95,1.12-28.22,1.45-41.96,4.08
	C208.94,67.67,214.86,46.94,211.79,39.52z"/>
<path class="st3" d="M150.37,111.99c0.06,2.3,0.09,5.84-0.16,10.17c-0.56,9.93-1.86,11.77-0.59,16.01c1.57,5.25,5.41,8.62,8.1,10.98
	c3.42,3,6.82,4.72,9.15,5.69c2.26,0.18,5.45,0.04,8.22-1.86c2.07-1.42,2.9-3.12,3.57-2.85c1.02,0.41,1.06,5.04-1.07,7.54
	c-2.68,3.14-8.97,3.15-15.65,0.16c-5.12-1.68-16.65-5.77-25.8-12.28c-4.86-3.46-6.97-6.12-7.33-9.08c-0.25-2.04,0.04-3.09,0-6.34
	c-0.06-4.5-0.21-4.86,0-5.87c0.4-1.96,1.74-4.55,5.98-7.2c4.78-2.92,7.5-6.94,5.27-13.28c-0.33-6.85-0.19-14.74,0.91-23.41
	c2.23-17.64,7.57-31.89,12.41-41.99c3.06-1.49,7.22-3.1,8.87-1.51c2.45,2.37-1.96,10.54-3.13,12.83
	C154.56,58.72,149.88,75.9,150.37,111.99z"/>
<path class="st0" d="M210.28,170.63c-3.16,12.41-22.87-6.08-30.64-7.74C184.39,155.25,201.72,170.45,210.28,170.63z"/>
<path class="st3" d="M149.68,43.78c14.96-10.66,12.19,8.79,4.32,15.17C159.05,44.46,146.7,56.65,149.68,43.78z"/>
<path class="st3" d="M189.78,168.87c5.64,1.46,15.25,4.7,17.89,8.53C201.64,176.83,192.93,173.92,189.78,168.87z"/>
<path class="st3" d="M212.77,159.5c2.75,10.56-18.21,2.14-9.36,0.04C206.97,161.34,209.2,161.54,212.77,159.5z"/>
<path class="st3" d="M175.27,156.07c0.14-1.88,3.27-8.39,4.76-4.85C178.99,153.3,177.78,155.36,175.27,156.07z"/>
<path class="st4" d="M181.21,159.48c-1.02,0.91-1.55,2.04-1.58,3.41C174.74,163.23,182.32,152.1,181.21,159.48z"/>
<path class="st3" d="M212.75,137.35c2.69,2.4-0.53,4.89-2.97,3.58C209.65,139.36,211.54,138.14,212.75,137.35z"/>
<path class="st3" d="M184.67,166.29c2.11,0.07,3.96,0.64,5.12,2.59C187.91,168.98,184.85,168.71,184.67,166.29z"/>
<path class="st3" d="M213.6,144.15c0.02,1.42,0.28,3.36-1.65,3.45C210.97,145.1,211.02,145,213.6,144.15z"/>
<path class="st3" d="M212.75,118.59c-0.08,1.19,0.43,2.52-0.82,3.42C210.63,119.98,210.76,119.47,212.75,118.59z"/>
<path class="st3" d="M211.93,132.24c0.5,1.49-1.02,2.51-1.3,0.66C210.73,132.34,211.4,132.3,211.93,132.24z"/>
<path class="st4" d="M196.18,39.25c-0.94-0.19-0.66-1.1,0.14-0.89C196.96,38.65,196.76,39.01,196.18,39.25z"/>
<path class="st4" d="M145.68,110.03c-0.36,0.03-0.71,0.05-1.07,0.08C144.91,109.38,145.28,109.52,145.68,110.03z"/>
<path class="st6" d="M475.96,255.35c-1.5,1.58-11.2,11.59-18.22,8.95c-2.03-0.76-4.09-2.68-8.2-6.48c-2.23-2.07-3.96-3.89-5.13-5.15
	c-0.3-1.04-0.76-3.16-0.17-5.71c0.83-3.61,3.21-5.69,4.02-6.34c1.46-4.13,6.26-1.5,8.56-4.38c2.39-2.37,3.19-6.2,6.81-7.24
	C466.54,237.4,478.89,247.43,475.96,255.35z"/>
<path class="st6" d="M427.46,216.61c4.08,1.77,20.46-6.66,26.51-9.47c10.86,15.54-9.44,12.77-16.62,20.02
	c3.98,4.12,11.1-5.15,13.93-0.42c-1.26,3.36-3.19,7.53-6.19,11.9c-2.16,3.15-4.4,5.7-6.41,7.72c-3.79-6.51-7.57-13.02-11.35-19.53
	c-0.04-1.23-0.33-3.61-2.01-5.66c-0.36-0.43-0.73-0.8-1.09-1.1C421.2,217.5,425.33,217.06,427.46,216.61z"/>
<path class="st7" d="M445.37,208.07c-10.78-0.83-27.96,10.76-24.13-9.61c9.7-7.14-13.77-19.42-0.12-17.32
	c6.38,3.16,18.49-6.32,19.13,3.38c0.75,8.2,11.94,7.63,10.22,16.86C450.66,204.87,444.98,203.98,445.37,208.07z"/>
<path class="st4" d="M452.22,190.17c6.16-3.09,5.75-16.05,11.08-22.14C465.6,171.34,454.4,198.44,452.22,190.17z"/>
<path class="st4" d="M445.37,208.07c0.18-4.56,7.63-4.09,4.59-9.53C452.92,194.72,452.95,211.35,445.37,208.07z"/>
<path class="st4" d="M443.73,188.42c7.91,2.86,5.78-2.31,5.68,6.17C447.96,192.17,440.49,191.73,443.73,188.42z"/>
<path class="st1" d="M450.51,206.41c0.55-1.4,1.1-2.8,1.65-4.2C455.31,203.41,454.04,207.63,450.51,206.41z"/>
<path class="st4" d="M463.3,166.38c0.23-1.75-0.89-4.71,1.47-5.25C464.59,162.88,465.82,166.01,463.3,166.38z"/>
<path class="st4" d="M445.35,327.39c-1.36-5.19-9.59-0.74-12.66-6.31c-3.78-1.51-19.67-8.5-11.19-12.19
	c4.81,4.7,11.19,3.47,17.18,4.5C442.32,315.57,450.04,326.7,445.35,327.39z"/>
<path class="st1" d="M446.22,308.6c-13.48-0.73-4.36-27.03-1.31-29.29C448.31,288.84,438.69,299.24,446.22,308.6z"/>
<path class="st3" d="M163.89,45.08c-0.17,0.72-0.41,0.82-1.02,0.4C163.04,44.76,163.28,44.66,163.89,45.08z"/>
<path class="st4" d="M429.16,254.05c-12.53,4.92-19.31-19.42-6.04-22.06C423.54,237.84,422.77,246.4,429.16,254.05z"/>
<path class="st3" d="M165.8,260.94c0.14,0.95,0.27,1.89-0.69,2.54C163.9,261.95,163.99,261.63,165.8,260.94z"/>
<path class="st4" d="M161.69,299.21c0.87,1.14,0.82,1.28-0.66,1.81C160.82,300.26,161,299.64,161.69,299.21z"/>
<path class="st3" d="M440.2,181.68c-5.74-4.31-12.11,2.09-19.07-0.54c-17.59,0.59-4.87-2.63,3.26-5.81
	C435.2,171.54,446.27,164.88,440.2,181.68z"/>
<path class="st3" d="M435.06,129.65c0.51,1.49-0.9,2.58-1.25,0.7C433.91,129.8,434.55,129.73,435.06,129.65z"/>
<path class="st8" d="M418.03,193.58c-5.17,0.58-3.23-9.12,0.93-6.14C420.77,189.19,422.01,193.94,418.03,193.58z"/>
<path class="st3" d="M427.46,216.61c-2.72,0.95-6.21,1.57-4.96-2.6C423.34,216.9,430.26,212.99,427.46,216.61z"/>
<path class="st3" d="M445.28,183.41c1.26,1.15,1.74,2.59,1.6,4.27C442.42,189.07,439.35,182.04,445.28,183.41z"/>
<path class="st4" d="M447.03,187.7c0.58-0.02,1.15-0.05,1.73-0.07C448.21,188.54,447.64,188.53,447.03,187.7z"/>
<path class="st4" d="M445.28,183.41c-2.37,0.07-4.01,0.31-3.13-2.57C443.5,179.08,444.86,182.32,445.28,183.41z"/>
<path class="st9" d="M179.79,260.63"/>
<path class="st3" d="M534.66,265.33"/>
<path class="st1" d="M210.77,233.88"/>
<path class="st3" d="M520.11,255"/>
<path class="st3" d="M380.38,513.8"/>
<path class="st10" d="M161.51,296.11c-1.4-6.59,7.21-65.14,11.88-38.82c-5.19,2.09-7.27,3.59,0.06,4.68
	c3.46-0.88,3.01,4.19,6.44,3.4c3.48-4.65,6.83-1.77,8.84-5.18c-5.41-2.67,1.59-8,0.6-12.53c0.3-2.44-2.33-2.77-4.24-2.99
	c0.23-2.82,0.34-7.61,3.82-8.11c9.1,28.61,8.82,63.26,7.3,94.98c-1.07,13.32,1.35,33.15-2.26,43.21c-0.35,2.51-0.8,6.36-1.02,11.06
	c-0.73,15.93,2.12,23.44-0.14,24.52c-2.86,1.37-12.21-8.4-18.01-20.77c-3.32-7.08-5.83-15.77-6.53-42.13
	c-0.27-10.18-0.29-23.67,0.65-39.6c-5.59-3.2-2.54-2.12,2.25-5.82C213.41,280.41,167.07,255.44,161.51,296.11z M178.89,266.27
	c-10.76-0.31-3.11,6.38,3.38,5.01C186.81,269.73,182.37,264.95,178.89,266.27z"/>
<path class="st11" d="M161.64,293.11c0.41-5.09,0.66-7.25,1.07-11.75c0.33-3.61,0.8-7.1,1.92-11.04c-0.25-2.57-0.25-5.95,0.66-9.75
	c0.5-2.06,1.38-5.59,4.08-9.24c1.7-2.31,3.4-4.61,6.39-5.75c4.23-1.61,6.51,0.84,9.33-0.91c3.62-2.24,2.76-8.09,3.82-8.11
	c1.5-0.04,3.62,11.6,3.72,24.43c0.02,2.59-0.05,4.75-0.11,6.23c-0.26,6.06-0.65,11.84-3.47,17.98c-1.49,3.25-3.14,5.4-4.6,7.3
	c-4.28,5.54-8.94,9.03-12.16,11.09c-7.74,8.95-10.42,9.57-11.51,8.98C159.23,311.73,160.43,308.27,161.64,293.11z"/>
<path class="st4" d="M379.44,161.43"/>
<polygon class="st2" points="179.19,155.02 197.88,165.99 207.11,169.52 210.77,169.52 213.02,141.29 213.62,87.06 213.02,53.3 
	212.88,39.22 187.09,38.88 182.13,39.53 181.33,46.62 180.54,64.15 180.38,141.29 "/>
<path class="st3" d="M257.08,373.6c-15.75,7.93-31.5,15.86-47.25,23.78"/>
<path class="st3" d="M350.03,506.92"/>
<path class="st1" d="M299.02,491.58"/>
<path class="st4" d="M387.27,58.47"/>
<path class="st1" d="M267.52,76.55"/>
<path class="st1" d="M273.97,214.87"/>
<path class="st3" d="M248.56,67.24"/>
<path class="st3" d="M97.88,124.97"/>
<path class="st4" d="M95.06,42.59"/>
<path class="st3" d="M212.02,218.39"/>
<path class="st1" d="M178.85,459.04"/>
<path class="st2" d="M149.03,210.38l-20.21,25.14l-0.25,43.79c0,0,13.27-12.7,22.85-24.61c9.58-11.91,23.84-32.9,23.84-32.9
	L149.03,210.38z"/>
<path class="st3" d="M238,298.81"/>
<path class="st3" d="M172.59,368.28"/>
<path class="st1" d="M261.78,505.67"/>
<path class="st1" d="M223.91,480.63"/>
<path class="st0" d="M186.05,476.87c-4.45-0.93-5.32-1.68-5.32-2.19c0-1.46,7.12-1.33,9.21-5.63c0.78-1.62,0.54-3.2,0.45-3.92
	c-0.69-5.27-1.4-26.03-2.14-55.76c1.52,0.32,3.04,0.64,4.56,0.96c0.33,19.45,0.94,35.57,1.43,47.42c0.12,2.89,0.4,8.06,3.5,13.32
	c3.56,6.03,8.89,8.89,11.17,10.18c6.79,3.85,16.34,10.73,28.48,24.1C220.26,495.86,203.15,486.37,186.05,476.87z"/>
<path class="st0" d="M238,186.15"/>
<path class="st3" d="M388.17,487.42"/>
<path class="st6" d="M407.61,222.45"/>
</svg>
