<?xml version="1.0" encoding="utf-8"?>
<!-- Generator: Adobe Illustrator 26.0.2, SVG Export Plug-In . SVG Version: 6.00 Build 0)  -->
<svg version="1.1" id="Layer_1" xmlns="http://www.w3.org/2000/svg" xmlns:xlink="http://www.w3.org/1999/xlink" x="0px" y="0px"
	 viewBox="0 0 600 600" style="enable-background:new 0 0 600 600;" xml:space="preserve">
<style type="text/css">
	.st0{fill:#3A3A3A;}
	.st1{fill:#FFFFFF;}
	.st2{fill:#4F4F4F;}
	.st3{fill:#212121;}
	.st4{fill:#2B2B2B;}
	.st5{fill:#575757;}
	.st6{fill:#4E4E4E;}
	.st7{fill:#161616;}
	.st8{fill:#1A1A1A;}
	.st9{fill:#141414;}
	.st10{fill:#1F1F1F;}
</style>
<path class="st0" d="M194.82,434.11c0.16,6.55,0.29,8.76,0.49,18.21c0.31,14.69,0.36,26.65,0.35,34.5c-0.49-1.3-2.31-5.71-5.08-5.93
	c-0.94-0.08-2.36,0.32-5.17,1.18c-2.15,0.66-1.87,0.51-10.86,4.26c-2.45,1.02-5.52,2.25-9.46,3.69c-4.94,1.81-7.44,3.06-8.78,3.88
	c-10.33,6.25-4.98,32.51-7.66,33.04c-1.76,0.35-6.89-10.49-10.43-29.42c-2.26-12.07-2.39-26.12-2.57-53.73
	c-0.21-33.09-0.31-49.64-0.29-55.77c0.09-28.54-0.4-23.37-0.36-51.95c0.07-40.27,1.05-57.27,0.62-84.69
	c-0.08-5.21-0.21-12.7-0.27-24.24c-0.05-10.47,0.04-12.59,0-24.24c-0.02-6.56-0.03-9.84-0.07-10.44
	c-0.35-5.97,0.12-11.99-0.45-17.94c-0.05-0.58-0.09-2.14,0.3-2.24c0.34-0.08,0.86,1,0.98,1.23c1.46,2.92,7.17,8.45,10.24,11.42
	c7.52,7.28,14.57,11.52,16.04,12.39c3.65,2.16,6.62,3.53,8.98,4.61c9.01,4.15,11.96,4.14,17.77,8.02c6,4,7.16,6.88,7.48,7.77
	c0.86,2.41,0.51,4.07,0.15,8.94c-0.22,2.98-0.29,6.45-0.42,13.39c-0.06,3.46-0.02,7.84,0.04,16.6c0.01,1.95,0.03,3.39,0.04,4.48
	c0.04,5.44,0.08,6.21,0.03,12.48c-0.16,19.09-0.66,29.3-0.32,41.55c0.04,1.42,0.19,5.61,0.17,11.32
	c-0.02,7.13-0.23,13.54-0.23,13.54c-0.17,5.06-0.41,16.33-0.9,38.86C194.68,401.87,194.38,415.62,194.82,434.11z"/>
<path class="st0" d="M424.1,235.38c0,4.5,0.04,17.52,0.18,52.23c-0.05,24.43-0.1,48.87-0.14,73.3v56.42v62.38
	c0,0-0.21,1.22,5.02,4.01c5.22,2.79,16.76,4.43,26.81,11.37c6.15,4.24,9.24,5.87,12.05,5.93c3.35,0.07,4.54-2.09,5.75-1.51
	c5.08,2.47-9.06,37.67-5.89,39.12c1.61,0.73,7.5-7.37,11.15-15.81c3.36-7.77,4.09-14.16,4.91-21.3c0,0,0.95-8.6,0.66-30.67
	c-0.08-5.93-0.24-5.93-0.24-11.81c0-8.01,0.25-16.02,0.22-24.02c-0.1-33.19,1.21-221.64,0.79-233.04c-0.03-0.78-0.17-3.56-0.12-7.4
	c0-0.34,0.11-2.71,0.12-5.74c0.01-3.35-0.08-4.46-0.48-4.55c-0.37-0.09-0.82,0.76-1.32,1.56c-0.55,0.88-1.49,2.67-4.43,5.15
	c-5.42,4.57-11.85,8.02-11.85,8.02c-5.53,2.97-6.3,2.97-14.72,7.06c-6.87,3.34-7.49,3.99-8.63,4.54c-0.64,0.31-1.17,0.48-1.46,0.58
	c-5.69,1.88-11.18,4.37-16.92,6.11c-0.31,0.09-1.06,0.32-1.47,0.98c-0.6,0.96-0.11,2.25,0,2.57
	C424.42,221.78,424.1,222.02,424.1,235.38z"/>
<path class="st0" d="M226.17,491.23c-2.94-0.32-9.86-1.49-15.92-6.94c-4.11-3.69-5.99-7.72-7.06-10.05
	c-2.46-5.39-3.02-10.24-3.33-18.55c-0.33-8.7-0.1-13.58,0.02-21.6c0.22-14.87-0.31-16.36-0.09-35.13c0.12-9.91,0.24-7.59,0.29-14.83
	c0.1-15.76-0.52-21.28-0.48-39.62c0.01-4.86,0.07-5.2,0.05-10.53c-0.03-7.72-0.22-13.13-0.29-22.51
	c-0.12-15.83,0.14-38.6,1.86-67.71c0.65-11.03-1.43-24.04,0.7-24.43c1.75-0.32,5.17,10.36,6.97,9.86c0.91-0.25,1.45-2.22,1.6-3.14
	c0.37-2.3-0.74-3.21-0.21-4.07c0.78-1.26,3.91-0.58,9.99,0.57c2.42,0.46,4.87,0.78,7.27,1.35c4.36,1.03,10.98,2.06,24.23,4.13
	c12.04,1.88,38.72,4.44,72.16,4.73c0,0,19.28-2.39,56.12-2.39c0,0,17.59-1.21,31.16-5.98c4.89-1.72,5.22-1.92,5.22-1.92
	c0.91-0.61,1.62-1.09,2.15-0.84c0.9,0.43,0.6,2.79,0.48,3.83c-0.43,3.77,0.34,7.6-0.01,11.37c-1.2,13.13,1.19,136.9,0.62,172.9
	c-0.04,2.8-0.12,5.9-0.13,10.66c-0.03,10.25,0.24,14.18,0.12,24.18c-0.07,5.72-0.09,8.63-0.36,10.89
	c-0.89,7.48-3.03,13.41-4.74,17.28c-2.11,3.8-6.2,9.8-13.4,13.78c-4.81,2.66-10,3.69-20.49,4.44c-5.25,0.37-12.08,0.47-25.76,0.51
	c-1.2,0-2.1,0-2.2,0c-29.29,0.01-45.21,0.29-56.56,0.28C267.38,491.73,241.9,491.44,226.17,491.23z"/>
<path class="st1" d="M185.07,175.24c0.66,2.76,2.54,8.91,8.14,13.88c1.61,1.43,7.34,6.16,15.32,6.7c3.99,0.27,6.52-1.04,7.9,0.48
	c1.65,1.82,0.17,5.86-1.3,8.94c0.02,7.07,0.03,14.14,0.03,21.21c0.04,56.38-0.24,112.5-0.83,168.36
	c-9.31-6.71-18.61-13.42-27.92-20.13C185.96,308.21,185.51,241.73,185.07,175.24z"/>
<path class="st2" d="M467.9,61.14c-0.27-0.15-0.35-0.37-0.24-0.66C467.86,60.72,468.24,60.84,467.9,61.14z"/>
<path class="st0" d="M183.31,402.65c0.33,0.1,0.49,0.3,0.39,0.65C183.39,403.19,183.22,403,183.31,402.65z"/>
<path class="st0" d="M185.01,405.12c0.15,0.23,0.29,0.45,0.44,0.68C185.12,405.69,184.95,405.48,185.01,405.12z"/>
<path class="st3" d="M191.61,413.7c0.4,0,0.61,0.19,0.58,0.6C191.99,414.1,191.8,413.9,191.61,413.7z"/>
<path class="st0" d="M178.99,395.96c0.19,0.21,0.46,0.43,0.06,0.56C178.91,396.35,178.89,396.16,178.99,395.96z"/>
<path class="st0" d="M402.34,75"/>
<path class="st4" d="M213.51,189.63"/>
<path class="st0" d="M185.72,175.24"/>
<path class="st0" d="M187.29,171.86"/>
<path class="st0" d="M453.17,206.67"/>
<path class="st0" d="M447.54,200.55"/>
<path class="st3" d="M454.26,218.38"/>
<path class="st5" d="M422.06,205.67"/>
<path class="st0" d="M445.98,193.03"/>
<path class="st6" d="M185.88,272.14"/>
<path class="st3" d="M216.59,245.61"/>
<path class="st4" d="M384.74,523.12"/>
<path class="st0" d="M384.06,173.34"/>
<path class="st4" d="M354.65,516.3"/>
<path class="st3" d="M304.08,501.09"/>
<path class="st0" d="M391.19,71.23"/>
<path class="st3" d="M277.87,84.9"/>
<path class="st3" d="M279.24,226.77"/>
<path class="st4" d="M254.05,80.41"/>
<path class="st4" d="M217.83,230.26"/>
<path class="st3" d="M184.94,468.83"/>
<path class="st4" d="M243.58,309.99"/>
<path class="st4" d="M178.74,378.86"/>
<path class="st3" d="M267.16,515.06"/>
<path class="st3" d="M229.62,490.24"/>
<path class="st7" d="M243.58,198.3"/>
<path class="st4" d="M392.46,496.97"/>
<path class="st8" d="M411.73,234.29"/>
<path class="st3" d="M370.16,511.95"/>
<path class="st0" d="M204.99,563.48c-10.46-1.92-23.57-4.33-36.62-13.62c-5.36-3.81-16.26-11.57-21.3-25.15
	c-1.51-4.05-2.31-8.51-4.01-17.42c-1.96-10.29-2.94-15.44-2.35-18.57c2.08-11.01,12.15-17.9,20.97-23.93
	c4.35-2.98,7.69-4.54,10.86-5.58c7.79-2.58,12.93,2.51,17.37-0.62c3.91-2.75,3.72-8.43,4.67-8.29c1.24,0.18-0.47,9.51,2.03,19.39
	c0.93,3.67,2.52,9.75,7.54,15.32c0.81,0.9,4.22,4.57,10.04,7.31c6.32,2.97,13.55,3.17,27.77,3.46c3.14,0.06,5.75,0.06,7.54,0.05
	c5.8,0.12,14,0.19,25,0.19h0c8.65,0.29,21.25-0.39,44.77-0.11c0,0,43.66,0.53,68.22-0.5c0.81-0.03,2.73-0.12,5.25-0.59
	c3.6-0.67,13.38-3.02,20.82-11.25c4.54-5.02,6.32-10.11,7.66-14.12c4.41-13.2,2.2-24.94,3.83-25.13c0.64-0.07,1.24,1.72,1.87,3.11
	c2.68,5.88,8.7,7.7,16.44,13.03c12.12,8.35,19.23,4.48,26.99,12.41c6.77,6.92,8.93,15.27,10.11,21.08
	c4.28,21.03-6.34,38.53-9.67,43.58c-6.45,8.05-13.03,12.74-17.63,15.46c-11.73,6.92-23.65,8.68-36.41,10.56
	c-6.54,0.97-11.51,1.31-12.89,1.4c-29.74,2-74.39,1.52-101.24,1.68c0,0-46.62,0.28-81.14-1.26
	C219.14,565.25,212.98,564.95,204.99,563.48z"/>
<path class="st9" d="M154.49,112.48"/>
<path class="st0" d="M292.71,53.99"/>
<path class="st9" d="M451.44,166.35"/>
<path class="st3" d="M221.86,491.79"/>
<path class="st3" d="M235.51,498.92"/>
<path class="st3" d="M448.96,547.32"/>
<path class="st0" d="M144.71,201.9"/>
<path d="M491.93,250.11"/>
<path class="st10" d="M414.21,476.59"/>
<path class="st10" d="M356.82,489.62"/>
<path class="st10" d="M413.69,192.17"/>
<path class="st10" d="M408.18,52.24"/>
<path class="st10" d="M199.6,55.75"/>
<path class="st10" d="M207.05,209.08"/>
<path class="st10" d="M195.65,247.71"/>
<path class="st3" d="M193.09,183.02"/>
<path class="st10" d="M181.92,191.4"/>
<path class="st10" d="M196.35,161.15"/>
<path class="st0" d="M427.65,196.39"/>
<path class="st0" d="M418.79,202.85"/>
<path class="st0" d="M204.69,205.99"/>
<path class="st0" d="M357.27,43.43"/>
<path class="st4" d="M140.97,81.31"/>
<path class="st0" d="M219.05,223.68"/>
<path class="st0" d="M394.42,496.25"/>
<path class="st0" d="M422.85,211.5"/>
<polygon class="st1" points="418.79,213.21 418.79,250.81 423.81,250.81 424.28,213.57 "/>
<polygon class="st1" points="412.45,223.94 423.81,219.67 438.91,213.21 450.34,207.16 454.26,191.49 404.54,220.3 "/>
<path class="st1" d="M410.79,224.52c0,0,21.12-7.27,30.72-12.03c9.6-4.76,14.18-6.82,23.51-11.58c9.33-4.76,16.69-10.68,22.98-15.35
	c6.28-4.67,15.8-18.67,15.8-18.67l-18.23,1.08L410.79,224.52z"/>
<path class="st1" d="M203.3,216.11c-10.5-2.6-22.34-6.37-34.9-11.95c-5.83-2.58-11.22-5.29-16.18-8.03
	c-7.7-8.31-13.42-10.78-17.36-11.39c-1.35-0.21-5.77-0.7-8.33-3.99c-0.68-0.87-1.43-1.88-1.47-3.22
	c-0.17-5.84,12.87-10.12,12.87-10.12C159.72,183.65,181.51,199.88,203.3,216.11z"/>
<path class="st1" d="M107.2,164.11c2.37,3.36,6.28,8.2,12.2,12.86c2.76,2.17,5.55,3.86,11,7.15c5.36,3.23,10.24,6.18,16.48,9.38
	c11.01,5.66,16.52,8.49,21.73,9.48c13.56,2.59,28.17-1.51,28.17-1.51l0,0l-87.75-58.95C108.42,149.72,107.81,156.91,107.2,164.11z"
	/>
<polyline class="st1" points="342.75,506.69 342.75,525.9 397.56,525.9 397.56,506.69 "/>
<path class="st0" d="M121.53,172.25c0,0,37.96,26.6,90.13,41.36s159.8,15.12,210.45-2.52c50.65-17.64,67.58-33.1,75.99-39.74
	C504.81,166.07,121.53,172.25,121.53,172.25z"/>
<path class="st0" d="M121.53,172.25l-0.13-20.88l-0.46-76.29c0,0-3.47-39.48,120.43-45.29c109.24-5.12,135.57,0.33,135.57,0.33
	s120.01,10.07,120.57,42.67c0.76,44.62,0.6,98.57,0.6,98.57L121.53,172.25z"/>
<path class="st0" d="M215.16,223.68v-3.74c11.35,2.61,27.22,5.73,46.4,7.81c24,2.6,42.24,2.39,60.76,2.11
	c18.49-0.28,35.09-0.58,57.06-3.66c16.29-2.28,29.76-5.28,39.4-7.73v9.46l-69.72,49.27l-97.2-19.12L215.16,223.68z"/>
<path class="st0" d="M424.1,220.84l0.18-3.86c0,0,5.21-1.35,12.92-4.67s21.99-8.89,35.81-16.96s12.34-7.8,12.34-7.8v23.06
	l-31.55,28.63l-29.53,5.65l-0.18-23.51V220.84z"/>
<polygon class="st0" points="121.49,164.38 121.53,172.25 142.88,180.81 304.9,203.84 481.93,175.24 498.11,171.35 496.03,144.22 
	211.94,112.48 "/>
</svg>
