<?xml version="1.0" encoding="utf-8"?>
<!-- Generator: Adobe Illustrator 26.0.2, SVG Export Plug-In . SVG Version: 6.00 Build 0)  -->
<svg version="1.1" id="Layer_1" xmlns="http://www.w3.org/2000/svg" xmlns:xlink="http://www.w3.org/1999/xlink" x="0px" y="0px"
	 viewBox="0 0 600 600" style="enable-background:new 0 0 600 600;" xml:space="preserve">
<style type="text/css">
	.st0{fill:#161616;}
	.st1{fill:#212121;}
	.st2{fill:#2B2B2B;}
	.st3{fill:#3A3A3A;}
	.st4{fill:#141414;}
	.st5{fill:#4F4F4F;}
	.st6{fill:#575757;}
	.st7{fill:#4E4E4E;}
	.st8{fill:#C91600;}
	.st9{fill:#E90D00;}
	.st10{fill:#1A1A1A;}
	.st11{fill:#FFFFFF;}
</style>
<path class="st0" d="M133.33,361.3c2.59,26.49,7.28,53.47,12.91,79.15c13.93,19.24,4.65,27.69,9.63,41.21
	c5.36,4.65,11.06,0.84,16.48,3.35c0.21,0.43,0.35,0.5,0.44,0.49c1.24-0.13,0.85-17.02,0.27-28.35c-0.56-10.96-1.16-14.22-0.05-14.58
	c3-0.97,11,21.77,20.8,32.02c0.74,0.78,2.92,3.31,5.08,7.11c1.14,2.01,2.15,4.75,2.71,9.15c2.05,5.92,15.13-1.75,19.72,2.75
	c2.97,3.01,2.65,6.11,6.17,8.4c27.82,5.24,68.04,13.55,116.2,26.15c49.7,13.01,76.57,20.18,75.99,26.61
	c-0.84,9.41-59.51,6.56-136.87,13c0,0-25.36,1.31-49.82-2.15c-4.82-0.68-9.97-1.76-16.06-3.49c-7.32-2.08-13.21-4.29-17.12-5.88
	c-3.33-2.02-5.32,0.79-4.63,3.84c-10.57-3.18-18.81-7.27-24.58-10.6c-6.55-3.78-19.83-11.63-30.92-26.61
	c-4.82-6.51-7.19-11.61-9.11-15.82c-3.92-8.58-4.94-14.18-4.6-19.5c0.01-0.08,0.01-0.14,0.01-0.16c0.78-11.7,1.23-29.26,0-56.34
	c0-55.14,0-110.28,0-165.41c0-2.24,0.01-4.47,0-6.71c-0.01-1.81,0-3.3,0-4.32c0-6.63,0-13.26,0-19.9c0-5.91,0-11.83,0-17.74
	c0-6.39,0-12.79,0-19.18c0-4.55,0-9.11,0-13.66c0-4.08,0-8.15,0-12.23c0-8.63,0-17.26,0-25.89c0-23.25,0-23.25,0-23.25
	c-0.18-9.99-0.46-13.02,0-19.42c0.22-3.1,0.51-5.32,0.51-9.35c0.01-6.55-0.72-6.66-0.34-10.8c0.42-4.51,1.66-8.42,2.72-11.74
	c0.13-0.42,0.8-2.51,1.7-4.79c1.28-3.27,4.07-9.65,15.1-25.63c0.84-1.22,2.07-2.99,3.58-5.11c3.06-2.56,5.78-3.44,7.69-3.78
	c4.04-0.71,7.44,0.35,18.05,2.35c4.25,0.8,4.2-0.02,19.79-0.25c9.2-0.14,16.64-0.17,21.37-0.18c3.83-0.71,9.9-1.67,17.38-2.15
	c17.11-1.1,26.86,1.25,44.71,2.39c18.75,1.19,17.07-0.83,31.16,0.24c37.16,2.83,40.62,16.26,63.29,13.19
	c20.03-2.72,22.23-13.87,42.43-13.42c10.33,0.23,14.85,1.69,27.17-0.31c2.72-0.44,7.91-1.42,14.15,0.07
	c7.34,1.76,10.34,5.57,11.06,6.55c0.25,0.34,0.44,0.62,0.72,1.05c2.74,4.2,3.78,7.9,4.21,9.34c2.08,7.09,2.55,5.03,6.47,19.02
	c3.41,12.13,7.41,25.1,7.39,31.66c-0.36,146.3-0.47,203.69-0.47,219.58c0,4.21,0,8.42,0,12.63c0,14.49,0,28.98,0,43.47
	c0,26.53-0.03,53.06,0,79.59c0,3.67,0.01,5.28,0,8.15c-0.04,10.58-0.18,14.23-0.11,22.07c0.06,6.95,0.2,6.39,0.15,8.62
	c-0.03,1.41-3.21,19.61-5.75,25.41c-3.75,8.55-25.03,33.38-74.07,42.76c-23.08,4.41-41.94,3.42-88.95-3.76
	c-71.92-10.99-107.88-16.48-120.58-25.33c-58.49-40.77-49.07-144.45-46.75-165.89C144.28,366.42,138.8,363.86,133.33,361.3z"/>
<path class="st1" d="M187.95,396.23c-0.23,16.24,0.05,13.46-0.14,16.32c-0.19,2.92-0.68,8.86,0.13,16.8c0,0.04,0.01,0.06,0.01,0.12
	c0.8,7.84,1.93,21.28,3.43,45.89c-6.11,0.02-10.75,1.05-13.82,1.98c-2.22,0.67-1.93,0.51-11.19,4.33c-2.52,1.04-5.68,2.28-9.74,3.74
	c-14.67,5.29-16.94,10.55-20.78,8.95c-7.4-3.08-3.65-24.6-2.24-53.7c0.92-18.94-0.56-37.93-0.64-56.9
	c-0.36-92.34,0.24-125.93-0.64-141.6c-0.38-6.81-0.09-13.64-0.32-20.46c-0.23-6.6,0.18-13.21,0-19.82
	c-0.19-6.86-0.53-11.8,2.24-13.42c1.43-0.84,3-0.39,4.79,0c5.32,1.17,10.89,0.64,16.3,1.28c11.67,1.38,12.88-0.57,22.81,0.49
	c4.82,0.51,11.85,1.76,20.29,5.13c-3.94,9.77-5.59,18.1-6.34,23.79c-1.03,7.78-1.55,11.67-0.64,16.3c0.8,4.08,1.97,5.95,0.96,7.99
	c-2.22,4.5-10.92,1.07-15.66,3.84c-14.77,8.61,8.9,73.33,10.92,107.69c0.58,9.8,0.64,17.91,0.64,17.91
	C188.38,379.91,188.16,381.41,187.95,396.23z"/>
<path class="st1" d="M421.67,213.64l0.74,62.09l1.12,76.12v58.12v64.27c0,0-0.21,1.26,5.17,4.14s17.27,4.57,27.63,11.71
	c10.36,7.15,12.27,7.09,18.35,4.56c6.07-2.53,7.35-2.14,7.03-10.97s0.05-57.73,0.05-57.73V196.37c-0.38-1.3-0.83-3.23-0.98-5.59
	c-0.33-5.35,1.25-7.14,0.29-8.39c-1.96-2.55-10.06,2.94-23.01,5.43c-3.17,0.61-10.79,2.08-20.46,1.28
	c-9.67-0.8-15.97-3.42-17.9-0.64c-1,1.44-0.15,3.35,0.64,6.07C421.57,198.85,422.64,205.15,421.67,213.64z"/>
<path class="st1" d="M192.61,227.6c10.56-1.82,0.87,11.42,14.79,15.94c2.96,2.16-1.41,5.42-2.59,7.06
	c-2.73,3.73,5.87,10.82,4.71,19.69c-0.15,1.03-1.7,13.34-0.3,12.11c16.73-9.17,5,5.67,14.96,9.53c2.07,0.29,2.5,3,3.47,4.78
	c8.96-2.67,3.19,3.53,8.71,4.28c4.9,4.66,3.11,5.77,9.15,0.16c3.97-2.5,9.6-0.84,12.88-1.64c2.81-4.58,11.81-7.95,16.81-10.18
	c10.51,5.35,8.69,2.15,19.02,2.23c12.28,2.71,21.89,1.55,33.88,1.29c22.37-3.86,14.27,20.47,12.3,32.92
	c3.51,18.72,0.44,35,6.72,48.26c-7.13-0.42-15.09-0.53-23.73-0.08c-8.51,0.44-16.3,1.35-23.26,2.48
	c-9.7-7.78-19.39-15.56-29.09-23.33c5.24,3.45,11.57,8.32,17.9,15.02c7.87,8.34,13.01,16.64,16.3,23.01
	c-9.39,5.38-10.88,8.54-10.51,10.43c0.3,1.57,1.87,2.17,3.8,5.23c1.63,2.59,2.33,5.05,2.66,6.61c-0.09,1.11-1.03,3.68-2.71,6.83
	c-1.19,2.22-2.81,3.93-5.34,3.82c-19.84-6.66,0.56-39.31-48.89-24.1c-22.44,9.67-30.5-16.39-31.22,1.09
	c-5.48,3.71-12.59,7.62-16.14,5.12c-4.12-2.91-1.23-12.93,0.32-21.42c2.12-11.59,3.25-28.65-2-51.27
	C196.35,317.12,196.88,299.21,192.61,227.6z"/>
<path class="st2" d="M377.18,494.36c-17.82,4.22-32.13,4.78-45.39,5.43c-12.14,0.6-20.48,0.39-36.44,0
	c-9.93-0.24-23.71-0.77-40.59-2.24c-0.25-0.02-1.9-0.17-3.68-0.35c-19.62-1.94-29.42-2.92-36.91-6.68c0,0-8.05-4.05-13.11-10.23
	c-3.41-4.18-5.34-8.86-5.34-8.86c-0.18-0.44-0.32-0.8-0.41-1.05c-1.58-4.2-2.1-8.14-2.37-10.23c-0.16-1.29-0.24-2.31-0.33-3.58
	c-0.97-13.52-0.27-26.6-0.13-29.34c0.5-9.77,0.3-18.58-0.09-36.19c-0.3-13.34-0.87-21.2-1.24-28.37
	c-2.38-47.22,4.44-66.65,1.28-119.22c-0.35-5.75-0.72-10.36-0.93-12.85c0.08-3.06,0.37-7.54,1.41-12.88
	c0.75-3.89,1.07-3.96,2.64-10.31c2.27-9.22,2.64-13.43,4.08-13.42c1.24,0,2.03,2.3,3.84,4.79c3.68,5.08,9.09,7,14.62,8.87
	c22.7,7.69,50.58,9.59,50.58,9.59c9.39,0.64,29.98,1.96,58.96,2.7c0,0,16.76,0.43,39.81-1.54c1.93-0.16,10.69-0.96,21.57-4.28
	c13.2-4.03,16.54-7.82,17.74-9.35c5.36-6.87,3.86-14.79,5.11-14.83c1.8-0.06,4.8,16.55,5.92,41.67c0.78,17.58,0.25,30.5,0,37.72
	c-0.54,15.29-0.36,35.13,0,74.8c0.44,48.39,1.65,48.31,0.96,71.92c-0.15,5.25,1.96,18.76-0.32,36.44
	c-1.07,8.29-2.65,15.03-3.84,19.5c-2.54,3.34-6.57,7.93-12.47,12.15C395.26,489.02,388.22,491.74,377.18,494.36z"/>
<path class="st3" d="M406.63,115.1c-0.19,17.87-2.47,35.95,0.02,52.43c0.19,1.29,1.43,6.12,0.79,12.42
	c-0.31,3.09-0.97,9.56-5.01,14.9c-7.12,9.42-20.19,9.31-22.05,9.27c-14.95,2.21-27.21,3.11-35.8,3.52
	c-21.63,1.02-37.08-0.28-48.27,1.28c-1.84,0.26-4.65,0.74-8.45,0.3c-4.17-0.48-5.87-1.64-11.13-2.52c-1.58-0.27-3.44-0.55-7.15-0.68
	c-13.63-0.48-19.08,1.71-29.65-0.18c-10.33-1.85-18.21-6.29-23.21-9.7c-2.11-2.97-4.43-7.15-5.43-12.47
	c-0.65-3.46-0.5-6.14-0.46-7.01c0.36-7.5,0.32-32.41,0.07-67.42c-1.61-9.6,4.18-17.4,3.73-26.41c-1.15-3.35-2.1-8-0.44-12.6
	c1.93-5.36,10.72-19.82,105.76-18.78c22.05,0.24,51.73,1.35,86.96,5.01C406.81,76,406.72,95.55,406.63,115.1z"/>
<path class="st3" d="M300.78,56.77c-48.5,13.43-76.12,60.43-86.38,52.7c-2.5-1.89-2.23-5.71-1.96-12.11
	c0.65-15.23,0.92-36.29-0.6-63.13c5.38-0.71,12.92-1.59,21.99-2.31c5.93-0.47,10.46-0.72,12.96-0.83
	c45.2-1.83,67.79-2.83,78.76-2.73c19.41,0.18,45.95,1.4,78.11,5.84c0.09,2.66,0.42,7.07,1.69,12.34c2.25,9.34,5.03,11.27,4.43,13.42
	C407.27,68.87,350.56,42.99,300.78,56.77z"/>
<path class="st0" d="M468.98,285.7c-0.63-0.42-0.88-0.33-1.04,0.41C468.57,286.54,468.82,286.44,468.98,285.7z"/>
<path class="st3" d="M429.28,34.43c4.85,5.61-22.88-1.72-28.68,1.71C401.03,29.66,421.97,35,429.28,34.43z"/>
<path class="st4" d="M412.02,162.89c0.83-3.64,3.12-5.96,4.16-7.03c10.78-11.21,13.2-21.26,17.26-20.46
	c2.82,0.56,3.71,5.79,5.21,12.75c0,0,5.21,24.18,18.44,60.45c1.18,3.24,2.99,8.01,5.43,13.74c0,0,0,0,0,0
	c0.01,0.02,2.1,4.4,18.24,17.68l1.69,30.37c0,0,2.31,6.11,1.04,6.82c-0.34,0.19-0.84-0.08-1.04-0.2
	c-21.69-12.37-28.88-19.52-28.88-19.52c-7.67-7.64-13.35-13.29-16.94-20.46c-0.75-1.5-1.81-3.42-3.42-6.56
	c-0.41-0.78-1.28-2.48-2.33-4.63c-13.59-27.69-11.6-37.31-17.96-54.3C412.42,170.24,411.12,166.85,412.02,162.89z"/>
<path class="st5" d="M211.84,34.23c3.15,0.73,6.61-1.45,9.59-0.51C218.89,34.28,213.07,36.75,211.84,34.23z"/>
<path class="st3" d="M188.61,33.5c1.84,0.44-0.74,1.08-1.51,0.86C178.28,34.85,182.14,32.88,188.61,33.5z"/>
<path class="st5" d="M210.73,34.54c-8.6,0.13-8.45-1.45,0.06-0.93C211.85,33.84,212.11,34.76,210.73,34.54z"/>
<path class="st3" d="M203.03,33.54c0.39,1.31-2.04,1.01-2.54-0.01C201.33,33.26,202.18,33.3,203.03,33.54z"/>
<path class="st5" d="M468.61,42.99c-0.28-0.15-0.36-0.38-0.24-0.68C468.57,42.55,468.97,42.69,468.61,42.99z"/>
<path class="st3" d="M210.85,175.31c0.43,5.07,2.03,14.22,9.06,19.54c1.86,1.41,4.01,2.49,17.58,5.11
	c10.02,1.94,15.03,2.91,23.33,3.84c2.06,0.23,7.87,0.85,24.93,1.6c16.45,0.72,24.67,1.08,34.48,0.91c9.14-0.15,15.52-0.5,27.53-1.23
	c14.32-0.87,20.32-1.58,24.93-2.24c13.06-1.87,19.69-2.88,24.29-6.71c8.8-7.34,9.08-19.23,10.27-18.92
	c1.13,0.29-0.73,10.61-2.92,15.73c-1.86,4.35-4.77,7.25-4.77,7.25l0,0c-3.29,3.29-7.59,4.63-9.03,5.05
	c-4.95,1.47-9.52,1.99-12.75,2.33c-9.59,1.01-13.71,1.23-13.71,1.23c-15.78-0.21-22.59,2.38-60.12,1.76
	c-18.81-0.31-34.29-1.24-44.74-2c-4.62-0.29-11.34-0.97-19.3-2.72c-13.88-3.06-22.75-5.02-27.27-12.3
	C211.35,191.44,208.39,185.65,210.85,175.31z"/>
<path class="st1" d="M184.76,217.96c0.66-2.54,3.03-3.72,4.42-5.58C190.55,215.82,182.17,228.92,184.76,217.96z"/>
<path class="st1" d="M180.41,211.93c-1.12-0.02-1.71-0.59-1.76-1.71C179.8,210.21,180.38,210.79,180.41,211.93z"/>
<path class="st1" d="M196.94,195.33c-0.28-0.27-0.56-0.54-0.84-0.81C196.38,194.79,196.66,195.06,196.94,195.33z"/>
<path class="st3" d="M175.4,394.85c0.34,0.1,0.5,0.31,0.4,0.67C175.48,395.4,175.3,395.21,175.4,394.85z"/>
<path class="st3" d="M177.15,397.39c0.15,0.23,0.3,0.47,0.45,0.7C177.27,397.98,177.09,397.76,177.15,397.39z"/>
<path class="st1" d="M183.95,406.23c0.42,0,0.62,0.19,0.59,0.62C184.34,406.64,184.14,406.44,183.95,406.23z"/>
<path class="st3" d="M435.64,141.47c-1.5-18.4-0.59-28.96-1-41.32c-1.32-39.81-1.98-59.72-2.17-60.32
	c-0.23-0.72-1.08-3.26,0.14-4.82c1.32-1.68,4.01-0.93,9.68-1c7.4-0.1,7.17-1.44,9.74-0.63c3.98,1.26,6.23,4.93,10.16,11.89
	c4.46,7.89,6.76,14.13,9.91,25.89c5.44,20.28,6.4,18.28,7.67,27.17c1.04,7.32,1.02,13.94,0.96,27.17
	c-0.04,10.04-0.33,15.05-0.32,18.54c0.02,8.76,0.36,15.87,0.64,20.46c-4.45,1.16-30.8,7.74-40.95-5.06
	C437.27,155.86,436.48,151.75,435.64,141.47z"/>
<path class="st3" d="M170.94,387.96c0.2,0.21,0.48,0.44,0.07,0.58C170.87,388.36,170.84,388.16,170.94,387.96z"/>
<path class="st4" d="M406.09,134.02c-0.49-7.67,0.14-6.13,0.17-26.42c0.03-16.41-0.38-17.44,0-27.49c0.25-6.73,0.53-8.59,0.34-13.46
	c-0.35-8.83-1.59-11.69-1.29-17.54c0,0,0.23-4.65-0.32-7.35c-0.03-0.15-0.31-1.5-0.66-3.35c-0.04-0.21-0.07-0.36-0.1-0.55
	c-0.4-2.21-0.61-3.36-0.56-3.64c0.17-0.98,5.3-1.49,25.62,0.22c3.24,13.76,5.99,30.46,6.7,49.52c0.46,12.36,0,23.68-0.94,33.74
	c-1.2,12.81,2.54,26.14,2.87,28.43c0.78,5.41,1.57,9.96,2.19,13.32c-0.45,2.46-1.43,5.7-3.64,8.89
	c-6.81,9.84-19.27,10.46-21.11,10.52c-1.89-5.22-4.09-12.14-5.89-20.44C408.53,154.12,406.82,145.4,406.09,134.02z M434.71,126.31
	c0.42-0.63,0.33-0.88-0.41-1.04C433.87,125.9,433.97,126.15,434.71,126.31z M414.7,174.19c0.42-0.63,0.33-0.88-0.42-1.05
	C413.86,173.77,413.96,174.02,414.7,174.19z"/>
<path class="st3" d="M404.93,92.68c-1.37-2.35-1.39-6.37,0.03-8.7C406.27,86.63,406.29,90.27,404.93,92.68z"/>
<path class="st3" d="M401.42,57.86c0.38-2.52-0.89-5.77,0.86-7.82C403.59,52.06,404.22,57.34,401.42,57.86z"/>
<path class="st3" d="M133.93,109.51c0.07-17.2-1.57-18.7,0-27.81c1.34-7.78,3.62-12.99,7.03-20.78c5.2-11.88,12.8-29.24,21.43-28.9
	c2.69,0.11,3.89,1.88,9.58,2.37c4.66,0.41,5.97-0.59,8.46,0.14c5.06,1.5,7.36,7.91,8.48,11.04c4.8,13.43-1.2,27.7-3.52,32.6
	c1.91,6.31,4.34,17.45,2.24,31c-1.32,8.51-4.02,15.34-6.39,20.14c-2.13,11.53-3.88,21-5.14,28.92c-0.43,2.71-1.29,8.21-5.09,10.08
	c-1.14,0.56-2.08,0.57-5.11,0.64c-11,0.26-8.59,0.39-10.87,0.32c-12.02-0.35-18.02-0.53-20.14-3.2c-1.35-1.7-1.22-3.29-1.28-9.27
	c-0.16-16.95-1.1,0.93-0.64-19.18C133.41,118.44,133.89,118.8,133.93,109.51z"/>
<path class="st2" d="M206.52,175.37"/>
<path class="st2" d="M211.72,157.09c2.81,10.79-18.6,2.19-9.56,0.04C205.8,158.96,208.09,159.17,211.72,157.09z"/>
<path class="st3" d="M177.88,160.55"/>
<path class="st3" d="M179.5,157.07"/>
<path class="st2" d="M211.71,134.46c2.75,2.45-0.54,5-3.03,3.65C208.54,136.52,210.47,135.27,211.71,134.46z"/>
<path class="st2" d="M212.58,141.41c0.02,1.45,0.29,3.43-1.68,3.52C209.89,142.38,209.94,142.27,212.58,141.41z"/>
<path class="st2" d="M211.71,115.3c-0.08,1.21,0.44,2.57-0.84,3.5C209.55,116.72,209.67,116.2,211.71,115.3z"/>
<path class="st2" d="M210.87,129.24c0.51,1.53-1.04,2.57-1.33,0.67C209.64,129.34,210.33,129.3,210.87,129.24z"/>
<path class="st3" d="M194.79,34.26c-0.96-0.2-0.68-1.12,0.15-0.91C195.58,33.65,195.37,34.01,194.79,34.26z"/>
<path class="st3" d="M143.2,106.55c-0.36,0.03-0.73,0.05-1.09,0.08C142.42,105.9,142.8,106.03,143.2,106.55z"/>
<path class="st3" d="M453.43,192.93"/>
<path class="st3" d="M447.63,186.63"/>
<path class="st1" d="M454.56,204.99"/>
<path class="st1" d="M450.18,309.37c-13.77-0.74-4.46-27.61-1.34-29.92C452.31,289.19,442.49,299.81,450.18,309.37z"/>
<path class="st6" d="M421.38,191.9"/>
<path class="st3" d="M446.02,178.88"/>
<path class="st7" d="M178.04,260.38"/>
<path class="st1" d="M209.69,233.05"/>
<path class="st2" d="M382.93,518.97"/>
<path class="st8" d="M166.66,211.44c1.43-5.17,9.17-5.4,18.34-11.2c3.97-2.51,6.94-4.94,8.74-6.5c0.03,32.93-0.02,65.86-0.15,98.8
	c-0.06,15.2-0.14,30.4-0.24,45.6c0.02,3.02,0.05,8.79,0.12,16.11c0.15,16.75,0.25,19.61-1.3,20.24
	c-3.64,1.47-11.82-11.17-18.4-21.21c-2.03-3.1-3.59-5.75-4.7-9.42c-1.47-4.84-1.3-8.61-1.05-15.19c0,0,0.21-5.61,0.64-18.22
	c0.31-9.21-0.39-12.17-0.96-24.29c-0.19-4.06-0.16-3.76-0.32-29.41c-0.17-26.61-0.26-39.91-0.61-41.47
	C166.56,214.35,166.22,213.03,166.66,211.44z M177.96,227.33c-10.99-0.32-3.17,6.52,3.45,5.12
	C186.05,230.86,181.52,225.98,177.96,227.33z"/>
<path class="st9" d="M167.83,209.9c1.02-1.38,2.31-2,3.23-2.44c2.55-1.22,10.16-4.87,13.94-7.23c5.91-3.68,7.24-7.18,8.74-6.5
	c1.51,0.68,0.57,4.44,0.01,12.81c-0.56,8.33-0.35,15.35-0.16,21.74c0.2,6.86,0.31,10.29,0.32,10.55c0.34,6.07,0.74,8.09-0.19,11.19
	c-0.68,2.27-1.55,3.39-4.28,7.35c-1.83,2.66-4.49,6.57-7.67,11.51c-10.12,10.59-13.26,10.22-14.35,9.6
	c-1.98-1.14-0.98-5.34-0.08-19.53c0.53-8.37,0.79-12.55,0.69-16.28c-0.4-14-0.59-21.01-1.28-24.93
	C166.49,216.31,165.8,212.66,167.83,209.9z"/>
<path class="st3" d="M381.97,159.06"/>
<polygon class="st4" points="177.43,152.51 196.52,163.71 205.95,167.32 209.69,167.32 211.98,138.49 212.6,83.09 211.98,48.61 
	211.84,34.23 185.5,33.88 180.43,34.54 179.61,41.79 178.81,59.7 178.65,138.49 "/>
<path class="st2" d="M256.99,375.77c-16.09,8.1-32.18,16.19-48.27,24.29"/>
<path class="st2" d="M351.92,511.94"/>
<path class="st1" d="M299.82,496.28"/>
<path class="st3" d="M389.96,53.9"/>
<path class="st1" d="M267.65,72.36"/>
<path class="st1" d="M274.24,213.64"/>
<path class="st2" d="M248.28,62.85"/>
<path class="st2" d="M210.96,217.23"/>
<path class="st1" d="M177.08,463.03"/>
<path class="st4" d="M140,224.26c-4.67,3.49-9.35,6.98-14.02,10.47c-0.08,13.67-0.15,27.33-0.23,41c10.6-6.38,18.16-12.94,23.2-17.9
	c5.03-4.95,8.79-9.59,16.3-18.86c6.31-7.78,10-12.34,14.38-18.54c6.57-9.29,15.95-22.73,23.01-41.55c2.87-7.65,4.4-13.63,6.39-21.42
	c0.41-1.59,1.8-6.92,2.54-14.07c0.52-5.03,0.78-7.54,0.12-8.93c-4.03-8.37-28.01-8.96-33.05-0.02c-1.4,2.48-1,5.11-0.85,6.25
	c2.12,16.14-7.2,34.19-16.55,52.3C156.95,201.34,150.25,212.48,140,224.26z"/>
<path class="st2" d="M237.49,299.38"/>
<path class="st2" d="M170.69,370.34"/>
<path class="st1" d="M261.79,510.66"/>
<path class="st1" d="M223.11,485.09"/>
<path class="st0" d="M184.43,481.25c-4.55-0.95-5.43-1.72-5.43-2.24c0-1.49,7.27-1.36,9.4-5.75c0.8-1.65,0.55-3.27,0.45-4
	c-0.7-5.38-1.43-26.59-2.19-56.96c1.55,0.33,3.1,0.66,4.65,0.98c-3.43,23.82-1.33,38.87,1.46,48.44c1.05,3.6,4.1,12.96-0.21,17.29
	C190.38,481.22,186.98,481.43,184.43,481.25z"/>
<path class="st0" d="M237.49,184.31"/>
<path class="st2" d="M390.89,492.03"/>
<path class="st10" d="M410.74,221.39"/>
<path class="st1" d="M367.91,507.46"/>
<path class="st0" d="M457.4,590.25"/>
<path class="st1" d="M195.19,560.1c-8.69-1.95-15.72-4.72-20.99-7.24c-9.99-4.78-29.17-13.95-36.14-32.24
	c-1.42-3.71-2.32-8.46-4.13-17.94c-2.02-10.6-3.03-15.91-2.42-19.13c2.14-11.34,12.52-18.44,21.6-24.66
	c4.48-3.07,7.93-4.67,11.19-5.75c4.43-1.47,12.45-4.13,17.9-0.64c2.53,1.62,2.06,2.99,6.33,13.09
	c6.02,14.23,10.18,19.11,14.13,22.39c0,0,1.32,1.12,2.99,2.23c5.93,3.94,16.31,8.02,43.04,11.19c21.18,2.52,37.01,2.6,58.17,2.56
	c9.64-0.02,26.63-0.23,47.95-2.24c4.18-0.39,19.37-1.91,37.08-7.67c1.28-0.42,3.71-1.1,6.71-2.41c3.04-1.33,8.59-3.76,12.88-8.02
	c8.09-8.02,9.99-20.78,10.42-24.93c0.4-3.87,0.08-5.65,1.63-7.15c2.52-2.43,7.36-1.6,19.82,2.88c15.72,5.65,23.59,8.47,27.81,12.79
	c7.85,8.03,9.68,17.78,10.42,21.71c4.76,25.44-13.6,46.34-16.57,49.62c-7.21,5.39-18.2,12.55-32.79,18.21
	c-2.83,1.1-12,4.55-28.7,7.69c-17.41,3.27-30.18,3.8-75.24,4.95c-18.86,0.48-28.3,0.74-29.72,0.73
	C271.92,570.05,236.7,568.01,195.19,560.1z"/>
<path class="st11" d="M355.12,507.46v18.22c0,0,19.5-0.96,31-3.2c9.98-1.94,21.64-8.45,24.56-10.14c0.45-0.26,0.69-0.41,0.69-0.41
	v-22.37c0,0-3.52,3.84-11.19,6.71c-7.67,2.88-12.79,3.45-23.01,5.43c-10.23,1.98-22.06,2.88-22.06,2.88V507.46z"/>
<path class="st3" d="M509.83,74.99"/>
<path class="st4" d="M145.7,95.89"/>
<path class="st3" d="M282.88,41.43"/>
<path class="st4" d="M451.65,151.39"/>
<path class="st1" d="M215.12,486.69"/>
<path class="st1" d="M229.18,494.04"/>
<path class="st1" d="M449.09,543.9"/>
<path class="st2" d="M519.09,472.3"/>
</svg>
