<?xml version="1.0" encoding="utf-8"?>
<!-- Generator: Adobe Illustrator 26.0.2, SVG Export Plug-In . SVG Version: 6.00 Build 0)  -->
<svg version="1.1" id="Layer_1" xmlns="http://www.w3.org/2000/svg" xmlns:xlink="http://www.w3.org/1999/xlink" x="0px" y="0px"
	 viewBox="0 0 600 600" style="enable-background:new 0 0 600 600;" xml:space="preserve">
<style type="text/css">
	.st0{fill:#161616;}
	.st1{fill:#2B2B2B;}
	.st2{fill:#212121;}
	.st3{fill:#4F4F4F;}
	.st4{fill:#3A3A3A;}
	.st5{fill:#FFFFFF;}
	.st6{fill:#3B3B3B;}
	.st7{fill:#575757;}
	.st8{fill:#4E4E4E;}
	.st9{fill:#C81E22;}
	.st10{fill:#B12026;}
	.st11{fill:#C72026;}
	.st12{fill:#E61E25;}
	.st13{fill:#ED2F24;}
</style>
<g id="XMLID_00000093142294709511997900000005057608433679195312_">
	<g>
	</g>
	<g>
	</g>
</g>
<path class="st0" d="M147.53,355.18c2.51,25.65,7.05,51.77,12.5,76.64c13.49,18.63,4.5,26.81,9.33,39.9
	c5.19,4.51,10.71,0.82,15.96,3.24c0.2,0.42,0.34,0.49,0.42,0.48c1.2-0.12,0.82-16.48,0.26-27.45c-0.54-10.62-1.12-13.77-0.05-14.12
	c2.91-0.94,10.65,21.08,20.14,31.01c0.72,0.75,2.83,3.21,4.92,6.88c1.11,1.95,2.08,4.6,2.63,8.86c1.99,5.73,14.65-1.69,19.1,2.66
	c2.87,2.91,2.56,5.92,5.98,8.13c10.66,2.86,65.18,17.41,112.52,25.33c33.25,5.56,41.3,4.23,48.05,1.86
	c8.39-2.95,16.43-8.09,27.72-5.99c6.04,1.12,15.18,4.72,16.15,10.63c1.22,7.43-11.05,14.92-18.34,19.27
	c-22.93,13.69-45.52,16.05-52.93,16.71c-35.06,3.16-32.64-4.4-79.61-4.12c-20.63,0.12-38.61,1.68-63.79-5.46
	c-7.09-2.01-12.79-4.16-16.58-5.69c-3.23-1.96-5.15,0.77-4.48,3.71c-5.15-0.22-10.25-1.2-15.42-0.9c-4.38-0.97-7.99,0.54-12.34-0.19
	c-4.17-5.31-13.32-2.65-17.63-6.48c-1.97-3.63-1.37-5.67-5.95-6.87c-7.14-8.02-12.99-15.75-14.54-26.58
	c0.04-1.55,0.78-3.96-0.98-4.83c-5.51,4.06-7.89-6.36-12.32-10.43c-20.89-19.36-14.47-45.77-10.22-70.68
	c-6.94-12.36-22.24-27.41-8.39-39.09c2.86-1.44,4.67-3.05,5.69-4.09c8.71-8.84,3.33-19.57,10.14-33.19c0.2-0.41,1.98-3.93,2.9-8.9
	c0.17-0.92,1.45-7.75-0.46-8.59c-1.44-0.63-3.16,2.79-6.8,2.89c-1.63,0.04-2.99-0.59-3.89-1.15c-2.33-0.72-5.17-2.06-8.43-3.72
	c-2.61-1.33-4.98-2.91-6.99-5.23c-9.4,1.8-6.42-8.9-3.02-13.71c0.44-3.21,1.97-11.1,8.47-17.84c3.16-3.28,6.5-5.25,8.97-6.41
	c1.84-0.25,7.47-1.27,11.58-6.1c1.57-1.85,2.48-3.73,3.02-5.2c2.93-0.76,0.88-5.52,2.39-7.77c1.44-2.67-1.1-6.51,0.64-9.88
	c0.96-18.85,1.92-37.7,2.89-56.55c-0.87-3.92-1.61-8.61-1.86-13.93c-0.18-4.02-0.05-7.68,0.23-10.91
	c-1.31-11.16-2.2-20.47-2.79-27.16c-3.59-40.93-1.72-50.96,2.72-59.82c1.74-3.47,1.38-1.77,9.81-14.46
	c8.87-13.34,15.53-24.62,19.86-32.25c9.81,0.83,17.76,1.05,23.16,1.09c5.81,0.05,9.16-0.09,19.17-0.24
	c8.91-0.13,16.12-0.17,20.69-0.17c3.71-0.68,9.58-1.61,16.83-2.08c16.57-1.07,26.01,1.21,43.29,2.31
	c18.16,1.15,16.53-0.81,30.18,0.23c35.98,2.74,39.33,15.75,61.28,12.77c19.39-2.63,21.53-13.43,41.09-13
	c9.21,0.2,15.58,2.75,26.31-0.3c4.43-1.26,8.28-3.09,13.39-1.79c6.33,1.62,10.1,6.91,11.02,8.2c2.7,3.78,1.82,4.98,5.4,14.8
	c1.8,4.94,2.14,4.94,5.63,13.68c1.9,4.74,3.36,8.64,4.29,11.17c-9.3,55.33-15.11,98.23-17.15,119.87
	c-0.58,6.14-1.4,16.35,0.57,29.37c1.95,12.89,5.79,22.98,8.59,29.25c-0.82,6.24-0.74,14.4,3.95,21.12
	c4.35,6.24,9.18,6.24,11.14,12.07c2.55,7.6-2.11,18.17-8.85,20.69c-3.71,1.39-5.1-0.76-8.52,0.28c-9.67,2.95-16.24,25.58-8.11,40.07
	c3.55,6.32,6.45,4.97,9,10.69c4.48,10.08-4.28,14.82-5.8,35.98c-0.67,9.37,0.6,14.62-0.93,25.77c-0.45,3.27-0.53,4.97-0.7,8.36
	c-0.34,6.95-0.65,13.44,1.39,14.16c2.2,0.78,4.63-6,7.2-5.57c4.82,0.81,5.4,26.37,0.46,50.14c-2.5,12.02-5.38,18.64-7.03,18.44
	c-2.35-0.28-0.34-13.52-5.82-15.92c-4.38-1.91-11.1,4.15-14.77,7.46c-11.56,10.42-11.94,19.38-17.41,19.73
	c-5.56,0.36-11.34-8.49-13.7-15.55c-4.41-13.23,2.86-21.23-2.09-26.93c-4.39-5.05-14.04-3.3-25.77-1.16
	c-12.8,2.33-23.4,6.54-31.57,10.68c-38,45.9-102.92,57.77-151.82,29.95c-53.81-30.62-75.41-102-45.27-160.64
	C158.14,360.14,152.84,357.66,147.53,355.18z M203.28,208.33c-0.56,0.13-0.75,0.61-0.32,0.96
	C203.69,209.59,203.93,208.69,203.28,208.33z"/>
<path class="st1" d="M423.16,544.27c-8.04,8.12-21.52,4.7-30.37,10.9c-0.25-1.37,0.82-11.53,3.27-7.94
	c-0.18,8.77,13.19-6.97,7.08-10.73c-4.99-6.06-8.96-7.65-15.78-4.94c-2.51-0.83-7.55-1.4-11.27-0.21
	c-5.2-13.63-26.83-14.26-40.21-21.07c-5.32-0.96-8.63-5.85-13.94-7.12c-1.37-1.4,2.47-3.34,3.44-4.05c2.76,0.37,5.93,0.36,8.39-0.54
	c3.77-2.5,6.55,3.6,10.3,2.75c5.71-0.99,4.9,4.52,9.82,2.57c4.32-1.09,2.36,4.76,5.92,4.99c0.29,14.8,40.56,1.9,52.94,3.16
	c6.02-1.41,5.45-1.08,5.5-6.83c0.96-12.81,2.68-21.47-12.82-15.64c-13.53,1.57-27.87,4.62-42.25,4.53c-2.79,2.58-0.66-0.73-2-2.38
	c-1.78-7.5-10.81-1.34-16.32-12.8c-1.61-3.63-7.94,4.73-15.38-1.04c-8.86-1.15-18.65,1.13-28.02-0.21
	c-15.76-2.14-27.74,12.82-42.94,2.95c-1.16-1.66,3.39-3.14,0.97-4.44c-12.23,0.35-3.59-9.42-22.56-18.53
	c-19.1-3.93,7.43,14.06-19.22,7.36c-8.27-28.95-15.73-4.62-12.8-37.86c3.93,2.68,14.16,23.77,15.75,13.08
	c3.75-46.45-22.36,15.83-15.71-54.31c9.08-6.83-1.22,22.03,17.96,8.07c2.82-1.81-0.79-5.92,3.98-6.82c2.75-1,7.4,4.38,10.38,5.33
	c9.67,1.28,19.64-0.96,27.18-2.97c12.37-3.77,25.52,0.54,28.77,15.14c1.5,2.42-0.22,6.73,3.02,7.56c8.04,7.18,11.45,1.51,13.84-6.62
	c-8.65-18.91-25.15-34.65-43.19-44.5c-13.27-10.53-28.67-21.28-29.77-39.4c1.31-4.12,9.15-16.51,13.11-8.94
	c10.24,10.27,34.41,20.13,46.44,30.61c6.68,8.5,6.08,0.49,15.34,10.46c9.28,6.05,18.87,17.63,31.16,14.5
	c17.65,3.1,8.03-10.02,2.32-17.67c-0.52-6.61,1.68-13.55,3.26-20.19c0.29-6.98-6.22-14.98-0.83-21.76
	c2.45-5.84,2.81-8.42,1.79-17.11c-4.88-5.68-15.84,1.37-22.47-1.99c-2.94-2.8-4.12,3.81-6.6,0.54c-2.19-1.92-7.91,0.66-11.7,0.18
	c-3.37,1.26-4.12-4.53-8.09-2.44c-1.6,0.05-3.3-1.29-4.69,0.31c-3.88,3.68-7.17-4.21-11.77-1.38c-6.05,1.82-9.22,4.7-14.87,7.81
	c-1.96,2.74-5.61-1.31-6.84,2.05c-0.63,1.05-2.49,0.53-3.56,0.64c-4.31-1.01-3.38,6.54-7.87,3.61c-3.86-3.72-8.12-2.05-7.33-8.05
	c-1.73,0.31-2.89,3.41-5.12,4.22c-4.62-0.24,2.95-7.64-3.27-9.13c-6.42-1.66-2.89-6.87-5.55-10.13c-1.66-2.56-8.37-1.03-5.72,1.96
	c7.59,3.62-4.94,5.04-4.16-1.03c2.09-19.1-7.46-18.14-0.82-37.65c-10.36-7.73-8.29-1.27-8.44-15.44c6.2,2.51,5.26-2.37,6.63-6.42
	c3.21-4.26,2.97-9.91,8.56-6.24c4.88,0.14,1.97,8.64,7.54,6.57c12.17-0.59,12.83-0.67,22.69-3.64c11.65-0.31,18.48,0.67,28.18,6.65
	c6.55,5.49,20.13-0.94,21.62,9.18c-0.26,7.93,6.21-0.28,10.34-0.08c4.49-2.7,8.59,4.02,14.75,0.37c7.28-0.96,15.21,6.33,22.7,2.74
	c3.52-2.59,8.42,8.88,10.41,4.52c5.58-1.78,3.39,10.27,14.99-0.27c1.17-1.25,3.37-1.52,4.35-3.16c1.15-2.78,5.17,0.15,5.76-2.77
	c0.29-5.9,6.8-8.27,9.49-13.76c11.62-10.21-4.39,13.63-3.49,19.87c-6.06,11.62-14.38,23.08-21.64,34.74
	c-0.6,2.49-4.97,2.94-3.32,6.07c-2.91,10.65-3.99,14.06,9.02,8.74c4-4.07,13.47-0.38,13.53,5.37c9.34,2.96,7.56-2.75,5.72,10.95
	c-10.1,24.57-8.86,49.92-11.68,76.39c-0.37,8.71-3.22,16.59-0.9,25.42c-4.04-5.02-13.16-6.91-12.17-14.48
	c1.25-3.79-6.8-3.41-2.04-6.8c-7.64-7.95-22.64-8.03-32.99-12.23c-12.91-4.5-23.26-15.16-34.98-19.04
	c-10.58-8.97-85.34-58.88-55.13-14.16c22.54,14.98,43.01,35.22,60.88,55.02c7.86,4.29,14.99,9.29,23.38,13.05
	c4.36,2.61,9.65-0.13,10.86,7.15c3.83,13.48-12,7.9-19.27,7.05c-11.59,0.71-25.23,0.65-33.62-10.5c-3.38-1.89-1.2-6.98-1.81-10.19
	c-0.57-11.02-16.46-12.3-20.24-2.88c-7.57,7.32-12.13,26.22,1.68,29.11c6.43,5.23,15.25,14.3,23.46,19.19
	c5.66,0.6,1.75,5.76,5.39,6.02c18.78-6.08,12.96,4.27,20.05,2.58c6.92,5.47,14.95,13.9,24.37,17.08c5.36,2.25,34,1.15,21.9-6.09
	c-1.2-4.68-1.06-4.85,0.85-9.16c1.17-4.56-2.5-9.62,0.82-13.27c3.6-5.63-5.68-4.22-5.63-7.98c1.49-14.28,15.84,6.08,22.53-16.96
	c0.32-25,3.97,35.44-0.39,46.37c4.16,11.15,0.08,5.88-3.13,8.52c-0.75,2.35,4.68,1.08,6.36,1.71c2.61-0.49,4.11,1.15,5.28,3.26
	c2.79,2.8,3.38-5.14,6.43-1.21c2.34,3.46,4.89-3.15,3.24-4.73c-6.07-2-0.56-4.09-1.39-8.12c1.37-3.51-4.79-2.72-3.77-8.39
	c5.26-23.1-8.86-116.94,16.22-112.59c1.52-2.94-2.01-9-4.83-10.17c-4.48-2.23-0.64-11.1,0.45-14.85c3.95,1.4,1.07,6.09,1.96,8.9
	c0.92,7.58,6.39,10.89,10.35,15.92c6.27,22.29,19.91-9.29,30.66-4.62c-0.94,6.08-5.23,17.98,0.86,22c-0.2,1.66,0.53,3.76-0.78,5.06
	c-2.18-1.32-18.33-4.3-13.17,2.29c5.96,8.42,3.75,7.61-1.24,14.58c0.92,4.29-5.01,6.2-0.87,9.2c2.56,19.65,14.57,9.28-12.1,19.69
	c-5.95-4.74-10.77-0.82-6.38,5.31c2.19,3.47-6.8,3.07,0.5,7.98c5.21,4.02,1.3,7.25-0.27,4.4c0.09-5.07-7.99-2.13-3.62,0.98
	c5.5,3.13-0.21,6.46,2.68,9.89c6.56,6.6-1.04,8.42-1.04,17.01c-3.09,2.49,4.31,11.43,8.22,12.77c-1.44,8.26,4.51,16.63,1.01,24.37
	c-6.32,10.44,2.78,11.63-6.64,24.55C414.79,527.76,428.64,534.65,423.16,544.27z M299.85,284.82c0.26-7.77,4.85-3.32,9.26-2.63
	c4.14-1.7,6.61,2.67,8.85,2.66c2.89-3.4,6.98,0.44,10.67-1.34c4.39-0.8,7.93-3.85,12.27-2.19c7.94-0.7,14.37,2.6,21.62-1.92
	c-2.34-12.56-5.83-29.06-19.52-34.96c-5.04-3.68-5.04,7.77-10.13,5.12c-4.39-4.17-8.45,2.89-12.06-1.23
	c-2.46-1.23-3.92,3.53-7.01,1.44c-6.61-2.75-16.68,1.65-22.77,4.52c-6.86-1.3,9.55-15.72,3.75-21.49
	c-6.25,1.7-10.65-4.96-16.02-6.23c-39.13-26.75-29.02,21.23-9.84,40.1c5.12,9.58,21.71,8.31,22.94,16.75
	C296.15,288.57,296.72,280.16,299.85,284.82z M376.81,326.58c-0.55-4-6.75-30.75-11.8-19.03c0.66,5.34-7.91,0.18-7.41,4.98
	c0.41,7.38-1.75,15.51-3.08,22.77c4.53,9.19,6.88,18.27,10.64,27.58c-2.57,9.6,4.35,1.63,9.36,2.03c2.79-3.17,4.59-7.61,6.17-11.61
	C383.35,343.61,372.19,337.43,376.81,326.58z M374.17,297.94c2.17,0.01,3.71-3.99,1.09-4.47
	C374.1,294.04,371.6,297.45,374.17,297.94z M226.6,459.12c0.43-1.73-2.43-2.23-2.74-0.72C223.61,459.86,226.32,460.48,226.6,459.12z
	 M408.5,427.83c1.58-0.14,1.14-2.58-0.4-2.15C406.81,426,407.23,427.97,408.5,427.83z M297.5,469.89c-1.02,0.12-0.74,1.64,0.1,1.56
	C298.63,471.29,297.99,470.24,297.5,469.89z"/>
<path class="st2" d="M207.44,547.68c-0.78-8.95,18.45-1.76,20.14-10.59c2.33-4.06-4.33-7.23-2.23-10.01
	c8.67-4.47,21.27,9.75,28.38,2c1.19-6.75-8.14-10.61-1.36-11.38c4.21-4.14-0.36-6.41,0.33-10.2c0.24-1.04,0.59-2.88-0.64-3.42
	c-3.48-0.81,0.45-4.43-2.18-5.28c-3.71-5.44-10.92-4.91-14.33-10.41c-0.96-9.16-13.51-5.93-20.25-5.63
	c-3.09-1.09-2.12-7.68-3.58-10.88c-7.86-5.52-7.21-13.84-6.81-23.65c12.71-3.4,6.55,18.31,16.27,17.76
	c2.8-2.65,10.53,4.52,9.08-3.26c-3.1-5.28,2.42-7.03,6.67-5.07c17.75,7.98,10.42,18.54,22.56,18.54c2.43,1.34-2.12,2.75-0.97,4.44
	c4.2,2.26,9.96,4.77,14.97,3.31c21.32-11.06,46.65-3.22,68.95-5.85c4.93,0.45,7.61,11.54,14.42,9.28c7.43,0.61,4.73,17.9,2.95,21.52
	c-3.47-0.21-1.74-6.15-5.92-4.99c-4.01,1.94-5.55-3.84-9.82-2.57c-3.72,0.85-6.55-5.25-10.3-2.75c-4.09,1.56-8.67-0.72-11.96,3.16
	c10.6,11.21,31.23,12.66,45.7,20c1.83,4.29,9.2,2.85,6.93,8.08c-0.07,0.8,0.92,1.74,1.65,1.53c6.98-1.19,13.53,0.38,19.98-1.45
	c9.27,5.64,11.46,15.78,0.62,20.45c-1.68-8.59-4.35,0.57-3.91,4.81c-7.72,0.47-15.81,3.26-23.35,0.52
	c-3.61-1.13-5.46,7.75-7.95,3.39c0.08-8.78-16.23-8.86-22.23-6.03c-1.69,1.25-1.66,1.46-3.45,0.41c-3.41-2.4-5.25,2.79-8.78,1.82
	c-12.01-2.08-26.17,0.42-36.7-1.24c-5.71-2.33-39.43,1.43-24.11-4.31c-0.99-2.31-4.5,0.84-6.64-0.33c-3.33,1.05-5.29-4.43-8.28-1.72
	c-31.21-8.46-3.87,6.98-19.23,3.39c-1.15-0.15-4.66,0.45-3.58-1.4c1.17-0.26,4.11-0.29,2.65-2.19c-5.44-8.56-27.92,1.21-8.26,1.08
	c5.27,2.61-11.6,2.24-12.59-0.38C210.4,545.44,208.97,547.59,207.44,547.68z M357.32,523.32c1.22-0.11,3.4-0.67,2.02-2.18
	C356.96,519.4,353,522.98,357.32,523.32z M366.47,528.62c-0.42,0.61-0.32,0.85,0.4,1.01C367.28,529.02,367.18,528.79,366.47,528.62z
	"/>
<path class="st1" d="M472.2,46.95c3.62,23.63,8.22,53.89,6.1,76.6c-7.53-18.15,5-36.14-18.34-43.2c-3.6-6.66-10.98-0.66-16.33-4.43
	c-0.84-0.44-1.78,0.19-1.82,1.1c1.59,15.65,1.64,31.49,1.54,46.71c-9.55-1.71,2.66-21.03-4.7-27.42
	c-0.27-7.59-8.63-8.81-12.82-12.19c-7.49,0.72-8.9-0.99-10.74,7.13c-1.13,1.61,0.53,3.55,1.05,5.12c-0.1,2.6-2.63,4.57-0.86,7.43
	c0.46,4.85-2.18,8.47-3.1,12.96c-0.19,17.3-2.39,34.81,0.02,50.77c-5.11,5.78-0.6,11.07,3.37,14.33
	c1.78,20.47-0.6,27.37-24.93,24.74c-2.73-1.94-6.49,1.17-8.59-1.62c-6.11-11.23-9.58,9.1-17.18,0.19c-13.86,3.4-4.97-9.64-15.71-5.3
	c-2.86,2.28-3.99,7.36-8.55,6.42c-14.27-4.27-13.22-20.58-14.81-31.07c-8.57-13.51-21.36-24.63-24.88-1.46
	c2.86,4.64-2.36,12.21,1.63,16.06c3.13,1.97,11.79,13.52,6.69,15.6c-29.16,5.46-6.04-19.05-25.86-22.58
	c-16.19,6.27,8.03,21.32,5.71,23.82c-2.79-3.28-8.87,1.64-9.87-0.33c1.62-3.78-4.22-5.62-6.12-8.03c-3.1-2.43-6.94-0.33-9.76-2.29
	c-8.17-0.87-9.19-10.63-17.33-10.79c-6.58-2.75-29.71-3.02-21.92-13.61c3.98,15.47,15.63-11.41,10.89-17.45
	c-6.76-8.84,3.12-51.98-12.31-43.07c-1.56-9.3,4.05-16.84,3.61-25.58c-3.79-6.4-2.05-17.81,3.12-9.03
	c-2.88,4.67,4.35,4.49,6.24,7.27c26.25,9.1,13.07,0.84,25.16,20.12c4.1,1.82,0.16,8.51,5.74,8.07c2.89,0.4,3.48,2.85,3.28,5.4
	c-0.05,6.31,7.53,8.83,7.67,15.23c2.34,4.82,1.28,9.93,0.83,14.98c1.05,3.43,4.31-2.23,6.63,0.59c2.93,3.47,7.34-0.9,9.26,1.44
	c-3,11.27,10.54,4.46,16.43,7.14c10.09,2.79,17.8,12.21,28.11,13.64c7.88,5.02,17.95,3.8,22.84,14.4
	c3.3,17.89,24.72,8.73,32.91,20.08c14.69-7.92,22.16,6.41,17.55-20.81c-14.98-8.56-6.45-11.73-3.35-23.27
	c-2.17-7.86-3.27-17.15-7.34-25.02c-1.46-10.86,8.03-20.5,8.43-31.97c0.91-12.62,3.28-27.83,1.05-39.48
	c-7.92,10.61-30.23-0.62-43.47-0.1c-4.9,0.11-4.71-8.06-10.46-4.91c-7.31,2.96-15.79,2.44-23.05-0.17
	c-27.51-12.83,54.34,3.09,67.46,2.17c22.72,1.32-17.04-28.87,24.97-21.08c20.42-4.12,3.54,29.47,23.84,24.53
	c3.33,1.31,0.06,5.76,4.15,7.27C489.59,99.06,459.33,53.68,472.2,46.95z"/>
<path class="st2" d="M227.68,73.98c-8.84-3.13-0.35,9.42-1.25,14.34c-4.98,14.31-3.74,27.48-3.81,42.14
	c-3.67,1.72,4.5,1.56-2.13,8.59c8.18-0.36,0.75,2.84,2.16,6.6c0.24,7.33,2,17.42-8.46,11.81c-8.13,2.55,5.62,4.87,7.6,5.87
	c5.61,11.6-29.94-4.67-30.16-8.84c-6.65,6.52,2.77,6.26,5.24,11.53c5.08,1.79,9.5,5.4,15.01,8.14c12.75,1.08,6.26,5.74-0.84,7.45
	c-1.79,3.72,2.21,9.56-2.74,12.02c-1.3,0.65,0,1.8-0.44,2.51c-4.09,11.01-4.53,7.86-10.31,1.73c-7.9-2.35-15.9-10.78-22.77-4.18
	c-9.74,7.28,7.67,9.48,11.61,13.45c-0.99,1.81,2,4.48,3.97,5.04c17.21,11.05-16.03-5.26-21.43-7.62c-0.26-0.82,0.98-4.02-1.05-2.42
	c-3.09,2.09-0.3,5.85-1.62,7.9c-5.5-11.36-7.6,6.82-12.59,1.53c1.35-32.42,0.47-7.99,13.86-15.44
	c10.13-27.25,10.38-7.95,20.56-18.53c3.18-4.56,0.31-4.79-3.71-4.57c-1.03,2.45-1.82,5.18-4.13,5.75c-0.82-3.5,3.5-9.3-3.46-10.39
	c-15.89-2-8.4,24.73-24.2,5.82c-7.13-2.34-20.78-16.78-13.9-0.54c-1.74,9.85,3.98,19.79,0.36,29.25c0.1,6.08,3.64,6.56,0.64,14.64
	c3.48,11.6,3.17,22.54-2.36,33.47c-8.36,1.1-2.11-32.09-4.76-42.4c4.66-39.2-9.98-77.53-1.05-116.18
	c9.45,14.1-0.59,35.48,2.81,51.59c-0.49,9.06,14.32,10.67,8.51,1.62c-1.67-0.03-1.94-1.52-0.24-2.15c6.89-3.78,5.71,3.52,4,6.82
	c6.27,5.71,2.15,15.01,7.5,21.36c4.78,1.63,0.81-7.3,2.08-8.9c5.26-6.05,2.47-19.28,13.87-10.62c10.53,10.32,23.08,1.96,20.57-10.64
	c-0.65-16.96,4.07-33.83-0.73-50.51c1.77-19.43,2.81-17.74-15.47-9.03c8.89-12.47-13.48-7.96-15.8,0.43
	c0.11,5.59-2.11,9.42,2.46,12.78c0.47,3.78-6.15,5.74-2.46,10.06c1.6,2.72-2.49,2.93-2.96,3.42c0.13-9.79-0.07-20.36-1.1-30.37
	c3.53-9-0.09-32.33,6.5-35.36c-2.77,9.8,3.97,4.18,5.81,8.99c-3.33,10.69-10.97,16.09,5.55,10.58c5.87-2.54,20.54,5.73,19.55-5.19
	c0.7-8.52-2-21.28,9.59-19.02c26.93-2.9,18.41,1.27,24.88,22.96c24.41-9.23,51.49-3.56,76.22-8.2c16.83-2.11,28.89,8.06,44.92,7.73
	c4.45,2.46,9.11-3.75,13.75-1.61c6.16,5.25-3.19,4.68-6.89,4C344.54,60.98,209.83,60.44,227.68,73.98z M205.4,188.57
	c-0.71,0.16-0.88,4.15,0.55,3.79C206.81,191.37,205.51,189.75,205.4,188.57z M207.05,38.49c0.57-0.24,0.76-0.59,0.14-0.88
	C206.39,37.41,206.12,38.3,207.05,38.49z"/>
<path class="st3" d="M442.62,92.47c1.54-4.72-3.49-14.74,1.01-16.54c4.21,3.04,8.76,0.04,12.96,1.34c3.82,2.09,5.14,7.48,10.36,6.86
	c14.1-2.55,4.69,44.07,12.51,37.46c-1.31-24.72-3.09-49.43-6.59-72.89c19.58,34.89,20.82,74.5,10.37,112.59
	c-9.52,19.86,0.36,41.3-3.31,62.15c0.38,9.14-8.05,38.09,3.13,36.56c5.33,0.88-1.99,8.34-1.65,11.66
	c-1.28,11.48,5.08,12.15,14.27,14.9c9.42,6.87-18.69,3.17-16.9-2.66c3.78-3.92-9.11-8.22-8.57-13.49
	c5.67-4.72-2.05-16.19-1.51-23.32c-1.45-12.41-7.71-24.07-4.01-35.16c-1.93-8.48-5.73-14.69-7.62-22.92
	c16.18-0.55,15.94-33.3,15.75-50.93c1.38-15.9-15.56-22.02-19.59-35.68c-2.01-2.02-2.99-5.16-6.29-5.48
	C443.9,96.55,446.2,91.93,442.62,92.47z M468.64,194.58c-7.24,1.53-5.28,16-0.17,16.92C472.64,210.3,474.84,189.53,468.64,194.58z"
	/>
<path class="st3" d="M307.69,53.72c-2.08-0.14-19.08-5.56-11.69-6.69c5.4-0.34,13.53,0.75,17.63-1.78
	c-5.64-2.46-1.34-1.62,1.09-3.28c-6.5-1.8-14.77-2.08-21.55-1.82c-7.71,1.18-15.87-2.15-24.17-0.04
	c-11.96-2.11-23.76-2.68-36.15-2.14c7.26-2.58,16.59-1.22,24.56-2.54c47.05-2.55,106.7-6.4,148.92,5.72
	c-5.79,1.04-44.65-8.59-35.83,0.59c2.67,1.11-2.32,4.64,1.55,4.38c3.47,1.72,12.23-1.37,12.82,2.88c-2.72,5.5,3.61-1.18,4.51,0.59
	c2.66,2.33,5.28,4.68,8.15,6.72C410.02,71.4,301.98,41.77,307.69,53.72z M377.46,50.44c0.87-0.18,1.83,0.14,2.2-0.78
	C379.27,47.13,372.53,49.86,377.46,50.44z"/>
<path class="st3" d="M441.74,406.08c-0.35-7.99-9.62-12.11-0.4-18.46c4.01-1.55,2.49-8.4,1.92-11.83c1.74-3.97,9.22-5.32,7.74,0.78
	c-2.82,27.89-4.12,56.64-11.84,84.99c-2.51,16.59-14.99,39.47-5.11,53.58c8.02-6.58-1.32,11.93,3.58,15.84
	c-0.21,2.3-6.3,2.47-5.21,0.6c0.12-3.72-5.76-3.98-6.63-7.01c-3.47-18.35,5.89-35.59,2.33-53.98c0.75-2.8-5.53-2-2.16-5.42
	c-3.4-7.27-0.64-17.63,3.22-25.39C432.44,428.08,438.65,416.41,441.74,406.08z"/>
<path class="st2" d="M469.08,502.12c-3.1-6.73,5.2-10.04,4.33-15.2c-8.78-12.55,5.29-25.64,8.75-37.76
	c2.86-0.48,2.69,3.63,5.44,3.39c0.77,0.52,1.08,1.41,2.09,1.72c0.07,2.08,2.22,1.43,3.17,2.42c0.51,2.03,2.29,1.66,3.6,2.59
	c0.52,0.96,1.61,1.08,2.43,1.6c0.56,1.5,0.46,1.75,2.45,1.71c0.58,2.92,3.53,2.46,5.08,4.2c-3.44,3.04-1.07,11.76-6.28,13.41
	c-11.44-4.84-6.91,5.38-10.2,13.4c-2.41,8.22,12.64-6.48,16.3-2.04c1.89,3.86,3.56,9.76-1.32,11.85c-4.61,3.83-11.16,1.86-16,5.17
	c-4.46-0.85-6.41,5.51-10.32,4.8C471.67,508.77,479.22,490.96,469.08,502.12z"/>
<path class="st0" d="M470.22,270.4c0.88,4.97,6.7,7.59,9.51,11.59c-7.02,7.85-4.9,3.8,3.68,8.57c5.18,1.2-0.56,18.17,1.28,26.11
	c0.36,4.13-6.69,3.76-7.91,7.6c-7.7,6.57-1.73-7.99-7.58-7.6c-7.57-0.26-11.7-2.9-10.48,6.44c-6.63,9.02-1.7-14.44-4.36-18.22
	c-4.65-6.93-2.67-14.35-0.87-21.82C452.45,266.16,453.44,272.62,470.22,270.4z M472.56,281.97c-0.61-0.41-0.85-0.32-1.01,0.4
	C472.16,282.78,472.4,282.69,472.56,281.97z"/>
<path class="st4" d="M134.98,141.42c-3.54-12.36,1.41-23.15,0.16-35.34c1.68-8.22-5.88-13.75-1-20.31
	c11.6-11.07,15.81-25.88,22.89-39.57c2.78,14.15-4.49,28.53-1.85,42.93c-5.58-2.7-3.74,5.68-4.34,9.52
	c2.09,7.01,2.24,13.48-4.52,16.8C140.74,123.23,138.64,133.95,134.98,141.42z"/>
<path class="st4" d="M482.16,449.16c-10.81,29.47-10.17,9.86-20.64-3.94c-7.28-5.31-1.63-14.46-4.68-20.59
	c-3.91-3.97,2.36-8.18,0.15-12.93c2.28-13.04,5.5,17.74,7.68,21.56c2.42,4.07,5.49-3.24,3.4-5.49c-1.64-4.07,4.21-6.83,1.67-11.78
	c5-15.91-6.35-7.62-4.64-15.39c3.15-0.48,5.21,0.38,6.04-4.16c3.67-7.98-7.64-13.08-2.31-20.28c1.24-3.78-3.42-0.39-2.84,1.84
	c-4.1,3.46,0.99-8.04,0.98-9.85c1.07-3.19-2.95-4.67-0.11-7.84c-3.31-3.79,1.55-5.54,2.52-1.14c1.86,3.95,1.05,12.21,7.13,11.87
	c10.75,1.12-5.47,9.2-1.13,14.6c-3.88,7.76,0.63,15.52-0.94,24c-1.86,6.54-8.25,68.67,1.74,42.32
	C476.4,449.05,481.73,444.97,482.16,449.16z"/>
<path class="st3" d="M451.8,65.56c-3.91-0.95-1.24-9.67-5.42-10.85c-1.91-0.43-5.21,0.82-5.93-1.66
	c23.31-1.69,10.46-11.31-4.67-11.93c-3.57-4.89,10.02-3.38,14.37-5.07c8.87-4.15,18.03,2.1,21.78,10.17
	C460.93,61.35,487.4,83.29,451.8,65.56z"/>
<path class="st4" d="M193.14,38.77c-1.84,21.24,3.79,26.26-20.75,23.77c-16.44,1.01,1.54-11.16-0.54-20.45
	c-1.15-4.52-9.01-0.45-11.44,0.75C164.5,30.49,182.91,40.14,193.14,38.77z M175.11,44.26c-0.61-0.42-0.84-0.32-1.01,0.4
	C174.7,45.08,174.94,44.98,175.11,44.26z"/>
<path class="st0" d="M437.62,530.98c-3.71-7.5,3.16-64.91,12.5-44.8c-0.22,6.33,9.15,3.49,9.16,8.86
	C452.4,507.49,448.27,520.22,437.62,530.98z"/>
<path class="st2" d="M129.91,324.35c11.86-8.22,11.62,8.89,14.36,17.83c2.89,11.39-4.44,10.18-7.38,16.11
	c6.46,9.32,0.59,15.91-9.52,12.35c-0.04-1.35,0.13-7.89,1.69-4.12c-0.37,2,1.69,2.84,2.21,0.56c6.33-5.87-8.84-11.93-7.08-17.46
	c6.62,2.93,12.47,17.07,7.88-2.23c-3.59-1.39,0.95-9.46-3.77-7.11C123.79,339.62,130.6,328.6,129.91,324.35z"/>
<path class="st3" d="M475.48,386.05c-4.16-6.77,13.21-14.94-1.26-15.36c-6.57-10.13-9.98-21.08-8.93-33.94
	c4.7-8.11,1.79-0.93-0.01-8.32c3.06-9.79,4.63-10.35,9.02-2.48c-5.2,3.46-2.79,11.93,1.14,16.05c-6.18-3.07-6.77,10.58-4.61,14.68
	c5.31,1.5,18.82,9.75,14.71-2.04C493.45,364.57,478.91,375.89,475.48,386.05z"/>
<path class="st1" d="M111.39,287.23c-7.09-1.1,3,28.31,6.68,29c8.96-11.46,10.12,6.49-3.57,3.88
	C71.47,292.88,137.08,270.82,111.39,287.23z"/>
<path class="st1" d="M487.33,293.29c-1.82-4.54-11.8-2.91-11.54-7.51c3.45-4.95,2.52,3.01,7.31,2.23c8.68,2.58,17.46-0.1,20.6,9.91
	c4.2,6.72-7.87,23.07-13.89,17.34C488.8,308.74,493.88,296.57,487.33,293.29z"/>
<path class="st2" d="M117.28,284.69c-0.44-7.1,10.42-3.33,13.24-0.4c3.78,4.39,11.97,45.87-0.61,27.12
	c-0.93-5.6-4.08-11.25-6.22-16.67C123.23,291.08,123.22,282.64,117.28,284.69z"/>
<path class="st1" d="M294.27,555.17c10.61-2.76,21.83-0.01,32.76,0.11c3.53,0.98,5.37-4.22,8.78-1.82c3.35,1.94,6.29-4.19,10.34-1.4
	C395.95,560.8,306.35,558.13,294.27,555.17z"/>
<path class="st4" d="M424.07,511.44c2.37,3.41,0.93,8.86,1.71,13.13c9.72,5.36,6.47,14.63-2.62,19.7
	C427.95,531.79,409.78,522.28,424.07,511.44z"/>
<path class="st1" d="M236.96,551.83c-4.2-10.42,3.6-7.6,10.6-4.11c2.57,2.69,5.04-2.91,7.48,0.05c2.07,4.29,12.52-1.46,10.65,2.97
	c-1.08,0.3-6.56,0.16-3.86,1.89c9.87,0.53,18.67,0.03,28.51,1.41C277.07,557.15,253.48,552.53,236.96,551.83z"/>
<path class="st4" d="M475.33,506.44c0.41,6.97,4.33,8.4,9.17,4.11c-0.25,3.73,4.85,19.81-2.34,10.72c-0.38-1.49-1.29-6.7-3.3-3.75
	c-1.29,3.67,5.52,9.21,0.62,11.37C471.91,529.53,468.28,504.39,475.33,506.44z"/>
<path class="st1" d="M207.44,547.68c1.55-0.09,2.93-2.23,2.86,0.49c0.88,2.67,18.01,2.92,12.59,0.38c-19.62,0.1,2.77-9.61,8.26-1.08
	c1.43,1.91-1.44,1.92-2.65,2.19c-1.16,1.89,2.53,1.19,3.57,1.39c5.09,1.76-13.29,0.33-16.96-0.38c-11.08-1.63-25.11,1.49-35.23-3.88
	C188.66,546.2,197.81,546.81,207.44,547.68z"/>
<path class="st1" d="M123.59,352.97c5.86,0.66,5.55,8.26,10.3,11.05c-2.14,1.66-4.55,7.73-5.01,1.71c-3.83,1.13,2.18,5.88-7.73,7.63
	c-2.07,4.77-10.95,4.9-3.06,1.07C123.07,369.07,120.31,359.58,123.59,352.97z"/>
<path class="st3" d="M508.2,499.62c2.17-17.32-20.11-0.59-8.15-9.28c4.06-1.52,8.69-4.24,2.81-7.31c3.23-4.02,7.41-8.68,5.25-14
	C514.39,474.41,511.88,491.24,508.2,499.62z"/>
<path class="st3" d="M487.33,293.29c6.55,3.29,1.47,15.44,2.48,21.97c10.1,2.83-3.46,5.28-9.32,5.37
	C491.3,317.56,479.02,298.52,487.33,293.29z"/>
<path class="st2" d="M451.89,512.43c-1.72-7.66,5.67-10.95,7.39-17.39c0.17-4.74-11.24-3.2-11.69-14.79
	c4.51,0.6,6.09,11.84,11.61,5.75C470.36,488.93,457.19,506.26,451.89,512.43z"/>
<path class="st3" d="M481.26,447.34c-7.17-0.59-3.15,10.95-8.39,11.68C467.91,450.02,467.32,426.43,481.26,447.34z"/>
<path class="st1" d="M362.28,560.3c9.43-7.67,5.8-2.56,18.71-3.77C411.4,553.46,369.93,565.2,362.28,560.3z"/>
<path class="st1" d="M133.2,289.79c-3.06-5.78-4.63-8.52-12.56-9.36c9.1-8.06,17.79-0.01,18.54,11.04
	C135.94,290.68,136.09,284.62,133.2,289.79z"/>
<path class="st1" d="M126.48,339.33c0.79,3.33,2.57-1.03,3.94,0.84c-0.2,4.75,1.78,8.61,3.38,13.19c2.33,11.24-15.47-8.47-6.92-9.47
	C126.03,342.49,124.83,341.42,126.48,339.33z"/>
<path class="st4" d="M459.35,502.86c-1-4.44,4.03-5.87,4.28-9.71c-1.22-6,1.3-11.22,4.18-3.71c2.93,3.9,1.24,6.23,0.86,11.84
	C465.28,497.22,461.79,498.48,459.35,502.86z"/>
<path class="st3" d="M150.24,58.24c-0.54,9.85-7.32,17.77-14.06,24.22C139.39,74,145.38,65.91,150.24,58.24z"/>
<path class="st4" d="M434.12,38.65c4.7,5.44-22.16-1.66-27.77,1.65C406.76,34.03,427.04,39.21,434.12,38.65z"/>
<path class="st1" d="M475.33,506.44c-1.37-0.07-2.81,0.03-4.15-0.12C467.57,499.2,476.75,492.91,475.33,506.44z"/>
<path class="st3" d="M481.24,527.81c0.87-2.67-5.97-12.47-0.2-10.52C481.28,521.71,487.07,525.49,481.24,527.81z"/>
<path class="st1" d="M163.72,541.81c4.68,0.45,11.11,0.28,14.25,3.89C173.28,544.62,167.75,544.24,163.72,541.81z"/>
<path class="st1" d="M129.91,324.35c-0.65,5.32-3.13,14.77-1.89,3.96C125.87,326.18,125.27,324.44,129.91,324.35z"/>
<path class="st4" d="M137.57,503.86c2.48-4.22,5.05-0.96,3.99,2.8C140.13,505.32,137.94,506.24,137.57,503.86z"/>
<path class="st3" d="M154.38,50.48c-0.35,2.78-1.56,6.24-4.02,7.57C151.56,55.44,152.55,52.74,154.38,50.48z"/>
<path class="st1" d="M157.04,534.17c3.06-0.63,3.99,2.38,4.09,4.94C159.37,537.79,157.98,536.17,157.04,534.17z"/>
<path class="st1" d="M107.17,384.26c0.45,2.66-2.36,4.04-3.86,5.79C103.63,387.47,105.41,385.87,107.17,384.26z"/>
<path class="st3" d="M223.56,38.46c3.05,0.71,6.4-1.4,9.28-0.49C230.39,38.51,224.75,40.91,223.56,38.46z"/>
<path class="st4" d="M488.94,508.58c1.32-1.51,4.15-2.66,5.78-1.45C492.89,508.02,490.94,508.4,488.94,508.58z"/>
<path class="st2" d="M99.53,320.17c1.82-1.52,4.21,0.15,4.28,2.37C102.18,322.12,100.72,321.39,99.53,320.17z"/>
<path class="st2" d="M117.23,328.6c1.93-0.02,3.87-0.05,5.8-0.07C119.9,330.65,119.9,330.65,117.23,328.6z"/>
<path class="st3" d="M475.43,341.99c1.12,1.12,3.58,3.1,3.05,4.57C477,345.76,474.48,343.68,475.43,341.99z"/>
<path class="st4" d="M201.06,37.76c1.78,0.42-0.72,1.04-1.46,0.84C191.06,39.07,194.8,37.16,201.06,37.76z"/>
<path class="st3" d="M222.48,38.76c-8.33,0.12-8.18-1.4,0.06-0.9C223.57,38.09,223.82,38.98,222.48,38.76z"/>
<path class="st3" d="M480.34,348.01c0.77,0.96,3.04,2.41,2.32,3.64C481.44,351.09,479.59,349.2,480.34,348.01z"/>
<path class="st3" d="M504.5,465.19c-1.72,0.03-2.86-0.65-3-2.51C502.98,462.94,503.8,464,504.5,465.19z"/>
<path class="st4" d="M484.62,510.44c0.34-1.91,1.82-1.55,3.12-1.57C486.9,509.81,485.66,509.91,484.62,510.44z"/>
<path class="st2" d="M105.62,323.49c1.29,0,3.15-0.26,3.24,1.51C107.7,324.69,106.47,324.5,105.62,323.49z"/>
<path class="st2" d="M132.43,267.79c0,2.06,0,2.06-1.59,2.59C131.02,269.3,131.7,268.53,132.43,267.79z"/>
<path class="st3" d="M495.35,458.42c-1.18,0.07-2.21-0.07-2.29-1.58C494.05,457.02,494.94,457.37,495.35,458.42z"/>
<path class="st3" d="M501.36,462.59c-1.87-0.01-1.97-0.08-2.37-1.64C499.96,461.24,500.83,461.66,501.36,462.59z"/>
<path class="st3" d="M491.85,455.92c-1.19,0.07-2.14-0.18-2.16-1.65C490.73,454.4,491.41,455.01,491.85,455.92z"/>
<path class="st3" d="M487.61,452.55c-1.17,0.04-2.13-0.19-2.13-1.65C486.48,451.07,487.23,451.57,487.61,452.55z"/>
<path class="st3" d="M483.72,352.22c0.78,0.52,2.38,1.93,1.44,2.77C484.3,354.56,483.02,352.91,483.72,352.22z"/>
<path class="st2" d="M125.65,342.86c0.57,0.16,1.46,0.05,1.24,1.04C126.09,345.24,124.32,344.11,125.65,342.86z"/>
<path class="st1" d="M124.01,327.89c0.2-0.85,0.8-1.12,1.6-1.06C125.37,327.61,124.76,327.85,124.01,327.89z"/>
<path class="st4" d="M470.32,502.22c-0.12,0.76-0.24,1.53-0.37,2.29C469.15,503.54,468.46,501.61,470.32,502.22z"/>
<path class="st4" d="M215.03,37.8c0.38,1.27-1.98,0.98-2.46-0.01C213.39,37.52,214.21,37.56,215.03,37.8z"/>
<path class="st1" d="M127.37,335.22c0.07,0.91,0.24,1.83-0.56,2.54C126.63,336.83,126.79,335.98,127.37,335.22z"/>
<path class="st4" d="M499.03,506.11c0.31-0.6,0.83-0.71,1.44-0.59C500.11,505.99,499.67,506.28,499.03,506.11z"/>
<path class="st4" d="M496.54,506.88c0.34-0.58,0.86-0.65,1.45-0.5C497.62,506.87,497.17,507.13,496.54,506.88z"/>
<path class="st3" d="M135.05,84.35c0,0.67-0.25,1.17-0.9,1.43C134.09,85.08,134.42,84.62,135.05,84.35z"/>
<path class="st1" d="M98.79,305.94c0.07,0.68-0.14,1.21-0.78,1.52C97.93,306.78,98.22,306.29,98.79,305.94z"/>
<path class="st2" d="M133.57,260.29c0.7,0.65,0.57,1.2-0.22,1.66C133.18,261.37,133.28,260.82,133.57,260.29z"/>
<path class="st2" d="M130,271.55c-0.04,0.63-0.27,1.12-0.93,1.32C129.08,272.22,129.47,271.84,130,271.55z"/>
<path class="st3" d="M497.9,460.1c-0.7,0.12-1.21-0.11-1.43-0.83C497.17,459.16,497.71,459.34,497.9,460.1z"/>
<path class="st1" d="M119.77,280.65c-0.36,0.6-0.91,0.73-1.55,0.64C118.62,280.79,119.11,280.53,119.77,280.65z"/>
<path class="st4" d="M503.24,504.44c0.17-0.56,0.57-0.72,1.1-0.67C504.12,504.24,503.82,504.57,503.24,504.44z"/>
<path class="st4" d="M501.59,505.17c0.23-0.55,0.67-0.65,1.2-0.55C502.5,505.05,502.15,505.34,501.59,505.17z"/>
<path class="st3" d="M482.16,449.16c-0.27-1.34,1.05-1.09,1.24,0.03C482.99,449.17,482.58,449.17,482.16,449.16z"/>
<path class="st4" d="M142.71,510.59c0.73,0.55,0.8,1.25,0.49,2.05C142.56,512.07,142.46,511.37,142.71,510.59z"/>
<path class="st2" d="M133.22,262.6c0.1,0.39,0.02,0.72-0.32,0.97C132.65,263.13,132.81,262.83,133.22,262.6z"/>
<path class="st3" d="M135.84,83.37c-0.21,0.26-0.43,0.51-0.64,0.77C135.17,83.67,135.39,83.42,135.84,83.37z"/>
<path class="st3" d="M482.98,351.3c0.51,0.16,1.06,0.88,0.41,1.18C483.1,352.06,482.39,351.71,482.98,351.3z"/>
<path class="st1" d="M124.03,350.48c0.04,0.22,0,0.42-0.13,0.61C123.71,350.85,123.79,350.65,124.03,350.48z"/>
<path class="st3" d="M479.55,347.13c0.49,0.14,1.13,0.82,0.47,1.13C479.79,347.85,478.97,347.5,479.55,347.13z"/>
<path class="st3" d="M506.44,466.79c-0.47,0.01-0.71-0.22-0.74-0.68C506.22,466.03,506.47,466.25,506.44,466.79z"/>
<path class="st1" d="M108.8,382.49c-0.04,0.47-0.3,0.73-0.76,0.78C108.04,382.76,108.3,382.51,108.8,382.49z"/>
<path class="st1" d="M107.96,383.35c-0.02,0.45-0.26,0.71-0.71,0.79C107.21,383.62,107.45,383.36,107.96,383.35z"/>
<path class="st3" d="M478.81,346.19c0.5,0.16,1.04,0.85,0.46,1.21C478.95,346.98,478.18,346.62,478.81,346.19z"/>
<path class="st1" d="M110.48,380.78c-0.04,0.47-0.3,0.74-0.78,0.79C109.72,381.08,109.98,380.81,110.48,380.78z"/>
<path class="st1" d="M103.47,393.5c0.1,0.28,0.2,0.55,0.31,0.83C103.43,394.15,103.23,393.91,103.47,393.5z"/>
<path class="st1" d="M111.32,379.96c-0.06,0.47-0.33,0.72-0.79,0.77C110.55,380.22,110.83,379.97,111.32,379.96z"/>
<path class="st3" d="M478.68,322.16c-0.04-0.23,0.06-0.35,0.29-0.37C479.04,322.05,478.95,322.15,478.68,322.16z"/>
<path class="st2" d="M115.15,327.66c0.17,0.05,0.21,0.09,0.09,0.25C115.24,327.9,115.15,327.66,115.15,327.66z"/>
<path class="st1" d="M113.02,378.32c-0.08,0.45-0.34,0.7-0.8,0.72C112.24,378.53,112.52,378.3,113.02,378.32z"/>
<path class="st2" d="M113.25,326.84c0.19-0.04,0.34,0.01,0.46,0.16C113.48,327.14,113.35,327.08,113.25,326.84z"/>
<path class="st1" d="M113.91,377.59c-0.08,0.43-0.33,0.64-0.77,0.64C113.17,377.75,113.42,377.53,113.91,377.59z"/>
<path class="st4" d="M504.94,503.41c0.05-0.3,0.23-0.43,0.54-0.39C505.42,503.3,505.23,503.45,504.94,503.41z"/>
<path class="st3" d="M477.86,323.14c-0.08-0.41,0.08-0.6,0.5-0.55C478.43,322.98,478.27,323.17,477.86,323.14z"/>
<path class="st2" d="M130.78,270.47c-0.19,0.26-0.39,0.52-0.58,0.78C130.15,270.81,130.37,270.56,130.78,270.47z"/>
<path class="st3" d="M482.16,448.16c-0.46-0.04-0.74-0.28-0.82-0.74C481.84,447.41,482.1,447.67,482.16,448.16z"/>
<path class="st4" d="M470.41,505.55c0.26,0.26,0.52,0.52,0.78,0.78C470.71,506.28,470.4,506.08,470.41,505.55z"/>
<path class="st3" d="M484.32,449.98c-0.37,0.07-0.57-0.07-0.55-0.46C484.19,449.39,484.36,449.56,484.32,449.98z"/>
<path class="st3" d="M485.35,450.79c-0.44,0.03-0.69-0.16-0.72-0.61C485.14,450.05,485.36,450.28,485.35,450.79z"/>
<path class="st2" d="M111.39,326.05c0.26,0.15,0.53,0.31,0.79,0.46C111.74,326.65,111.51,326.44,111.39,326.05z"/>
<path class="st3" d="M489.54,454.15c-0.44,0.06-0.68-0.12-0.69-0.57C489.33,453.47,489.57,453.65,489.54,454.15z"/>
<path class="st3" d="M475.42,325.38c0.04-0.27,0.19-0.36,0.45-0.28C475.83,325.39,475.7,325.48,475.42,325.38z"/>
<path class="st3" d="M492.87,456.69c-0.42,0.07-0.65-0.1-0.64-0.54C492.7,456.02,492.9,456.21,492.87,456.69z"/>
<path class="st1" d="M109.64,381.64c-0.05,0.47-0.3,0.73-0.77,0.78C108.88,381.92,109.14,381.66,109.64,381.64z"/>
<path class="st2" d="M109.21,325.14c0.18,0.06,0.26,0.08,0.09,0.24C109.3,325.38,109.21,325.14,109.21,325.14z"/>
<path class="st3" d="M496.32,459.2c-0.46,0.08-0.71-0.11-0.75-0.58C496.04,458.55,496.28,458.75,496.32,459.2z"/>
<path class="st3" d="M498.91,460.88c-0.47,0.04-0.74-0.17-0.8-0.64C498.62,460.14,498.88,460.36,498.91,460.88z"/>
<path class="st3" d="M476.2,324.85c-0.05-0.43,0.14-0.62,0.57-0.56C476.81,324.71,476.62,324.89,476.2,324.85z"/>
<path class="st4" d="M144.98,518.31c0.2,0.09,0.27,0.26,0.18,0.46C144.92,518.67,144.84,518.55,144.98,518.31z"/>
<path class="st4" d="M145.82,519.99c0.21,0.08,0.28,0.25,0.19,0.46C145.76,520.36,145.68,520.23,145.82,519.99z"/>
<path class="st3" d="M477.03,323.99c-0.06-0.43,0.12-0.62,0.55-0.57C477.61,323.83,477.42,324.01,477.03,323.99z"/>
<path class="st4" d="M146.47,521.6c0.32,0.07,0.43,0.27,0.34,0.59C146.43,522.14,146.29,521.97,146.47,521.6z"/>
<path class="st3" d="M505.52,465.95c-0.42,0.06-0.65-0.1-0.65-0.54C505.34,465.28,505.54,465.48,505.52,465.95z"/>
<path class="st2" d="M103.99,322.62c0.23-0.01,0.4,0.08,0.51,0.28C104.24,322.99,104.07,322.88,103.99,322.62z"/>
<path class="st1" d="M155.87,532.63c0.2,0.05,0.27,0.17,0.23,0.37C155.85,532.96,155.77,532.87,155.87,532.63z"/>
<path class="st1" d="M156.32,533.32c0.2,0.23,0.4,0.46,0.6,0.68C156.51,533.97,156.3,533.75,156.32,533.32z"/>
<path class="st3" d="M499,290.56c-0.49-0.11-0.75-0.4-0.7-0.92C498.83,289.72,499.02,290.07,499,290.56z"/>
<path class="st1" d="M162.05,540.11c0.46,0.06,0.7,0.33,0.73,0.79C162.31,540.85,162.06,540.58,162.05,540.11z"/>
<path class="st3" d="M506.3,467.55c-0.12-1.2,1.54-0.44,0.94,0.27C506.93,467.73,506.62,467.64,506.3,467.55z"/>
<path class="st1" d="M178.91,546c0.41,0,0.66,0.2,0.76,0.59C179.23,546.63,179,546.41,178.91,546z"/>
<path class="st4" d="M159.39,44.04c-0.08,0.36-0.31,0.5-0.67,0.46C158.8,44.12,159.01,43.96,159.39,44.04z"/>
<path class="st3" d="M472.2,46.95c-0.27-0.15-0.35-0.37-0.24-0.66C472.16,46.52,472.54,46.65,472.2,46.95z"/>
<path class="st3" d="M507.42,467.61c0.46,0.04,1.16,0.7,0.6,1.01C507.81,468.27,507.03,467.97,507.42,467.61z"/>
<path class="st3" d="M488.51,453.34c-0.38,0.07-0.56-0.08-0.51-0.47C488.41,452.77,488.58,452.92,488.51,453.34z"/>
<path class="st2" d="M204.94,225.71c10.23-1.76,0.85,11.06,14.32,15.44c2.86,2.09-1.37,5.25-2.5,6.84
	c-2.64,3.61,5.68,10.47,4.56,19.07c-0.15,1-1.64,12.92-0.29,11.72c16.2-8.88,4.84,5.49,14.49,9.23c2,0.28,2.43,2.91,3.36,4.63
	c8.67-2.59,3.09,3.42,8.43,4.14c4.75,4.52,3.01,5.58,8.86,0.15c3.84-2.42,9.29-0.82,12.47-1.59c2.72-4.44,11.44-7.7,16.28-9.86
	c10.18,5.18,8.41,2.09,18.42,2.16c11.89,2.63,21.2,1.5,32.8,1.25c21.66-3.74,13.82,19.82,11.92,31.88c3.4,18.12,0.43,33.9,6.5,46.73
	c-12.33,9.03-34.77-4.7-42.54-13.63c-15.13-7.64-33.39-24.47-49.47-28.85c-30.03-28.34-28.12,4.86-11.43,23.06
	c15.23,11.54,31.81,19.72,44.17,36.14c5.8,5.55,12.04,13.82,14.8,21.41c-1.5,3.67-2.9,10.52-7.8,10.31
	c-19.21-6.45,0.54-38.07-47.34-23.34c-21.73,9.37-29.53-15.87-30.24,1.05c-28.49,19.5-15.42-46.4-17.25-65.43
	C209.74,295.09,209.03,257.32,204.94,225.71z"/>
<path class="st2" d="M279.08,207.16c6.58-2.48,12.16-0.13,18.86-2.3c13.17,3.15,15.58-0.95,8.82-11.25c-6.18-3-6.05-9.37-5.23-15.48
	c-1.41-6.61,0.44-15.24,7.76-18.19c8.58,0.08,10.83,10.46,16.5,15.28c2.84,2.97-1.57,4.72,0.61,7.28c2.98,2.9-0.65,4.52,0.46,7.34
	c14.47,31.81,14.84,7.46,28.4,10.23c1.24,9.23,5.45,3.66,9.6,5.09c2.01,2.77,4.69,1.86,7.25,1.88c6.11-11.26,6.78-2.34,12.81-0.86
	c12.11-0.4,29.38,5.69,31.17-11.27c2.65,1.8-3.03,13.56,0.26,18.45c2.01,2.88-2.07,2.48-2.06,4.88c3.68,1.09,7.23-4.3,9.72,3.21
	c-10.92,1.03-2.09,7.24-15.53,3.83c-2,25.34-1.02,51.4-6.89,76.5c-1.35,10.73,14-9.03,6.15,21.36c-4.3,9.93,2.35,10.14,5.68,18.02
	c1.81,9.21-7.85-0.87-9.45,2.42c-5.03,21.06-5.92,42.79-5.69,64.23c0.82,19.65-4.7,42.26,2.58,59.07c0.57,2.7-4.69,3.74-0.17,5.74
	c3.57,0.33,1.74,7.77-1.22,6.1c-3.08-5.37-4.79,4.42-7.46-0.1c-1.39-5-10.72-0.75-11.18-4.28c8.81,0.61,3.6-53.41,5.23-64.91
	c-0.91-24.76,2.16-50.78,5.82-75.21c0.44-6.9,28.35-133.11,6.94-114.83c-2.67,5.41-9.24,7.99-9.49,13.76
	c-0.58,2.92-4.6-0.01-5.75,2.77c-0.98,1.64-3.17,1.92-4.35,3.16c-11.79,10.48-9.26-1.34-14.99,0.27c-1.99,4.33-6.92-7.09-10.42-4.52
	c-7.49,3.55-15.42-3.66-22.7-2.75c-9.15,2.62-15.21-4.3-22.59,3.15c-2.08,1.34-2.62-1.94-2.5-3.45
	c-1.52-10.14-15.05-3.68-21.62-9.19c-22.77-11.42,8.49-0.77,13.96-3c4.2-2.22,4.95,0.86,7.82,0.5c3.58-3.37,6.72,7.74,21.25,6.97
	c11.88-2.84,23.32,2.13,35.7-0.34c13.18-0.66,6.9,5.57,15.5,1.32c2.91-2.93,14.14-5.95,11.99-9.84
	c-10.92-0.18-12.68-1.18-24.93-1.52c-13.48-3.09-7.61,8.04-19.86-6.61c-0.97,0.01-0.87,0.88-1.21,1.43
	c-7.31,11.88-13.34-1.03-17.81-3.43c-8.48,9.22-4.6,2.08-8.75,1.64c-8.62-10.83-3.71,2.33-9.02,4.44c-5.72,4.22-9.2-9.79-12.9-5.37
	c-0.22,5.54-4.59,7.51-8.35,3.32C283.86,211.45,278.05,214.79,279.08,207.16z M351.14,203.96c0.21-1.04-1.2-0.94-1.64-0.46
	C348.95,204.45,350.82,204.95,351.14,203.96z M309.89,228c-0.81-0.7-1.5,0.55-0.3,0.71C309.69,228.48,309.79,228.24,309.89,228z"/>
<path class="st4" d="M299.85,284.82c-3.12-4.65-3.72,3.74-7.99-1.38c-1.46-8.56-17.89-7.23-22.93-16.76
	c-19.14-18.83-29.34-66.87,9.84-40.1c5.33,2.82,11.83,6.35,16.99,7.25c2.4,7.92-10.89,18.05-4.72,20.47
	c6.09-2.88,16.16-7.27,22.77-4.53c3.09,2.1,4.53-2.66,7.01-1.44c3.61,4.12,7.67-2.94,12.06,1.23c5.08,2.66,5.09-8.8,10.13-5.12
	c13.69,5.9,17.17,22.4,19.52,34.96c-7.27,4.51-13.67,1.22-21.62,1.91c-4.34-1.66-7.88,1.4-12.27,2.19
	c-3.69,1.78-7.78-2.06-10.67,1.34c-2.23,0.02-4.72-4.33-8.85-2.65C304.7,281.46,300.09,277.1,299.85,284.82z M274.32,261.65
	c8.53-9.06,10.31-28.45-4.35-31.84c-10.28-2.44-13.72-8.32-10.08,7.05C263.31,244.78,264.13,260.68,274.32,261.65z"/>
<path class="st4" d="M386.06,406.94c-5.95,9.1,2.33,13.42-6.64,20.62c-2.24,7.95-9.53,1.42-14.48,3.47
	c-3.09,1.02-4.89,7.1-0.75,7.95c8.07,1.3,0.25,6.91,2.12,11.18c0.72,4.18-0.28,17.02-2.53,16.08c-2.68-0.05-5.23-4.99-2.49-6.43
	c11.48-25.48-15.32-31.29-35.21-30.32c-21.27-1.68-39.35-20.47-60.92-13.31c-10.67,5.55,4.23-23.91,11.43-23.59
	c28.9,1.67-11.23,31.07,55.17,31.05c6.22,3.09,15.47-0.15,12.1-8.2c-2.53-8.02-20.25-9.36-26.81-15.55
	c-17.51-12.28-29.84-30.17-47.26-43.95c-6.46-6.3-14.34-10.27-21.06-15.72c-5.2-7.52-13.27-24.75,3.27-17.18
	c11.6,9.35,26.78,11.14,38.93,20.9c2.33,2.75,15.48,14.18,18.69,12.56c6.43,1.38,11.49,9.36,18.51,11.53
	c12.79,9.99,32.98,7.29,43.71,17.62c-4.71,3.06,3.31,3.26,2.04,6.8C372.83,399.86,382.26,402.2,386.06,406.94z M355.67,416.19
	c26.39-34.58-5.23-31.9-29.32-44.58c-23.25-11.61-43.36-34.32-70.38-37.68c-8.14,5.01,7.51,11.13,11.6,13.03
	c3.46,3.21,5.49,7.23,8.76,10.56c12.4,12.44,26.12,24.58,40.37,34.31C330.85,398.2,344.42,406.1,355.67,416.19z"/>
<path class="st3" d="M261.4,417.9c22.96-11.6,43.28,10.85,66.33,11.66c61.09-0.25,21.26,33.97,38.05,37.27
	c11.31,7.58-9.71,6.1-15.93,6.7c-6.28-2.09-11.87-6.44-16.39-11.56c-15.26-7.95-30.63-15.88-46.05-24.53
	C280.04,428.34,263.77,430.02,261.4,417.9z"/>
<path class="st3" d="M455.21,323.45c-0.17,6.66,1.24,33.12-3.75,29.18c0.19-4.47,0.82-8.95,0.36-13.16
	c-1.75-14.02-18.06,11.32-31.67-0.46c-10.82-3.19-10.47-28.82-1.82-35.17c2.76-9.49-8.82-18.02-3.43-29.52
	c1.33-15.45,1.7-30.81,3.21-46.22c8.75-10.75,9.67,3.9,6.27,10.91c-0.78,9.31,8.67,11.19,9.77,18.73
	c-2.08,6.17-5.39,17.37,5.88,13.43c-0.37,3.62-8.8,2.85-4.49,7.8c10.56,5.98,6.21,15.91,10.96,24.36
	c10.85,2.77,10.47,24.94,4.99,11.35c-3.07-9.56-15.8-2.58-21.61-9.5c-6.63,0.16,2.27,10.25,5.81,9.77
	c6.02,0.81,9.04,7.79,15.84,5.98c1.51,0.12,1.57,0.18,1.94,2.54C442.77,328.67,449.78,329.67,455.21,323.45z"/>
<path class="st4" d="M376.81,326.58c-4.62,10.89,6.54,17,3.87,26.73c-2.01,3.8-3.31,10.94-7.71,12.01
	c-4.72-0.46-10.22,6.65-7.82-2.44c-3.76-9.3-6.11-18.39-10.65-27.58c1.33-7.26,3.5-15.39,3.09-22.77c-0.51-4.8,8.07,0.35,7.41-4.98
	C370.06,295.75,376.25,322.66,376.81,326.58z"/>
<path class="st0" d="M453.55,354.72c2.22-12.44,8.75,13.56,10.96,17.68c-1.4,2.14-4.35,4.25-2.95,7.76
	c-0.01,6.67-7.31,12.62-6.4,20.21c-5.57,27.01-1.96,56.68-17.92,79.52c-2.66-15.71,9.7-42.71,9.77-61.12
	C451.17,399.15,449.84,375.79,453.55,354.72z"/>
<path class="st4" d="M441.74,406.08c-4.96,15.92-15.05,33.48-17.6,52.03c-1.97,3.49,4.09,5.3,0.96,8.49
	c-0.85,2.49,4.07,1.32,3.01,3.98c-1.41,2.65,1.6,4.67,0.53,7.19c1.28,9.48-0.84,19.16-3.81,28.61c-3.41-1.6-1.95-8.85,0.79-11.38
	c2.08-6.99,0.02-19.47-2.71-25.03c-2.35-2.36-9.68-9.01-6.52-12.11c0.05-6.27,7.06-12.05,1.05-17.01c-1.83-1.64-0.4-3.54-0.22-5.47
	c1.07-3.44-8.59-7.69-0.37-8.09c1.31,1.88,4.39,6.7,4.3,1.11c-1.21-2.37-4.37-3.45-5.36-5.72c4.13-5.33,1.68-3.48,0.76-9.16
	c0.72-6.84,3.91-2.5,7.98-1.23C429.82,411.54,435.7,407.25,441.74,406.08z"/>
<path class="st4" d="M404.63,218.1c5.6,5.64-1.51,8.96-3.36,12.92c-3.55,14.26-12.05,27.68-16.42,40.36
	c-5.6,5.39,7.82,1.45,10.05,3.47c2.07-0.09,6.1,3.29,7.08,0.95c2.42-17.25,1.28,11.82-1.54,18.22c-8.01,5.83-7.59-7.37-16.11-6.81
	c-5.18-0.68-14.42,9.5-16.66,0.6c3.96-13.56,13.95-25.13,21.65-38.11C397.24,241.4,395.89,224.95,404.63,218.1z"/>
<path class="st4" d="M204.91,422.09c19.84-4.6,16.05,6.06,15.71,20.59C215.37,445.17,204.58,427.76,204.91,422.09z"/>
<path class="st2" d="M204.91,422.09c-0.11,46.39-9.54-6.91-7.49-21.97C206.13,404.15,204.41,414.01,204.91,422.09z"/>
<path class="st4" d="M417.3,338.62c21.13,11.87,31.85-13.62,34.53,0.84c-6.52-3.25-11.17,6.65-17.65,8.91
	C424.79,358.28,422.05,345.06,417.3,338.62z"/>
<path class="st4" d="M270.61,428.05c14.44,5.02,27.7,16.16,41.32,23.54c-4.5-1.29-11.48,3.71-14.22,0.27
	c-0.21-5.83-8.56-6.57-12.24-10.25C281.29,436.13,275.2,432.56,270.61,428.05z"/>
<path class="st4" d="M413.82,289.75c10.12,8.63,2.43,14.07-0.86,23.12c1.06,3.34-0.08,6.91-1.67,9.77
	c-1.31-0.95-0.27-3.42-2.44-3.38C410.16,309.35,411.8,299.33,413.82,289.75z"/>
<path class="st4" d="M321.15,455.88c11.61,1.48,17.58,14.83,28.69,17.65C340.98,475.2,326.31,463.34,321.15,455.88z"/>
<path class="st4" d="M451.9,366.53c0.12,7.58-5.53,4.36-8.64,9.26C433.19,365.09,440.31,362.22,451.9,366.53z"/>
<path class="st2" d="M210.82,225.71c-1.19-6.29,4.2-14.11,10.95-14.32C217.11,215.86,218.77,228.55,210.82,225.71z"/>
<path class="st4" d="M443.33,377.4c2.94,6.35-2.22,11.49-6.7,15.2C433.65,388.3,438.55,379.77,443.33,377.4z"/>
<path class="st4" d="M453.55,354.72c-1.86,16.86-6.66-8.35-1.72-13.54C453.62,344.64,448.57,353.23,453.55,354.72z"/>
<path class="st4" d="M411.31,324.32c1.75,4.03,2.23,9.2,5.45,12.73C416.04,342.57,408.11,327.27,411.31,324.32z"/>
<path class="st4" d="M204.95,385.92c-1.45-3.46-1.78-8.75,0.64-11.69C205.11,377.96,207.03,382.87,204.95,385.92z"/>
<path class="st3" d="M359.81,508.89c3.64,4.74,0.7,6.46,9.57,6.11C363.91,517.6,358.3,515.56,359.81,508.89z"/>
<path class="st4" d="M374.17,297.94c-2.57-0.49-0.07-3.9,1.09-4.47C377.88,293.94,376.34,297.95,374.17,297.94z"/>
<path class="st4" d="M437.5,397.64c2.04,1.21,5.28,4.78,3.81,6.68C439.74,402.69,437.42,400.31,437.5,397.64z"/>
<path class="st3" d="M399.68,490.45c-2.44,1.04-7.69,2.64-9.14,1.27C393.52,490.86,396.48,489.78,399.68,490.45z"/>
<path class="st4" d="M315.27,453.32c1.85,0.1,2.95,1.47,4.24,2.52C317.96,457.75,314.75,455.45,315.27,453.32z"/>
<path class="st2" d="M226.6,459.12c-0.28,1.36-2.99,0.74-2.74-0.72C224.17,456.89,227.03,457.4,226.6,459.12z"/>
<path class="st4" d="M408.5,427.83c-1.28,0.14-1.69-1.83-0.4-2.15C409.64,425.26,410.08,427.69,408.5,427.83z"/>
<path class="st2" d="M223.46,211.38c2.03,0.09,2.03,0.09,2.54,1.66C223.96,212.97,223.96,212.97,223.46,211.38z"/>
<path class="st3" d="M404.02,489.67c-1.28,1.29-1.52,1.35-2.76,0.64C401.97,489.2,402.99,489.4,404.02,489.67z"/>
<path class="st4" d="M267.22,426.39c1.26-0.11,2.09,0.47,2.57,1.61C268.59,428.02,267.39,428.04,267.22,426.39z"/>
<path class="st2" d="M268.11,216.44c1.26-1.03,1.26-1.03,2.52-0.01C269.8,216.67,268.96,217.79,268.11,216.44z"/>
<path class="st4" d="M297.5,469.89c0.49,0.35,1.13,1.4,0.1,1.56C296.76,471.53,296.48,470.01,297.5,469.89z"/>
<path class="st4" d="M436.62,394.28c0.71,0.36,0.84,1,0.82,1.72C435.84,395.58,435.77,395.42,436.62,394.28z"/>
<path class="st4" d="M424.8,508.05c0.04,0.69-0.08,1.31-0.73,1.71C423.11,508.67,423.2,508.48,424.8,508.05z"/>
<path class="st2" d="M183.05,380.96c0.51,1.95,1.11,4.29,1.75,6.95c0.85,3.55,1.41,6.14,1.58,6.92c3.25,14.83,8.07,22.02,5.64,32.03
	c-0.31,1.26-0.94,3.45-2.35,6.09c0.13,1.58,0.16,3.38,0,5.34c-0.41,4.88-1.87,8.8-3.16,11.49c1.35,2.6,5.19,10.56,3.86,17.76
	c-0.35,1.92-1.13,6.1-3.91,7.18c-0.5,0.19-0.92,0.23-1.14,0.25c-4.82,0.4-11.62,0.97-15.38-0.7c-6.03-2.67-9.68-13.46-7.43-25.77
	c-1.9-5.2-4.58-13.21-6.96-23.21c-4.63-19.44-2.89-24.5-6.79-51.43c-3.34-23.09-5.66-26.6-4.35-37.95
	c1.46-12.62,5.98-22.57,9.61-29.03c-1.86-4.58-3.16-12.81-4.19-23.21c-0.76-7.63,0.01-15.05,5.02-21.95
	c0.11-11.08-15.69-2.28-4.91-20.96c2.17-7.43,10.71-2.42,16.49-3.2c5.3,4.4,4.36,2.72,8.13-1.34c2.74,7.64,5.81,5.79,5.86-1.6
	c1.98-4.14,9.26-10.25,14.12-8.98c2.39-1.93,3.01-3.92,7.89-1.43c1.79,1.47-7.33,3.33-5.98,8.26c-6.2,4.42-4.09-11.8-13.75,6.45
	c-9.79,19.7-7.53,42.14-10.63,64.32c-1.13,1.42-1.49,4.06-0.05,5.59c2.73-0.32,6.32-8.65,8.46-4.05
	C185.96,329.05,172.39,359.52,183.05,380.96z"/>
<path class="st2" d="M222.6,175.08c2.93,12.18,25.55,4.24,31.48,14.98c3.61,7.19,12.7,5.31,18.99,8.25
	c3.88,1.35,10.75,12.06,2.27,7.55c-1.84-2.68-4.16,0.12-5.89,1.42c-5.72,1.54-8.44-5.88-13.62-6.85c-7.13,2.42-0.75,8.42-14.93,0.06
	C228.4,201.74,215.35,187.01,222.6,175.08z"/>
<path class="st4" d="M222.6,175.08c-8.14,5.44-0.68-6.09-0.43-9.32c1.37-7.86-0.41-16.49,2.1-23.51c0.57-5.34-6.68-38.02,3.81-31.5
	c7.44,5.68,2.93,23.95,3,32.03c10.37,10.21-0.9,46.79-7.03,28.84C222.14,171.75,222.77,173.81,222.6,175.08z"/>
<path class="st1" d="M209.04,283.9c-4.8-2.99-3.79-72.72-12.57-41.6c-3.32-3.81-5.28,1.27-9.63,0.27c-5.25-0.98-4.37,5.99-7.75,8.78
	c-6.2,9.31,4.61-16.1,8.45-20.07c5.7-5.58,6.87,11,10.62-3.43C213.37,221.22,206.59,271.53,209.04,283.9z"/>
<path class="st4" d="M133.2,289.79c4.4-6.69,5.91,6.71,7.66,7.58c2.99,6.82,7.75,18.08-4.2,17.71
	C138.41,306.64,134.26,298.65,133.2,289.79z"/>
<path class="st2" d="M111.39,287.23c6.27-5.76,8.77,2.32,6.79,7.79C115.62,294.89,114.02,289.08,111.39,287.23z"/>
<path class="st1" d="M196.49,216.43c-1.69-4.67-11.11-3.78-10.1-9.27C189.01,207.39,202.06,212.97,196.49,216.43z"/>
<path class="st3" d="M204.19,203.81c2.52-2.99,2.93-7.01,4.11-10.16C213.07,195.41,203.71,212.07,204.19,203.81z"/>
<path class="st3" d="M210.83,189.4c0.68-2.87-2.11-7.83,1.77-8.97C216.11,181.33,213.48,188.83,210.83,189.4z"/>
<path class="st2" d="M197.34,216.37c0.64-2.46,2.93-3.6,4.28-5.4C202.94,214.31,194.83,226.99,197.34,216.37z"/>
<path class="st1" d="M189.76,207.17c-0.12-1.19,0.12-3.1,1.75-3.04C193.27,205.12,191.24,207.39,189.76,207.17z"/>
<path class="st1" d="M140.87,297.37c-1.86-0.66-1.95-0.93-0.84-2.54C141.03,295.43,140.86,296.43,140.87,297.37z"/>
<path class="st2" d="M193.12,210.54c-1.09-0.02-1.65-0.57-1.7-1.66C192.53,208.87,193.09,209.43,193.12,210.54z"/>
<path class="st2" d="M203.28,208.33c0.65,0.36,0.41,1.26-0.32,0.96C202.53,208.93,202.72,208.46,203.28,208.33z"/>
<path class="st2" d="M209.13,194.46c-0.27-0.26-0.55-0.53-0.82-0.79C208.59,193.94,208.86,194.2,209.13,194.46z"/>
<path class="st4" d="M188.27,387.66c0.33,0.1,0.48,0.3,0.39,0.65C188.34,388.2,188.18,388.01,188.27,387.66z"/>
<path class="st4" d="M189.97,390.13c0.15,0.23,0.29,0.45,0.44,0.68C190.08,390.69,189.91,390.49,189.97,390.13z"/>
<path class="st2" d="M196.55,398.69c0.4,0,0.6,0.19,0.57,0.6C196.93,399.08,196.74,398.89,196.55,398.69z"/>
<path class="st4" d="M183.96,380.99c0.19,0.21,0.46,0.43,0.06,0.56C183.88,381.38,183.86,381.19,183.96,380.99z"/>
<path class="st5" d="M369.13,514.65c-7.49,1.59-8.5-2.5-8.1-8.82C365,507.21,382.27,511.34,369.13,514.65z"/>
<path class="st1" d="M357.32,523.32c-5.08-0.44,1.14-4.67,2.4-1.5C360.01,523.2,358.21,523.03,357.32,523.32z"/>
<path class="st1" d="M366.47,528.62c0.71,0.16,0.81,0.4,0.39,1.01C366.15,529.47,366.05,529.23,366.47,528.62z"/>
<path class="st4" d="M411.35,72.33c1.75,9.43-3.16,6.43-7.16,11.9c-6.71,11.65-15.26,22.35-21.21,33.75
	c-3.05,10.2-4.4,21.28-0.33,31.68c1.5,2.33,16.83,20.74,17.56,16.23c7.45-29.55-12.97-26.05,10.26-67.48
	c-5.09,36.88-14.41,17.47-4,56.53c3.47,5,2.38,10.57-2.06,14.59c-6.13,13.23,17.57,11.35,6.47,33.06
	c-7.68-2.18-10.77-0.25-16.43,2.26c-3.43-6.21-12.15-5.86-18.43-7.81c-20.5-1.41-2.83-18.11-42.21-28.2
	c-11.93-5.17-22.62-16.48-36.44-11.81c-2.49-2.85-5.11-3.01-3.21-7.43c-0.08-0.74-0.79-1.4-1.42-1c-4.54,3.98-8.74-3.88-12.74,0.11
	c-4.4-2.05,1.3-11.59-2.56-16.12c-0.37-6.87-8.83-9.69-7.69-16.92c0.46-4.89-6.14-2.26-6.67-6.01c-13.96-25.7-0.13-16.02-27.5-25.88
	c-18.73-11.51,5.16-3.1,12.59-6.67c7.92-1.61,15.81,9.09,22.89-0.03c5.79-4.43,13.72,1.26,19.74-0.26
	c8.55-4.76,17.95-7.13,27.53-8.47C349.51,69.71,380.34,72.32,411.35,72.33z"/>
<path class="st2" d="M413.04,161.65c-5.85-6.68-0.93-18.28-1.38-26.56c-0.02-11.15,1.46-21.29,3.62-31.28
	c-1.75-2.84,0.74-4.85,0.86-7.43c-0.54-1.59-2.17-3.51-1.06-5.13c1.77-7.98,3.38-6.51,10.74-7.13
	c16.39,6.99,16.34,18.41,13.87,35.15c4.64,8.05,2.85,15.41,2.78,27.53c-0.25,3.7,3.05,6.33,4.25,9.83
	c-0.27,2.67,0.21,4.68,3.42,4.16c3.19,13.22-23.97,9.76-29.52,17.71C415.49,179.84,417.71,149.31,413.04,161.65z M439.37,127.63
	c0.41-0.61,0.32-0.85-0.4-1.01C438.56,127.23,438.66,127.47,439.37,127.63z M419.99,173.99c0.41-0.61,0.32-0.85-0.4-1.01
	C419.18,173.59,419.27,173.83,419.99,173.99z"/>
<path class="st3" d="M410.48,98.41c-4.51,11.68-15.13,27.16-11.15,40.61c2.52,9.59,6.08,19.33-0.13,28.11
	c-5.12-3.38-9.12-9.98-13.9-14.05c-11.42-14.98-3.12-36.8,6.99-50.72C403.31,88.39,411.66,64.63,410.48,98.41z"/>
<path class="st0" d="M411.35,72.33c-32.98-1.69-69.79-7.97-104.19-5.6c-10.31,2.76-20.67,6.46-31.14,4.36
	c-2.47,0.13-4.8,1.71-7.37,0.73c-2.6,1.29-4.66,4.37-8.43,2.74c-2.65-1.3-2.33,3.51-4.94,0.64c-8.73-5.83-18.46,0.08-27.61-1.23
	c-18.15-14.97,138.3-13.23,149.96-8.46c9.03-0.01,27.54,7.89,32.12-0.23C412.6,61.58,412.84,70.67,411.35,72.33z"/>
<path class="st0" d="M413.04,161.65c3.66-9.89,4.29,11.66,5.16,14.99c2.23,3.32,6.79,2.57,9.34,6.22
	c10.43,5.82-6.52,23.83,8.32,25.94c31.52-7.56,30.6-4.55,1.46,6.27c-1.93,0.98-1.52-1.69-0.62-2.42c-1.61-1.35-4.49,1.32-5.8-1.31
	c-0.38,2.03,8.81,25.07,0.6,17.79c-3.9-3.31-5.59-6.6-9.29-10.36c-0.73-4.86-11.28,3.69-6.58-2.38c-0.35-9.69,2.47-23.14,1.36-33.8
	C411.09,177.6,412.21,168.82,413.04,161.65z M426.47,191.14c3.94,0.36,2.71-4.34,0.92-6.07
	C423.27,182.12,421.35,191.71,426.47,191.14z"/>
<path class="st2" d="M229.35,74c8.48,0.97,17.76-4.46,25.93,1.21c2.63,2.87,2.32-1.94,4.94-0.63c3.82,1.62,5.78-1.46,8.43-2.75
	c2.58,0.98,4.9-0.6,7.37-0.73c10.46,2.09,20.82-1.6,31.14-4.36c25.8-0.82,68.07,0.22,86.36,5.55c-26.09-0.01-51.08-4.32-76.76-3.48
	c-10.56-0.44-19.86,7.14-29.55,8.3c-10.44-5.79-17.4,4.03-27.12,3.55C251.73,71.33,233.92,84.94,229.35,74z M268.94,75.43
	c-0.36-2.29-2.95,0-2.81,1.25C267.22,77.87,269.03,77.21,268.94,75.43z"/>
<path class="st4" d="M443.31,127.91c1.22-6.55-2.56-38.36,1.75-33.33c8.87,6.95,13.21,19.66,22.8,27.41
	c4.92,4.68,6.38,24.44,1.62,9.87c-4.92-12.16-20.9-29.87-18.52-3.76c-3.92,9.2-5.29,5.64-1.69,16.69
	C440.57,142.44,442.45,135.54,443.31,127.91z"/>
<path class="st4" d="M396.19,60.53c9.4-3.14-4.59-6.69-6.82-10.95c-1.77-2.05-3.08,3.25-5.17,1.16c2.97-6.54-8.25-2.82-12.15-4.63
	c-3.85,0.26,1.1-3.27-1.55-4.38c-8.68-9.19,29.77,0.45,35.83-0.58c-3.17,6.91,5.72,10.96-4.23,10.13c-1.19-0.16-1.6,1.08-0.81,1.9
	C405.24,56.68,400.47,64.14,396.19,60.53z M399.64,49.47c4.37,0.85,4.28-2.22,0.44-2.08C396.56,47.29,395.84,50.14,399.64,49.47z"/>
<path class="st4" d="M436.61,41.99c16.46-1.4,25.11,10.57,3.84,11.07c7.17,3.55,8.51,0.55,9.65,11.68
	C435.75,68.33,439.06,51.57,436.61,41.99z"/>
<path class="st4" d="M293.42,205.5c-6.4,1.22-15.43-9.6-15.19-16.2C286.43,170.63,295.52,195.61,293.42,205.5z"/>
<path class="st4" d="M451.8,65.56c7.87,3.73,23.76,5.85,18.9,15.36C464.7,77.99,450.92,74.58,451.8,65.56z"/>
<path class="st4" d="M307.69,53.72c-0.68-3.95,6.13-5.57,8.71-3.26C333.81,52.49,315.69,54.75,307.69,53.72z"/>
<path class="st3" d="M401.29,61.29c0.77-4.06,2.69-5.48-0.44-9.18C409.47,46.09,410.63,64.65,401.29,61.29z"/>
<path class="st2" d="M412.19,167.55c1.8,2.66-1.81,6.73,1.35,9.61C415.81,185.74,405.55,171.46,412.19,167.55z"/>
<path class="st2" d="M415.56,181.88c3.99,1.05,1.14,6.39,1.67,9.28C414.89,190.33,414.38,183.81,415.56,181.88z"/>
<path class="st4" d="M410.54,95.06c-1.33-2.27-1.34-6.17,0.03-8.42C411.83,89.21,411.85,92.73,410.54,95.06z"/>
<path class="st4" d="M407.13,61.34c0.36-2.44-0.87-5.59,0.83-7.58C409.24,55.73,409.85,60.84,407.13,61.34z"/>
<path class="st4" d="M157.55,108.48c4.35-6.11-4.02,0.25,3.51-13.25c-4.54-3.33-2.38-7.23-2.46-12.78
	c0.7-5.73,18.85-13.02,18.04-4.36c-0.85,0.9-4.52,4.8-1.1,3.69c2.2-3.24,19.31-9.53,14.5-2.25c1.63,21.87,2.54,45.77-0.32,68.64
	c-5.53,12.23-15.56,2.49-24.12-1.76C155.52,137.62,164.07,119.9,157.55,108.48z M179.2,117.31c-24.28,4.27-16.37,19.58,1.12,27.36
	C190.57,143.09,179.52,123.78,179.2,117.31z"/>
<path class="st4" d="M222.48,38.76c31.1-1.37,62.11,1.17,91.82,2.59c2.54,1.83-6.75,1.24-2.52,3.09c5.3,2.99-12.54,2.52-15.78,2.6
	c-6.36,0.61,3.73,4.5,6.01,4.61c2,3.52-23.82,4.25-27.69,3.06c-13.8,1.11-27.91,1.44-41.5,4.04
	C219.66,66.61,225.52,46.1,222.48,38.76z"/>
<path class="st1" d="M157.55,108.48c5.71,18.9-2.39,41.7,23.78,45.52c10.37-1.07-0.14,6.15-4.19,2.44
	c-3.67-1.58-6.72-4.93-10.33-5.79c-8.58-5.77-5.84,8.7-10.65,12.17c-1.33,2.19,2.78,9.05-1.77,9.19c-5.82-6.2-1.4-15.88-7.8-21.65
	c6.65-11.91-9.15-7.03-3.76-4.66c6.35,11.98-12.89,4.49-7.84-4.28c3.66-7.47,5.75-18.19,11.36-25.96c4.73-2.89,7.42-6.87,5.21-13.13
	c-0.49-4.04-2.5-16.07,3.64-13.19C158.15,94.65,151.98,108.09,157.55,108.48z"/>
<path class="st0" d="M220.98,168.44c-3.12,12.28-22.62-6.02-30.3-7.65C195.38,153.22,212.52,168.26,220.98,168.44z"/>
<path class="st1" d="M161.05,42.98c14.8-10.54,12.06,8.7,4.27,15C170.32,43.65,158.1,55.7,161.05,42.98z"/>
<path class="st1" d="M200.71,166.69c5.58,1.45,15.08,4.65,17.69,8.44C212.44,174.57,203.82,171.69,200.71,166.69z"/>
<path class="st1" d="M223.45,157.43c2.72,10.45-18.01,2.12-9.26,0.04C217.71,159.24,219.92,159.45,223.45,157.43z"/>
<path class="st1" d="M163.59,60.51c1.76,0.66,4.32,0.51,5.09,2.56C166.58,67.05,157.02,63.95,163.59,60.51z"/>
<path class="st1" d="M186.36,154.04c0.14-1.86,3.23-8.3,4.71-4.8C190.04,151.3,188.84,153.34,186.36,154.04z"/>
<path class="st4" d="M192.24,157.41c-1.01,0.9-1.54,2.02-1.56,3.37C185.83,161.12,193.33,150.11,192.24,157.41z"/>
<path class="st1" d="M223.43,135.52c2.67,2.37-0.53,4.84-2.94,3.54C220.36,137.51,222.23,136.3,223.43,135.52z"/>
<path class="st1" d="M195.66,164.14c2.09,0.07,3.92,0.64,5.06,2.56C198.86,166.8,195.83,166.54,195.66,164.14z"/>
<path class="st1" d="M224.27,142.25c0.02,1.4,0.28,3.33-1.63,3.41C221.67,143.19,221.72,143.08,224.27,142.25z"/>
<path class="st4" d="M205.4,188.57c0.11,1.18,1.4,2.8,0.55,3.79C204.52,192.72,204.69,188.73,205.4,188.57z"/>
<path class="st1" d="M223.43,116.96c-0.08,1.17,0.43,2.49-0.81,3.39C221.34,118.34,221.46,117.84,223.43,116.96z"/>
<path class="st1" d="M222.62,130.47c0.5,1.48-1.01,2.49-1.28,0.65C221.43,130.57,222.1,130.52,222.62,130.47z"/>
<path class="st4" d="M207.04,38.49c-0.93-0.19-0.65-1.08,0.14-0.88C207.81,37.9,207.61,38.25,207.04,38.49z"/>
<path class="st4" d="M157.09,108.5c-0.35,0.03-0.71,0.05-1.06,0.08C156.34,107.86,156.7,107.99,157.09,108.5z"/>
<path class="st1" d="M449.28,144.78c-5.68-12.05,5.08-14.3,1.8-26.57c1.53-10.5,10.11,1.75,13.44,4.79
	c10.62,13.28,10.39,32.12,4.51,47.21c-2.87,6.89-12.41,31.91-6.33,7.31c1.18-5.69,1.03-11.43,5.66-15.64
	c-0.72-5.09,0.2-13.85-6.76-14.63c-2.4,0.2-4.22-5.41-6.51-2.19C452.91,157.34,452.8,151.99,449.28,144.78z"/>
<path class="st2" d="M470.22,270.4c-15.46-1.02-26.06,10.28-28.29-10.96c-1.75-1.17-2.02,1.82-1.94,2.94
	c-1.18,5.03-4.39-4.59-2.88-6.38c6.47-1.64,6.85-6.73,12.45-8.75c2.77-3.34,6.32,0.75,9.44-1.14c3.03-1.38,5.08-4.67,8.8-4.4
	C467.61,250.52,475.64,264.06,470.22,270.4z"/>
<path class="st2" d="M435.8,213.91c4.03,1.75,20.24-6.59,26.22-9.37c10.74,15.37-9.34,12.63-16.44,19.8
	c3.93,4.08,10.98-5.09,13.78-0.42c-0.81,7.91-10.03,16.83-16.49,19.96c-7.45-4.61-10.96-8.7-8.08-17.02
	c-2.64-2.99,1.26-7.29-2.2-9.53C429.6,214.79,433.68,214.36,435.8,213.91z"/>
<path class="st6" d="M453.51,205.46c-10.66-0.82-27.66,10.64-23.86-9.5c9.59-7.06-13.62-19.21-0.12-17.13
	c6.31,3.13,18.29-6.25,18.92,3.35c0.75,8.11,11.81,7.55,10.11,16.67C458.74,202.3,453.12,201.42,453.51,205.46z"/>
<path class="st1" d="M437.34,240.98c3.3-1.61,4.62,4.69,7.41,2.7c3.99-5.65,19.25-14.53,12.94-21.13
	c-21.58,6.99-6.73-3.83,4.72-5.23c3.26,17.97,11.39,28.33-12.87,29.95c-5.56,2-6.02,7.12-12.45,8.74c-1.47,4.34,2.77,12.35,3.4,3.55
	c5.27,1.02,3.92,12.2-2.17,11.6C424.65,231.02,444.45,266.04,437.34,240.98z M439.65,252.43c-0.51-0.37-1.01-0.26-0.98,0.39
	C439.09,253.32,439.54,253.05,439.65,252.43z"/>
<path class="st2" d="M452.6,153.22c3.36-1.72-0.2-10.26,4.96-8.81c4.9,3.69,10.09,4.45,10.52,11.75c0.77,4.24-0.32,7.17-3.16,10.38
	c-2.56,6.3-1.68,16.4-5.55,20.9c-5.44-0.71-11.02-1.83-2.52-2.18c1.1-5.4-4.67-8.68-4.52-13.1c2.03-3.71,2.23-6.73,0.31-10.5
	C455.39,158.64,453.28,155.99,452.6,153.22z"/>
<path class="st4" d="M468.64,194.58c6.2-5.05,4,15.7-0.17,16.91C459.51,208.98,470.97,200.44,468.64,194.58z"/>
<path class="st4" d="M460.29,187.76c6.09-3.06,5.69-15.87,10.96-21.9C473.52,169.14,462.44,195.94,460.29,187.76z"/>
<path class="st1" d="M468.64,194.58c1.31,3.38-0.98,8.55-4.05,9.96C461.97,200.94,464.98,195.84,468.64,194.58z"/>
<path class="st4" d="M453.51,205.46c0.18-4.51,7.54-4.04,4.54-9.42C460.97,192.26,461,208.72,453.51,205.46z"/>
<path class="st4" d="M451.88,186.03c7.83,2.83,5.72-2.28,5.62,6.1C456.07,189.74,448.68,189.31,451.88,186.03z"/>
<path class="st2" d="M458.59,203.82c0.55-1.39,1.09-2.77,1.64-4.16C463.34,200.86,462.08,205.03,458.59,203.82z"/>
<path class="st4" d="M471.24,164.23c0.23-1.73-0.88-4.66,1.45-5.19C472.51,160.77,473.73,163.87,471.24,164.23z"/>
<path class="st4" d="M377.46,50.44c-4.93-0.58,1.81-3.3,2.2-0.78C379.28,50.58,378.33,50.26,377.46,50.44z"/>
<path class="st2" d="M434.87,478.54c8.72,4.54,6.84-15.69,11.65-20.22c9.08-22.03,1.38-51.88,14.26-74.31
	c2.1-16.6,5.67-10.78,2.38,2.29c2,2.88,2.69-1.98,3.74-3.07c5.61,1.21,7.26,18.15-0.12,17.1c-0.7-0.27-1.22-0.67-1.68,0.27
	c-3.17,5.72,6.6,2.49,5.74,6.69c-1.28,3.12-0.98,33.6-6.17,25.97c-3.35-7.35-2.61-20.39-6.68-25.54
	c-0.76,4.99-2.19,10.82-2.07,15.52c4.08,4.33,0.43,9.59,1.67,14.91c0.25,6.72,13.42,12.43,8.56,18.38
	c-5.15-0.85-5.02-11.68-9.5-8.55c-5.8,8.7-9.62,21.67-9.07,32.28c-6.68,1.53-5.69,13.21-9.28,18.55
	C429.04,496.95,432.26,485.43,434.87,478.54z"/>
<path class="st1" d="M431.64,495.42c14.99,5.03,0.73,10.73,4.66,12.6c5.04,1.09,0.24,5.88-2.25,7.12
	C430.05,512.45,428.81,500.52,431.64,495.42z"/>
<path class="st4" d="M451,376.57c0.27,2.94,0.33,7.16-0.77,10.14C448.4,383.85,449,379.48,451,376.57z"/>
<path class="st1" d="M447.79,414.54c0.87,1.52,0.84,1.67-0.6,2.6C446.87,416.15,446.69,415.2,447.79,414.54z"/>
<path class="st1" d="M448.73,407.82c0.68,1.62,0.68,1.62-0.72,2.59C447.68,409.39,447.57,408.43,448.73,407.82z"/>
<path class="st1" d="M447.01,418.77c0.82,0.89,0.34,1.38-0.54,1.74C446.08,419.75,446.2,419.15,447.01,418.77z"/>
<path class="st5" d="M502.85,483.03c8.91,5.54-9.62,9.67-13.18,13.93C492.37,486.22,488.79,472.47,502.85,483.03z"/>
<path class="st4" d="M502.85,483.03c-7.64-1.49,2.88-5.37,2.12-14.12C512.29,464.88,507.03,480.8,502.85,483.03z"/>
<path class="st3" d="M470.39,492.15c-2.45-0.51-2.45-0.51-2.59-2.71C465.24,468.86,476.58,481.99,470.39,492.15z"/>
<path class="st1" d="M470.37,465.06c5.46-2.8,0.84,13.05-2.54,8.45C469.16,470.71,470.95,468.52,470.37,465.06z"/>
<path class="st4" d="M468.68,474.38c5.85-0.02,0.05,2.75-0.92,5.05C465.89,478.07,468.14,475.95,468.68,474.38z"/>
<path class="st1" d="M472.05,491.19c0.24-1.36-0.85-6.75,1.36-4.27C473.9,488.35,474.13,491.12,472.05,491.19z"/>
<path class="st4" d="M495.58,479.06c-0.42,0.12-0.63-0.09-0.72-0.48C495.24,478.53,495.48,478.69,495.58,479.06z"/>
<path class="st4" d="M497.28,479.98c-0.47,0.12-0.7-0.11-0.82-0.53C496.89,479.39,497.16,479.56,497.28,479.98z"/>
<path class="st2" d="M464.51,372.4c-5.99-15.76-15.99-34.57-5.8-49.28c0.9-2.87-2.09-8.38,3.98-6.83c3.19,1.21,9.64-1.93,9.33,3.82
	c-16.97-4.79-4.78,5.38-13.7,22.22C453.85,350.66,472.85,368.04,464.51,372.4z"/>
<path class="st4" d="M440.04,271.17c6.08-8.88,3.76,9.94,11.11,5.9c0.29,7.93-6.7,14.82-2.84,23.98c0.53,4.97,7.94,2.13,6.79,7.28
	c-11.49-0.74-10.64-12.97-11.77-21.13C437.44,279.85,430.07,277.97,440.04,271.17z"/>
<path class="st4" d="M453.48,323.48c-1.34-5.13-9.49-0.73-12.53-6.24c-3.74-1.5-19.46-8.41-11.07-12.05
	c4.76,4.65,11.06,3.43,16.99,4.45C450.49,311.8,458.12,322.8,453.48,323.48z"/>
<path class="st2" d="M454.35,304.89c-13.33-0.72-4.31-26.74-1.3-28.97C456.42,285.35,446.9,295.64,454.35,304.89z"/>
<path class="st4" d="M451.95,275.44c-1.6,0.46-1.81-2.16-1.85-3.34C451.63,272.52,452.08,274.01,451.95,275.44z"/>
<path class="st1" d="M472.56,281.97c-0.16,0.72-0.4,0.81-1.01,0.4C471.71,281.65,471.95,281.57,472.56,281.97z"/>
<path class="st0" d="M470.37,465.06c0.91,2.9-2.9,2.71-0.91,5.08c0.09,1.46-1.73,1.91-1.64,3.37c-3.85,2.32-1.4,7.87-6.07,9.16
	c-0.41,0.75,4.98,7.99-0.69,3.95c-0.33-1.31-1.35-1.18-2.2-0.35c-5.41,5.51-6.85-5.56-11.29-6.01c-0.56-10.6,3.27-23.58,9.06-32.28
	c4.47-3.2,4.37,7.75,9.51,8.55C469.03,458.36,471.14,461.19,470.37,465.06z"/>
<path class="st1" d="M465.31,362.28c-5.78-7.58-12.34-24.97-1.87-28.56c0.01,5.1-2.29,11.08-2.05,14.68
	C463.87,351.02,469.34,360.5,465.31,362.28z"/>
<path class="st3" d="M466.91,383.23c-5.81,10.67-3.32-4.91,0.06-7.88C471.86,372.05,466.07,380.98,466.91,383.23z"/>
<path class="st1" d="M466.98,368.15c-3.33-0.93-2.77-2.87-1.67-5.07C465.8,364.62,468.67,366.74,466.98,368.15z"/>
<path class="st1" d="M175.11,44.26c-0.16,0.71-0.4,0.81-1.01,0.39C174.26,43.94,174.5,43.85,175.11,44.26z"/>
<path class="st3" d="M437.52,508.06c-1,0.03-2.56,0.03-2.49-1.34C435.95,504.19,438.41,505.72,437.52,508.06z"/>
<path class="st2" d="M478.48,346.57c13.2,15.61,8.67,16.96-7.65,10.1C467.9,349.42,470.87,334.71,478.48,346.57z"/>
<path class="st4" d="M466.13,353.82c-2.91-0.45-2.76-3.81-4.73-5.41c-2.67-1.86,1.59-2.92,1.36-5.13
	c-0.14-7.4,0.33-14.36-0.55-21.13c-0.52-5.71,10.48-6.13,3.07,6.27c-1.3,2.82,4.71,3.6,2.11,5.12
	C462.91,337.92,465.73,347.86,466.13,353.82z"/>
<path class="st1" d="M473.54,357.32c1.1-0.15,1.75,0.3,1.88,1.43C474.29,358.93,473.78,358.3,473.54,357.32z"/>
<path class="st1" d="M463.63,485.33c0.01-10.6,6.17-5.37,4.12,2.48C465.76,487.71,466.01,484.64,463.63,485.33z"/>
<path class="st1" d="M424.01,221.47c4.5,2.31,4.23,4.66-0.53,2.65c-14.05,12.23-4.67,63.41-12.95,84.19
	c-4.1-6.15-3.17-2.7-8.67-2.94c-0.03-10.94,3.95-23,4.24-34.49c1-15.1,1.21-30.55,2.38-45.58
	C415.74,228.78,417.57,222.09,424.01,221.47z"/>
<path class="st3" d="M403.69,268.65c-4.27,4.42,1.78,10.84-8.79,6.19c-2.23-1.96-15.64,1.89-10.05-3.46
	c3.52-11.07,11.17-22.58,14.69-34.87C409.48,209.12,404.54,260.23,403.69,268.65z"/>
<path class="st1" d="M351.14,203.96c-0.33,0.99-2.19,0.5-1.64-0.46C349.94,203.02,351.35,202.92,351.14,203.96z"/>
<path class="st1" d="M309.89,228.01c-0.12,0.61-0.56,0.87-0.97,0.39C308.89,227.75,309.38,227.64,309.89,228.01z"/>
<path class="st3" d="M274.32,261.65c-10.19-0.95-11.01-16.88-14.43-24.79c-3.63-15.33-0.23-9.51,10.08-7.05
	C284.63,233.2,282.85,252.59,274.32,261.65z"/>
<path class="st3" d="M355.67,416.19c-11.26-10.1-24.81-17.98-38.96-24.35c-14.25-9.73-27.97-21.87-40.37-34.31
	c-3.27-3.34-5.3-7.35-8.76-10.56c-4.17-1.95-19.7-7.99-11.61-13.03c27.01,3.35,47.15,26.07,70.39,37.67
	C350.4,384.27,382.06,381.63,355.67,416.19z"/>
<path class="st4" d="M437.47,250.94c-12.4,4.87-19.1-19.21-5.97-21.82C431.91,234.91,431.16,243.38,437.47,250.94z"/>
<path class="st4" d="M434.19,259.38c3.55,2.3,2.2,8.1,4.14,11.78C430.07,275.5,430.95,263.09,434.19,259.38z"/>
<path class="st4" d="M453.48,323.48c-0.54,2.25-3,5.35-5.34,4.57C447.94,325.87,451,323.4,453.48,323.48z"/>
<path class="st1" d="M431.5,229.13c-1.5-0.3-2.74,0.72-4.16,0.82C426.4,225.79,429.7,225.95,431.5,229.13z"/>
<path class="st4" d="M427.41,226.51c0.52,2.35-1.27,3.69-1.71,0.74C425.06,224.91,426.97,224.25,427.41,226.51z"/>
<path class="st4" d="M433.3,254.35c1.86,1.44,1.93,1.72,0.86,3.39C432.84,256.87,433.38,255.53,433.3,254.35z"/>
<path class="st4" d="M454.3,349.63c0.13,0.61,0.18,0.95-0.52,1.06C453.7,350.21,453.89,349.86,454.3,349.63z"/>
<path class="st1" d="M177,257.76c0.14,0.94,0.26,1.87-0.68,2.51C175.12,258.76,175.2,258.44,177,257.76z"/>
<path class="st4" d="M172.93,295.61c0.87,1.13,0.81,1.27-0.65,1.79C172.06,296.65,172.24,296.04,172.93,295.61z"/>
<path class="st2" d="M402.09,71.44c1.13-0.84,1.29-0.76,1.7,0.81C403.07,72.3,402.45,72.15,402.09,71.44z"/>
<path class="st1" d="M448.39,179.36c-5.67-4.27-11.98,2.07-18.86-0.53c-17.4,0.59-4.82-2.6,3.22-5.75
	C443.45,169.34,454.4,162.75,448.39,179.36z"/>
<path class="st3" d="M448.39,179.36c0.53-5.13,2.73-10.27,2.19-15.31c-0.4-0.91-1.19-5.32,0.71-3.97c3.35,3.48,3.36,7.99,1.03,12.07
	c-1,3.41,8.86,11.87,2.67,13.15c0.1-1.99-2.41-8.4-4.68-6.77C451.95,187.1,449.02,189.23,448.39,179.36z"/>
<path class="st3" d="M449.28,144.78c-0.72,3.37,2.14,11.77-2.55,11.86C442.6,150.71,438.3,136.14,449.28,144.78z"/>
<path class="st1" d="M446.73,156.64c3.65,0.67,4.13,2.43,5.88-1.73c3.13,0.66,0.84,9.33-1.31,5.18
	C448.64,160.79,446.17,161.69,446.73,156.64z"/>
<path class="st1" d="M443.31,127.91c0.5,1.47-0.89,2.55-1.23,0.7C442.17,128.06,442.81,127.99,443.31,127.91z"/>
<path class="st1" d="M439.37,127.63c-0.72-0.16-0.81-0.4-0.4-1.01C439.69,126.78,439.78,127.02,439.37,127.63z"/>
<path class="st1" d="M419.99,173.99c-0.72-0.16-0.81-0.41-0.4-1.02C420.31,173.14,420.4,173.38,419.99,173.99z"/>
<path class="st7" d="M426.47,191.14c-5.12,0.57-3.2-9.02,0.92-6.07C429.18,186.79,430.4,191.49,426.47,191.14z"/>
<path class="st1" d="M435.8,213.91c-2.69,0.94-6.14,1.56-4.9-2.57C431.71,214.2,438.56,210.33,435.8,213.91z"/>
<path class="st4" d="M268.94,75.43c0.09,1.78-1.72,2.43-2.81,1.25C265.99,75.43,268.59,73.15,268.94,75.43z"/>
<path class="st3" d="M399.64,49.47c-3.79,0.67-3.08-2.18,0.44-2.08C403.92,47.25,404,50.32,399.64,49.47z"/>
<path class="st3" d="M179.2,117.31c0.32,6.45,11.36,25.78,1.12,27.36C162.81,136.88,154.95,121.58,179.2,117.31z"/>
<path class="st4" d="M452.61,154.91c-5.05,8.7-3.19-4.62-3.28-8.46C452.76,147.54,451.66,152.2,452.61,154.91z"/>
<path class="st3" d="M450.1,272.09c0.72,2.67,1.98,7.82-2.53,4.66C443.42,273.26,445.12,271.14,450.1,272.09z"/>
<path class="st3" d="M437.47,250.94c-1.7-4.76-10.97-15.46-4.41-18.39C434.45,237.61,442.66,247.15,437.47,250.94z"/>
<path class="st4" d="M439.65,252.43c-0.12,0.62-0.56,0.89-0.98,0.39C438.64,252.17,439.14,252.06,439.65,252.43z"/>
<path class="st1" d="M453.42,181.08c1.24,1.14,1.72,2.57,1.58,4.22C450.59,186.68,447.56,179.73,453.42,181.08z"/>
<path class="st4" d="M455.14,185.32c0.57-0.02,1.14-0.05,1.71-0.07C456.32,186.15,455.75,186.14,455.14,185.32z"/>
<path class="st2" d="M466.95,478.57c-3.25,2.37-1.42-4.23,0.87-5.06C469.76,474.84,466.72,476.66,466.95,478.57z"/>
<path class="st2" d="M469.46,470.15c-1.09-1.64-1.02-1.85,0.83-2.56C470.31,468.53,470.5,469.54,469.46,470.15z"/>
<path class="st2" d="M463.58,481.93c-0.14,1.18,0.59,3.13-1.22,2.47C460.11,483.75,462.21,481.8,463.58,481.93z"/>
<path class="st4" d="M453.42,181.08c-2.35,0.07-3.97,0.31-3.1-2.54C451.66,176.79,453,180,453.42,181.08z"/>
<path class="st8" d="M190.83,257.46"/>
<path class="st1" d="M541.82,262.1"/>
<path class="st2" d="M221.47,230.99"/>
<path class="st1" d="M527.43,251.88"/>
<path class="st1" d="M389.23,507.86"/>
<path class="st6" d="M113.76,115.16"/>
<path class="st9" d="M205.38,370.92c-4.19,10.76,1.78,23.53-1.69,34.6c-4.25-3.51-9.71-8.78-14.79-16.14
	c-4.73-6.87-7.61-13.37-9.39-18.36c0-0.18-0.01-1.74,1.28-2.75c1.07-0.85,2.28-0.73,2.51-0.7c0.26-0.07,0.64-0.13,1.02,0.01
	c1.01,0.37,1.05,1.74,1.69,1.85c0.65,0.11,1.38-1.18,1.48-1.35c1.76-3.07,9.7-7.6,14.02-5.41
	C204.81,364.33,205.29,369.51,205.38,370.92z"/>
<path class="st10" d="M172.75,292.55c-1.38-6.52,7.14-64.42,11.75-38.39c-5.14,2.07-7.19,3.55,0.06,4.63
	c3.42-0.87,2.97,4.15,6.37,3.36c3.44-4.6,6.76-1.75,8.74-5.12c-5.35-2.64,1.57-7.91,0.59-12.39c0.3-2.41-2.31-2.74-4.19-2.96
	c0.23-2.79,0.33-7.53,3.78-8.02c9,28.3,8.72,62.57,7.22,93.94c-1.06,13.17,1.34,32.79-2.23,42.73c-2.25-21.12-13.69,6.6-21.53-2.76
	c-4.72-0.84-0.9,2.69-1.69,4.86c-2.49,3,3.22,6.21,1.03,7.92c-10.65-21.44,2.91-51.91-2.58-76.2c-5.53-3.17-2.51-2.1,2.23-5.76
	C224.08,277.02,178.25,252.32,172.75,292.55z M189.94,263.03c-10.64-0.31-3.07,6.32,3.34,4.96
	C197.77,266.45,193.38,261.72,189.94,263.03z"/>
<path class="st11" d="M171.66,302.6c1.04,1.24,1.28,2.83,3.28,2.75C172.3,310.63,168.91,306.19,171.66,302.6z"/>
<path class="st12" d="M172.88,289.58c1.09-8.74,0.75-14.75,2.96-22.54c1.03-11.64-2.05-11.89,7.16-5.48
	c13.24,8.31,23.74-14.13,20.43,2.42c0.6,16.87-6.97,26.45-21.14,34.41C168.34,311.45,171.17,302.32,172.88,289.58z"/>
<path class="st13" d="M181.66,247.8c-0.82-8.03,5.71-4.36,10.85-7.66c1.96-0.42,4,1.13,7.04,0.67c4.38,3.5,1.55,12.35-0.46,17.95
	c-4.09-0.64-5.35,1.13-8.16,3.38c-4.28-0.01-11.88-3.16-10.55-6.58C186,256.05,187.31,248.5,181.66,247.8z"/>
</svg>
